<svg width="65" height="65" viewBox="0 0 90 88" fill="none" xmlns="http://www.w3.org/2000/svg">
<g opacity="0.2">
<rect x="1" width="88" height="88" rx="12" fill="#00E7FF"/>
</g>
<g clip-path="url(#clip0_266_407)">
<path d="M64.7923 27.1372C64.3587 25.397 63.1017 24.301 61.3208 24.0662C59.8289 23.8735 58.3868 24.1249 56.9657 24.5178C54.0949 25.3142 51.4755 26.666 48.9539 28.2211C46.1711 29.9371 43.5597 31.9168 41.156 34.1328C40.62 34.6281 40.0841 34.7922 39.3826 34.5724C38.7383 34.3722 38.0714 34.2472 37.412 34.0937C36.944 33.9687 36.4509 33.9726 35.985 34.1051C35.5191 34.2376 35.0977 34.4938 34.7655 34.8464C31.6674 37.9405 28.5743 41.0361 25.4862 44.1332C25.3097 44.3356 25.1472 44.5499 25 44.7745V44.925C25.1505 45.2803 25.4516 45.4038 25.7994 45.4579C28.0996 45.8177 30.3969 46.1911 32.7001 46.5268C33.4799 46.6397 34.1905 46.3627 34.8077 45.893C35.2909 45.5302 35.4098 45.5257 35.8314 45.9517L43.0663 53.1867C43.4803 53.6007 43.4743 53.7361 43.116 54.2149C42.8583 54.5441 42.6717 54.9232 42.5681 55.3282C42.4644 55.7332 42.4459 56.1553 42.5138 56.5678C42.85 58.7386 43.1908 60.9094 43.536 63.0802C43.5902 63.4294 43.6579 63.7742 43.9876 63.9834H44.379C44.7177 63.6658 45.0655 63.3572 45.3937 63.029C48.3041 60.1185 51.2145 57.2081 54.125 54.2977C54.9138 53.5103 55.1788 52.5905 54.9153 51.5157C54.7482 50.8202 54.5826 50.1247 54.411 49.4307C54.3578 49.2503 54.355 49.0588 54.4031 48.877C54.4511 48.6952 54.5481 48.53 54.6835 48.3995C57.8885 44.9115 60.6268 41.0953 62.6967 36.8215C63.6632 34.8268 64.4505 32.7569 64.8163 30.5635C65.012 29.442 65.0783 28.2873 64.7923 27.1372ZM55.1953 38.1507C54.3747 38.1546 53.5715 37.915 52.8871 37.4621C52.2028 37.0093 51.6682 36.3636 51.3509 35.6069C51.0336 34.8501 50.948 34.0162 51.1048 33.2107C51.2617 32.4053 51.6539 31.6644 52.232 31.082C52.81 30.4995 53.5478 30.1016 54.3521 29.9386C55.1563 29.7757 55.9908 29.8549 56.75 30.1664C57.5092 30.4779 58.1589 31.0076 58.6169 31.6884C59.075 32.3693 59.3207 33.1707 59.3231 33.9913C59.3271 35.0902 58.8945 36.1457 58.1205 36.9257C57.3464 37.7057 56.2942 38.1463 55.1953 38.1507Z" fill="#00E7FF"/>
<path d="M39.655 53.6142C38.2851 52.2433 36.9126 50.8729 35.5377 49.503C35.4278 49.3931 35.3134 49.2862 35.193 49.1868C34.9054 48.949 34.6345 48.949 34.3801 49.2486C34.1031 49.5752 33.8005 49.8823 33.5355 50.2195C31.6432 52.6282 30.3245 55.3379 29.3415 58.2238C29.1623 58.7491 29.0705 59.3046 28.9907 59.6253C28.9697 60.4367 29.1142 60.521 29.6501 60.2832C31.0877 59.6494 32.5013 58.9494 33.9751 58.4119C36.179 57.6096 38.2158 56.5753 39.8567 54.8577C40.2255 54.4723 40.2571 54.3097 39.9169 53.8987C39.8386 53.8069 39.7528 53.7061 39.655 53.6142Z" fill="#00E7FF"/>
</g>
<defs>
<clipPath id="clip0_266_407">
<rect width="39.9865" height="40" fill="white" transform="translate(25 24)"/>
</clipPath>
</defs>
</svg>
