<svg width="65" height="65" viewBox="0 0 88 88" fill="none" xmlns="http://www.w3.org/2000/svg">
<g opacity="0.2">
<rect width="88" height="88" fill="#9918FF"/>
</g>
<g clip-path="url(#clip0_266_408)">
<path d="M41.1226 56.8545C41.2418 54.7815 41.3611 52.7623 41.4804 50.7442C41.7086 46.848 41.936 42.9558 42.1626 39.0675C42.2878 36.9278 42.4167 34.7893 42.5312 32.6484C42.5383 32.5136 42.4787 32.2905 42.388 32.2464C41.8337 32.0114 41.3325 31.667 40.9144 31.2338C40.4964 30.8005 40.17 30.2874 39.9549 29.725H33.2471C33.6872 30.8342 34.113 31.9077 34.5424 32.9811C35.6444 35.7399 36.7119 38.5141 37.87 41.2502C38.3054 42.2795 38.309 43.2623 38.0478 44.294C37.643 45.9113 36.6862 47.3365 35.3426 48.3236C33.9991 49.3107 32.3531 49.7977 30.6887 49.7006C27.3169 49.5157 24.52 46.8905 24.0405 43.4842C23.941 42.8214 24.0234 42.144 24.2791 41.5245C26.0896 37.032 27.8914 32.5354 29.6845 28.0349C30.0542 27.1118 30.4478 26.8422 31.4413 26.8422C34.1345 26.8422 36.8288 26.8422 39.5219 26.8422C39.8177 26.8422 39.9799 26.7766 40.1183 26.4844C40.8995 24.885 42.1948 24 43.9815 24C45.7682 24 47.0635 24.8814 47.8411 26.4832C47.9842 26.779 48.1441 26.8506 48.4375 26.8494C51.1604 26.8398 53.8846 26.8434 56.6076 26.8494C57.4747 26.8494 57.9279 27.1523 58.2487 27.9526C60.0958 32.5533 61.9414 37.1596 63.7853 41.7714C64.1121 42.5825 63.9678 43.3875 63.7853 44.1843C63.0375 47.5418 59.9126 49.8747 56.4239 49.7018C53.0545 49.5348 50.2015 46.8703 49.7602 43.5056C49.6612 42.8135 49.7498 42.1075 50.0166 41.4613C51.5385 37.7019 53.0342 33.9305 54.5394 30.1639C54.5931 30.0292 54.6396 29.8908 54.7004 29.725H48.0093C47.7947 30.288 47.4685 30.8017 47.0501 31.2353C46.6317 31.6688 46.1299 32.0132 45.575 32.2476C45.4843 32.287 45.4247 32.5148 45.4318 32.6507C45.5511 34.7905 45.6704 36.929 45.7992 39.0687C45.9686 41.9503 46.1375 44.8323 46.3061 47.7147C46.4838 50.743 46.6639 53.7725 46.8416 56.8557C47.0372 56.8557 47.2102 56.8557 47.3843 56.8557C49.109 56.8831 50.8336 56.8998 52.5583 56.9511C52.9289 56.978 53.2937 57.0584 53.6413 57.1896C54.8018 57.576 55.3803 58.3632 55.4053 59.5905C55.4244 60.5733 55.4196 61.5561 55.4053 62.5377C55.3958 63.3977 54.7982 63.9988 53.9347 63.9988C47.2976 64.0036 40.6602 64.0036 34.0223 63.9988C33.1636 63.9988 32.5613 63.3929 32.5517 62.5377C32.541 61.6301 32.5446 60.7212 32.5517 59.8136C32.5601 58.2523 33.259 57.3566 34.7916 57.056C35.479 56.9322 36.1757 56.8683 36.8741 56.8652C38.272 56.8342 39.6687 56.8545 41.1226 56.8545ZM34.7201 41.1107L31.1229 32.1224C29.8956 35.1936 28.7184 38.1372 27.5268 41.1154L34.7201 41.1107ZM56.8401 32.1212L53.2477 41.1118H60.4362C59.2446 38.1313 58.0674 35.19 56.8401 32.1212Z" fill="#9918FF"/>
</g>
<defs>
<clipPath id="clip0_266_408">
<rect width="39.9797" height="40" fill="white" transform="translate(24 24)"/>
</clipPath>
</defs>
</svg>
