<svg  width="65" height="65" viewBox="0 0 88 88" fill="none" xmlns="http://www.w3.org/2000/svg">
<g opacity="0.2">
<rect width="88" height="88" rx="12" fill="white" fill-opacity="0.4"/>
</g>
<path d="M56.3833 45.6333C56.45 45.0999 56.5 44.5666 56.5 43.9999C56.5 43.4333 56.45 42.8999 56.3833 42.3666L59.9 39.6166C60.2166 39.3666 60.3 38.9166 60.1 38.5499L56.7666 32.7833C56.5666 32.4166 56.1166 32.2833 55.75 32.4166L51.6 34.0833C50.7333 33.4166 49.8 32.8666 48.7833 32.4499L48.15 28.0333C48.1 27.6333 47.75 27.3333 47.3333 27.3333H40.6666C40.25 27.3333 39.9 27.6333 39.85 28.0333L39.2166 32.4499C38.2 32.8666 37.2666 33.4333 36.4 34.0833L32.25 32.4166C31.8666 32.2666 31.4333 32.4166 31.2333 32.7833L27.9 38.5499C27.6833 38.9166 27.7833 39.3666 28.1 39.6166L31.6166 42.3666C31.55 42.8999 31.5 43.4499 31.5 43.9999C31.5 44.5499 31.55 45.0999 31.6166 45.6333L28.1 48.3833C27.7833 48.6333 27.7 49.0833 27.9 49.4499L31.2333 55.2166C31.4333 55.5833 31.8833 55.7166 32.25 55.5833L36.4 53.9166C37.2666 54.5833 38.2 55.1333 39.2166 55.5499L39.85 59.9666C39.9 60.3666 40.25 60.6666 40.6666 60.6666H47.3333C47.75 60.6666 48.1 60.3666 48.15 59.9666L48.7833 55.5499C49.8 55.1333 50.7333 54.5666 51.6 53.9166L55.75 55.5833C56.1333 55.7333 56.5666 55.5833 56.7666 55.2166L60.1 49.4499C60.3 49.0833 60.2166 48.6333 59.9 48.3833L56.3833 45.6333ZM44 49.8333C40.7833 49.8333 38.1666 47.2166 38.1666 43.9999C38.1666 40.7833 40.7833 38.1666 44 38.1666C47.2166 38.1666 49.8333 40.7833 49.8333 43.9999C49.8333 47.2166 47.2166 49.8333 44 49.8333Z" fill="#ffffff"/>
</svg>
