<svg width="65" height="65" viewBox="0 0 88 88" fill="none" xmlns="http://www.w3.org/2000/svg">
<g opacity="0.2">
<rect width="88" height="88" rx="12" fill="white" fill-opacity="0.4"/>
</g>
<path d="M47.3333 25.6667H40.6666C39.7499 25.6667 38.9999 26.4167 38.9999 27.3334C38.9999 28.2501 39.7499 29.0001 40.6666 29.0001H47.3333C48.2499 29.0001 48.9999 28.2501 48.9999 27.3334C48.9999 26.4167 48.2499 25.6667 47.3333 25.6667ZM43.9999 47.3334C44.9166 47.3334 45.6666 46.5834 45.6666 45.6667V39.0001C45.6666 38.0834 44.9166 37.3334 43.9999 37.3334C43.0833 37.3334 42.3333 38.0834 42.3333 39.0001V45.6667C42.3333 46.5834 43.0833 47.3334 43.9999 47.3334ZM55.7166 36.3167L56.9666 35.0667C57.5999 34.4334 57.6166 33.3834 56.9666 32.7334L56.9499 32.7167C56.2999 32.0667 55.2666 32.0834 54.6166 32.7167L53.3666 33.9667C50.7833 31.9001 47.5333 30.6667 43.9999 30.6667C35.9999 30.6667 29.1999 37.2667 28.9999 45.2667C28.7833 53.7334 35.5666 60.6667 43.9999 60.6667C52.2999 60.6667 58.9999 53.9501 58.9999 45.6667C58.9999 42.1334 57.7666 38.8834 55.7166 36.3167ZM43.9999 57.3334C37.5499 57.3334 32.3333 52.1167 32.3333 45.6667C32.3333 39.2167 37.5499 34.0001 43.9999 34.0001C50.4499 34.0001 55.6666 39.2167 55.6666 45.6667C55.6666 52.1167 50.4499 57.3334 43.9999 57.3334Z" fill="#ffffff"/>
</svg>
