<svg width="706.5" height="1080" viewBox="0 0 766 1080" fill="none" xmlns="http://www.w3.org/2000/svg">
<g style="mix-blend-mode:screen" opacity="0.75">
<path style="mix-blend-mode:screen" opacity="0.75" d="M797.749 597.717C798.099 598.17 798.216 598.766 798.086 599.336L774.34 700.761C774.184 701.447 773.666 701.992 772.992 702.199L673.239 732.19C672.565 732.397 671.84 732.216 671.322 731.736L595.315 660.302C594.81 659.836 594.589 659.111 594.745 658.424L618.491 556.999C618.647 556.313 619.165 555.769 619.839 555.561L719.592 525.571C720.266 525.363 720.991 525.545 721.496 526.024L797.503 597.458C797.581 597.536 797.659 597.626 797.736 597.717H797.749ZM770.764 698.766L793.992 599.557L719.644 529.677L622.067 559.007L598.839 658.217L673.187 728.096L770.777 698.766H770.764Z" fill="url(#paint0_radial_20_11449)"/>
<path style="mix-blend-mode:screen" opacity="0.75" d="M806.494 605.166C806.87 605.671 806.986 606.345 806.792 606.954L772.215 712.239C771.995 712.913 771.438 713.405 770.751 713.547L662.253 736.076C661.567 736.219 660.854 735.985 660.388 735.454L586.466 652.698C586 652.167 585.845 651.441 586.065 650.78L620.642 545.495C620.862 544.822 621.419 544.329 622.106 544.187L730.604 521.658C731.29 521.516 732.003 521.749 732.469 522.28L806.39 605.036C806.39 605.036 806.468 605.127 806.494 605.166V605.166ZM768.834 709.933L802.698 606.811L730.28 525.752L623.997 547.814L590.133 650.936L662.551 731.995L768.834 709.92V709.933Z" fill="url(#paint1_radial_20_11449)"/>
<path style="mix-blend-mode:screen" opacity="0.75" d="M744.401 519.326L815.07 613.885C815.485 614.442 815.576 615.193 815.304 615.828L768.899 724.196C768.627 724.844 768.018 725.298 767.318 725.375L650.244 739.198C649.545 739.276 648.858 738.991 648.443 738.421L577.774 643.863C577.359 643.305 577.269 642.554 577.541 641.919L623.946 533.551C624.218 532.903 624.826 532.45 625.526 532.372L742.6 518.549C743.3 518.471 743.986 518.756 744.401 519.326V519.326ZM811.249 615.323L741.94 522.591L627.12 536.142L581.609 642.425L650.918 735.156L765.738 721.605L811.249 615.323V615.323Z" fill="url(#paint2_radial_20_11449)"/>
<path style="mix-blend-mode:screen" opacity="0.75" d="M757.227 517.15C757.227 517.15 757.291 517.241 757.317 517.292L823.452 624.054C823.815 624.65 823.841 625.402 823.517 626.024L764.287 736.568C763.95 737.19 763.315 737.579 762.616 737.605L637.263 741.401C636.564 741.426 635.903 741.051 635.541 740.468L569.405 633.706C569.043 633.11 569.017 632.358 569.34 631.737L628.571 521.192C628.908 520.57 629.542 520.181 630.242 520.155L755.594 516.373C756.242 516.347 756.851 516.645 757.227 517.163V517.15ZM819.514 625.155L754.571 520.324L631.486 524.042L573.331 632.592L638.261 737.423L761.346 733.705L819.501 625.155H819.514Z" fill="url(#paint3_radial_20_11449)"/>
<path style="mix-blend-mode:screen" opacity="0.75" d="M771.01 516.036C771.075 516.126 771.14 516.217 771.192 516.334L831.38 635.61C831.691 636.232 831.653 636.983 831.264 637.566L758.25 749.238C757.861 749.821 757.2 750.171 756.488 750.119L623.285 742.515C622.585 742.476 621.963 742.074 621.639 741.439L561.45 622.163C561.14 621.541 561.178 620.79 561.567 620.207L634.581 508.535C634.97 507.952 635.631 507.602 636.343 507.654L769.546 515.258C770.129 515.297 770.66 515.582 771.01 516.049V516.036ZM827.364 636.362L768.199 519.106L637.263 511.631L565.492 621.399L624.658 738.641L755.594 746.116L827.364 636.349V636.362Z" fill="url(#paint4_radial_20_11449)"/>
<path style="mix-blend-mode:screen" opacity="0.75" d="M785.727 516.126C785.831 516.256 785.909 516.411 785.974 516.58L838.7 648.565C838.959 649.213 838.856 649.951 838.415 650.508L750.684 762.077C750.244 762.634 749.557 762.906 748.858 762.802L608.4 742.385C607.7 742.282 607.117 741.828 606.858 741.167L554.131 609.182C553.872 608.534 553.976 607.796 554.416 607.239L642.147 495.671C642.588 495.113 643.275 494.841 643.974 494.945L784.432 515.362C784.95 515.44 785.416 515.725 785.727 516.126V516.126ZM834.632 648.967L782.748 519.093L644.531 499.013L558.199 608.806L610.084 738.68L748.3 758.76L834.632 648.967Z" fill="url(#paint5_radial_20_11449)"/>
<path style="mix-blend-mode:screen" opacity="0.75" d="M801.325 517.59C801.455 517.772 801.558 517.979 801.636 518.199L845.281 662.958C845.489 663.632 845.307 664.357 844.828 664.875L741.499 774.98C741.02 775.498 740.294 775.705 739.621 775.55L592.659 740.895C591.973 740.727 591.428 740.222 591.234 739.548L547.589 594.789C547.382 594.115 547.563 593.39 548.042 592.872L651.371 482.767C651.851 482.249 652.576 482.042 653.25 482.197L800.211 516.852C800.664 516.955 801.066 517.228 801.338 517.59H801.325ZM841.188 663.01L798.203 520.414L653.444 486.278L551.67 594.724L594.654 737.32L739.413 771.456L841.188 663.01Z" fill="url(#paint6_radial_20_11449)"/>
<path style="mix-blend-mode:screen" opacity="0.75" d="M817.713 520.596C817.882 520.816 817.998 521.088 818.063 521.373L850.891 678.841C851.034 679.528 850.8 680.24 850.282 680.707L730.565 787.818C730.047 788.285 729.309 788.44 728.635 788.22L576.103 737.864C575.442 737.644 574.937 737.087 574.794 736.4L541.966 578.932C541.824 578.246 542.057 577.533 542.575 577.067L662.292 469.955C662.811 469.488 663.549 469.333 664.223 469.553L816.755 519.909C817.143 520.039 817.48 520.285 817.713 520.596V520.596ZM846.81 678.53L814.449 523.291L664.067 473.647L546.047 579.243L578.409 734.483L728.79 784.126L846.81 678.53V678.53Z" fill="url(#paint7_radial_20_11449)"/>
<path style="mix-blend-mode:screen" opacity="0.75" d="M834.801 525.286C835.008 525.558 835.137 525.882 835.176 526.231L855.36 696.149C855.438 696.848 855.153 697.535 854.583 697.95L717.791 800.359C717.234 800.786 716.483 800.864 715.835 800.592L558.847 733.083C558.199 732.811 557.758 732.203 557.668 731.516L537.484 561.598C537.406 560.899 537.691 560.212 538.261 559.798L675.066 457.389C675.636 456.961 676.374 456.883 677.022 457.155L834.01 524.664C834.334 524.806 834.606 525.014 834.814 525.286H834.801ZM851.331 695.488L831.406 527.825L676.504 461.21L541.526 562.259L561.45 729.923L716.353 796.537L851.331 695.488V695.488Z" fill="url(#paint8_radial_20_11449)"/>
<path style="mix-blend-mode:screen" opacity="0.75" d="M852.471 531.854C852.705 532.178 852.847 532.553 852.86 532.968L858.495 714.921C858.521 715.62 858.159 716.281 857.563 716.657L703.088 812.511C702.492 812.886 701.74 812.899 701.118 812.575L541.008 726.476C540.386 726.14 539.997 725.505 539.971 724.805L534.336 542.853C534.31 542.153 534.673 541.492 535.269 541.117L689.744 445.263C690.34 444.887 691.091 444.874 691.713 445.198L851.824 531.297C852.083 531.439 852.303 531.621 852.471 531.854V531.854ZM854.544 713.91L848.974 534.225L690.858 449.201L538.313 543.85L543.884 723.536L701.999 808.559L854.544 713.91Z" fill="url(#paint9_radial_20_11449)"/>
<path style="mix-blend-mode:screen" opacity="0.75" d="M870.596 540.443C870.868 540.806 871.01 541.259 870.984 541.726L860.089 735.079C860.05 735.778 859.636 736.4 859.014 736.724L686.414 823.989C685.793 824.3 685.041 824.261 684.445 823.872L522.741 717.784C522.158 717.408 521.822 716.734 521.86 716.035L532.755 522.682C532.794 521.982 533.209 521.36 533.831 521.036L706.43 433.785C707.052 433.474 707.803 433.513 708.399 433.901L870.103 539.989C870.298 540.119 870.466 540.275 870.596 540.456V540.443ZM856.228 733.731L866.994 542.645L707.194 437.801L536.629 524.029L525.864 715.115L685.663 819.96L856.228 733.718V733.731Z" fill="url(#paint10_radial_20_11449)"/>
<path style="mix-blend-mode:screen" opacity="0.75" d="M889.005 551.222C889.316 551.636 889.445 552.154 889.38 552.672L859.908 756.571C859.804 757.27 859.351 757.853 858.69 758.113L667.682 834.586C667.034 834.845 666.283 834.741 665.738 834.301L504.203 706.876C503.659 706.435 503.374 705.748 503.477 705.049L532.95 501.15C533.054 500.451 533.507 499.868 534.168 499.609L725.176 423.136C725.824 422.876 726.575 422.98 727.119 423.421L888.655 550.846C888.784 550.949 888.914 551.079 889.005 551.209V551.222ZM856.177 754.9L885.325 553.242L725.578 427.216L536.681 502.848L507.532 704.505L667.28 830.531L856.177 754.9V754.9Z" fill="url(#paint11_radial_20_11449)"/>
<path style="mix-blend-mode:screen" opacity="0.75" d="M907.504 564.358C907.854 564.824 907.984 565.407 907.841 565.977L857.705 779.333C857.55 780.019 857.032 780.564 856.358 780.771L646.85 844.108C646.176 844.315 645.451 844.134 644.933 843.654L485.561 693.636C485.055 693.156 484.835 692.444 484.99 691.757L535.126 478.402C535.282 477.715 535.8 477.171 536.474 476.964L745.982 413.627C746.655 413.419 747.381 413.601 747.899 414.08L907.271 564.099C907.349 564.177 907.427 564.267 907.504 564.358V564.358ZM854.143 777.338L903.76 566.185L746.033 417.72L538.702 480.397L489.084 691.55L646.811 840.014L854.156 777.338H854.143Z" fill="url(#paint12_radial_20_11449)"/>
<path style="mix-blend-mode:screen" opacity="0.75" d="M925.9 580.007C926.276 580.513 926.392 581.186 926.198 581.795L853.287 803.261C853.067 803.921 852.51 804.427 851.824 804.569L623.919 852.269C623.233 852.412 622.52 852.179 622.054 851.647L467.061 677.882C466.607 677.364 466.439 676.626 466.659 675.965L539.57 454.5C539.79 453.839 540.347 453.334 541.034 453.191L768.938 405.491C769.624 405.348 770.337 405.582 770.803 406.113L925.796 579.878C925.796 579.878 925.874 579.968 925.9 580.007V580.007ZM849.893 800.955L922.104 581.653L768.627 409.585L542.938 456.818L470.727 676.12L624.205 848.188L849.893 800.955V800.955Z" fill="url(#paint13_radial_20_11449)"/>
<path style="mix-blend-mode:screen" opacity="0.75" d="M795.806 399.765L943.959 598.287C944.374 598.844 944.465 599.595 944.193 600.243L846.383 828.186C846.111 828.834 845.502 829.274 844.815 829.365L598.865 858.786C598.165 858.863 597.479 858.578 597.064 858.008L448.924 659.486C448.509 658.929 448.418 658.178 448.691 657.53L546.501 429.587C546.773 428.939 547.382 428.499 548.068 428.408L794.019 398.988C794.718 398.91 795.405 399.195 795.819 399.765H795.806ZM940.125 599.738L793.332 403.029L549.636 432.178L452.72 658.035L599.512 854.744L843.209 825.595L940.125 599.738V599.738Z" fill="url(#paint14_radial_20_11449)"/>
<path style="mix-blend-mode:screen" opacity="0.75" d="M822.792 395.205C822.792 395.205 822.857 395.295 822.882 395.347L961.475 619.481C961.838 620.077 961.863 620.829 961.54 621.45L836.744 853.953C836.407 854.575 835.773 854.964 835.073 854.99L571.685 863.359C570.986 863.385 570.312 862.996 569.949 862.426L431.357 638.305C430.981 637.709 430.968 636.958 431.292 636.336L556.088 403.833C556.424 403.211 557.059 402.822 557.759 402.796L821.146 394.427C821.794 394.401 822.403 394.699 822.779 395.218L822.792 395.205ZM957.549 620.582L820.149 398.379L559.028 406.683L435.308 637.178L572.709 859.368L833.829 851.077L957.549 620.582Z" fill="url(#paint15_radial_20_11449)"/>
<path style="mix-blend-mode:screen" opacity="0.75" d="M851.811 392.873C851.875 392.963 851.94 393.067 851.992 393.171L978.096 643.552C978.407 644.173 978.368 644.925 977.979 645.508L824.178 880.33C823.789 880.913 823.128 881.25 822.429 881.211L542.523 865.665C541.824 865.626 541.202 865.224 540.878 864.589L414.774 614.209C414.464 613.587 414.502 612.835 414.891 612.252L568.692 377.43C569.081 376.847 569.742 376.511 570.442 376.55L850.347 392.095C850.93 392.134 851.461 392.419 851.811 392.886V392.873ZM974.067 644.303L848.987 395.956L571.348 380.527L418.79 613.457L543.871 861.804L821.509 877.234L974.08 644.303H974.067Z" fill="url(#paint16_radial_20_11449)"/>
<path style="mix-blend-mode:screen" opacity="0.75" d="M882.773 393.093C882.877 393.236 882.954 393.378 883.019 393.546L993.447 670.589C993.706 671.236 993.603 671.975 993.162 672.532L808.386 907.134C807.958 907.691 807.259 907.963 806.559 907.859L511.367 865.432C510.667 865.328 510.084 864.861 509.825 864.214L399.397 587.172C399.138 586.524 399.241 585.785 399.682 585.228L584.459 350.627C584.886 350.069 585.586 349.797 586.285 349.901L881.478 392.329C881.996 392.406 882.462 392.691 882.773 393.093V393.093ZM989.38 670.977L879.793 396.047L586.842 353.943L403.465 586.77L513.051 861.701L806.002 903.804L989.38 670.977Z" fill="url(#paint17_radial_20_11449)"/>
<path style="mix-blend-mode:screen" opacity="0.75" d="M915.575 396.202C915.705 396.383 915.821 396.591 915.886 396.811L1007.22 700.644C1007.41 701.318 1007.24 702.043 1006.77 702.549L789.186 934.041C788.707 934.546 787.994 934.767 787.308 934.611L478.396 862.27C477.71 862.115 477.166 861.597 476.958 860.923L385.626 557.09C385.431 556.416 385.6 555.691 386.079 555.186L603.658 323.693C604.137 323.188 604.85 322.968 605.537 323.123L914.448 395.464C914.901 395.567 915.303 395.839 915.575 396.202V396.202ZM1003.12 700.696L912.44 399.026L605.744 327.204L389.72 557.051L480.404 858.721L787.101 930.543L1003.12 700.696Z" fill="url(#paint18_radial_20_11449)"/>
<path style="mix-blend-mode:screen" opacity="0.75" d="M950.048 402.537C950.216 402.757 950.333 403.029 950.398 403.314L1019.02 733.783C1019.16 734.47 1018.93 735.182 1018.41 735.648L766.372 960.806C765.854 961.272 765.116 961.428 764.455 961.208L443.78 855.897C443.12 855.676 442.615 855.119 442.472 854.433L373.85 523.964C373.707 523.278 373.94 522.565 374.458 522.099L626.497 296.941C627.016 296.475 627.754 296.319 628.415 296.54L949.089 401.85C949.478 401.98 949.815 402.226 950.048 402.537V402.537ZM1014.95 733.472L946.783 405.232L628.272 300.633L377.917 524.288L446.087 852.528L764.598 957.127L1014.95 733.472Z" fill="url(#paint19_radial_20_11449)"/>
<path style="mix-blend-mode:screen" opacity="0.75" d="M985.985 412.448C986.192 412.72 986.322 413.044 986.361 413.393L1028.45 769.979C1028.53 770.679 1028.24 771.365 1027.67 771.78L739.685 987.04C739.128 987.454 738.377 987.545 737.729 987.273L407.649 845.934C407.001 845.649 406.548 845.053 406.47 844.354L364.379 487.768C364.302 487.068 364.6 486.382 365.157 485.967L653.146 270.707C653.703 270.293 654.454 270.202 655.102 270.474L985.182 411.813C985.506 411.955 985.778 412.176 985.985 412.448V412.448ZM1024.42 769.318L982.604 414.987L654.61 274.542L368.434 488.442L410.253 842.773L738.247 983.218L1024.42 769.318V769.318Z" fill="url(#paint20_radial_20_11449)"/>
<path style="mix-blend-mode:screen" opacity="0.75" d="M1023.17 426.284C1023.4 426.608 1023.54 426.996 1023.55 427.398L1035.1 809.207C1035.12 809.906 1034.76 810.567 1034.17 810.93L708.995 1012.35C708.399 1012.73 707.648 1012.74 707.026 1012.42L370.313 832.034C369.691 831.697 369.303 831.062 369.277 830.362L357.734 448.553C357.708 447.854 358.071 447.193 358.666 446.817L683.836 245.393C684.432 245.018 685.184 245.005 685.806 245.328L1022.51 425.714C1022.76 425.856 1022.99 426.037 1023.15 426.271L1023.17 426.284ZM1031.13 808.196L1019.66 428.654L684.951 249.345L361.711 449.577L373.189 829.119L707.894 1008.43L1031.13 808.196V808.196Z" fill="url(#paint21_radial_20_11449)"/>
<path style="mix-blend-mode:screen" opacity="0.75" d="M1061.28 444.382C1061.55 444.744 1061.69 445.198 1061.67 445.664L1038.5 851.375C1038.47 852.075 1038.05 852.697 1037.43 853.021L674.146 1036.33C673.524 1036.64 672.773 1036.61 672.19 1036.23L332.083 813.845C331.5 813.456 331.15 812.795 331.202 812.083L354.365 406.372C354.404 405.672 354.819 405.05 355.441 404.727L718.724 221.414C719.346 221.103 720.097 221.142 720.68 221.517L1060.79 443.902C1060.98 444.032 1061.15 444.187 1061.29 444.369L1061.28 444.382ZM1034.64 850.015L1057.68 446.571L719.463 225.417L358.213 407.706L335.179 811.15L673.395 1032.3L1034.64 850.015Z" fill="url(#paint22_radial_20_11449)"/>
<path style="mix-blend-mode:screen" opacity="0.75" d="M1099.99 467.105C1100.3 467.519 1100.43 468.037 1100.36 468.569L1038.19 896.381C1038.09 897.081 1037.62 897.663 1036.98 897.923L634.983 1058.51C634.335 1058.77 633.597 1058.67 633.04 1058.23L293.218 791.005C292.674 790.578 292.389 789.878 292.492 789.179L354.663 361.366C354.767 360.667 355.233 360.084 355.881 359.825L757.874 199.235C758.522 198.976 759.26 199.079 759.817 199.52L1099.64 466.742C1099.78 466.846 1099.9 466.975 1100 467.105H1099.99ZM1034.46 894.684L1096.31 469.126L758.276 203.303L358.394 363.05L296.547 788.608L634.582 1054.43L1034.46 894.684V894.684Z" fill="url(#paint23_radial_20_11449)"/>
<path style="mix-blend-mode:screen" opacity="0.75" d="M1138.91 494.777C1139.26 495.243 1139.39 495.826 1139.24 496.409L1033.69 944.029C1033.53 944.716 1033.01 945.26 1032.34 945.454L591.429 1078.37C590.755 1078.58 590.029 1078.4 589.511 1077.92L254.146 763.217C253.628 762.737 253.42 762.012 253.576 761.338L359.133 313.718C359.288 313.031 359.806 312.487 360.48 312.293L801.39 179.375C802.064 179.167 802.789 179.349 803.294 179.828L1138.66 494.531C1138.75 494.608 1138.82 494.699 1138.89 494.79L1138.91 494.777ZM1030.12 942.021L1135.15 496.603L801.442 183.456L362.696 315.713L257.669 761.131L591.377 1074.28L1030.12 942.021V942.021Z" fill="url(#paint24_radial_20_11449)"/>
<path style="mix-blend-mode:screen" opacity="0.75" d="M1177.59 527.721C1177.98 528.239 1178.08 528.9 1177.89 529.509L1024.53 994.1C1024.31 994.761 1023.75 995.266 1023.06 995.409L543.469 1095.4C542.783 1095.54 542.07 1095.3 541.604 1094.79L215.371 730.182C214.905 729.663 214.75 728.925 214.97 728.251L368.331 263.66C368.551 262.986 369.108 262.494 369.795 262.351L849.388 162.365C850.075 162.222 850.787 162.455 851.254 162.974L1177.49 527.592C1177.49 527.592 1177.56 527.682 1177.59 527.721V527.721ZM1021.15 991.794L1173.79 529.353L849.077 166.433L371.699 265.953L219.051 728.394L543.767 1091.31L1021.15 991.794V991.794Z" fill="url(#paint25_radial_20_11449)"/>
<path style="mix-blend-mode:screen" opacity="0.75" d="M1215.53 566.21C1215.95 566.767 1216.04 567.519 1215.77 568.167L1010.16 1046.31C1009.89 1046.96 1009.28 1047.4 1008.59 1047.49L491.053 1108.99C490.354 1109.06 489.667 1108.76 489.253 1108.21L177.323 691.55C176.908 690.98 176.817 690.241 177.089 689.594L382.698 211.451C382.97 210.803 383.579 210.363 384.265 210.272L901.804 148.775C902.503 148.697 903.19 148.982 903.605 149.552L1215.53 566.21V566.21ZM1007 1043.72L1211.71 567.661L901.143 152.817L385.859 214.042L181.144 690.099L491.714 1104.94L1007 1043.72Z" fill="url(#paint26_radial_20_11449)"/>
<path style="mix-blend-mode:screen" opacity="0.75" d="M960.231 140.03C960.231 140.03 960.296 140.121 960.322 140.173L1252.26 610.659C1252.64 611.255 1252.65 612.006 1252.33 612.628L990.092 1100.29C989.756 1100.91 989.121 1101.3 988.421 1101.33L434.246 1118.51C433.546 1118.53 432.899 1118.18 432.51 1117.57L140.569 647.088C140.194 646.492 140.181 645.741 140.505 645.119L402.739 157.455C403.076 156.833 403.711 156.444 404.411 156.419L958.586 139.24C959.234 139.227 959.842 139.512 960.218 140.03H960.231ZM1248.32 611.76L957.575 143.204L405.667 160.318L144.508 645.987L435.256 1114.54L987.165 1097.43L1248.32 611.76V611.76Z" fill="url(#paint27_radial_20_11449)"/>
<path style="mix-blend-mode:screen" opacity="0.75" d="M1021.12 135.185C1021.18 135.276 1021.25 135.367 1021.3 135.47L1287.07 661.157C1287.4 661.779 1287.34 662.531 1286.97 663.127L963.845 1155.64C963.457 1156.22 962.796 1156.56 962.096 1156.52L373.202 1123.34C372.502 1123.3 371.867 1122.89 371.557 1122.26L105.785 596.59C105.461 595.968 105.513 595.217 105.889 594.621L429.012 102.111C429.4 101.528 430.061 101.191 430.761 101.23L1019.66 134.408C1020.24 134.447 1020.77 134.732 1021.12 135.198V135.185ZM1283.06 661.922L1018.31 138.269L431.668 105.22L109.788 595.825L374.536 1119.48L961.177 1152.53L1283.06 661.922Z" fill="url(#paint28_radial_20_11449)"/>
<path style="mix-blend-mode:screen" opacity="0.75" d="M1086.11 135.703C1086.22 135.833 1086.3 135.988 1086.36 136.144L1319.28 717.9C1319.54 718.548 1319.43 719.299 1318.99 719.843L930.888 1211.83C930.447 1212.39 929.761 1212.66 929.061 1212.56L308.025 1122.8C307.326 1122.69 306.743 1122.23 306.484 1121.58L73.5663 539.821C73.3072 539.173 73.4108 538.422 73.8513 537.878L461.969 45.8866C462.397 45.3295 463.097 45.0575 463.796 45.1611L1084.83 134.926C1085.35 135.004 1085.82 135.276 1086.13 135.691L1086.11 135.703ZM1315.21 718.302L1083.13 138.657L464.353 49.2289L77.6471 539.432L309.723 1119.08L928.504 1208.51L1315.21 718.302Z" fill="url(#paint29_radial_20_11449)"/>
<path style="mix-blend-mode:screen" opacity="0.75" d="M1154.93 142.285C1155.06 142.466 1155.18 142.673 1155.24 142.893L1348.14 781.017C1348.35 781.691 1348.18 782.416 1347.69 782.934L890.753 1268.36C890.274 1268.86 889.561 1269.08 888.875 1268.93L239.04 1116.23C238.353 1116.06 237.809 1115.55 237.615 1114.88L44.7024 476.756C44.4951 476.083 44.6765 475.357 45.1558 474.839L502.091 -10.5713C502.57 -11.0765 503.283 -11.2967 503.969 -11.1413L1153.8 141.559C1154.26 141.663 1154.66 141.935 1154.93 142.298V142.285ZM1344.05 781.069L1151.8 145.122L504.164 -7.06044L48.7832 476.704L241.035 1112.65L888.668 1264.83L1344.04 781.069H1344.05Z" fill="url(#paint30_radial_20_11449)"/>
<path style="mix-blend-mode:screen" opacity="0.75" d="M1227.25 155.628C1227.41 155.848 1227.53 156.12 1227.6 156.405L1372.87 850.559C1373.02 851.246 1372.78 851.958 1372.26 852.425L843.014 1324.49C842.496 1324.96 841.757 1325.11 841.097 1324.89L166.57 1102.81C165.909 1102.59 165.404 1102.03 165.261 1101.34L19.9843 407.188C19.8418 406.501 20.0749 405.789 20.5931 405.322L549.843 -66.7441C550.361 -67.2105 551.1 -67.3659 551.76 -67.1457L1226.29 154.942C1226.68 155.071 1227.01 155.317 1227.25 155.628V155.628ZM1368.79 850.248L1223.98 158.31L551.605 -63.0648L24.0522 407.499L168.863 1099.44L841.239 1320.81L1368.79 850.248Z" fill="url(#paint31_radial_20_11449)"/>
<path style="mix-blend-mode:screen" opacity="0.75" d="M1302.66 176.473C1302.86 176.745 1302.99 177.069 1303.03 177.418L1392.63 926.54C1392.72 927.24 1392.42 927.926 1391.85 928.354L787.191 1379.58C786.634 1379.99 785.883 1380.08 785.248 1379.81L90.9905 1081.91C90.3428 1081.64 89.9024 1081.03 89.8117 1080.34L0.215036 331.22C0.124351 330.52 0.422284 329.834 0.992303 329.406L605.653 -121.816C606.21 -122.23 606.961 -122.321 607.609 -122.049L1301.87 175.851C1302.19 175.993 1302.46 176.214 1302.67 176.486L1302.66 176.473ZM1388.59 925.88L1299.26 179.012L607.091 -117.994L4.24402 331.868L93.5685 1078.74L785.74 1375.74L1388.59 925.88V925.88Z" fill="url(#paint32_radial_20_11449)"/>
</g>
<defs>
<radialGradient id="paint0_radial_20_11449" cx="0" cy="0" r="1" gradientUnits="userSpaceOnUse" gradientTransform="translate(695.457 633.927) rotate(-62.06) scale(774.462 774.462)">
<stop stop-color="#0060FF"/>
<stop offset="0.02" stop-color="#005BF4"/>
<stop offset="0.14" stop-color="#0046BB"/>
<stop offset="0.25" stop-color="#003389"/>
<stop offset="0.37" stop-color="#00235F"/>
<stop offset="0.49" stop-color="#00163C"/>
<stop offset="0.61" stop-color="#000C22"/>
<stop offset="0.74" stop-color="#00050F"/>
<stop offset="0.87" stop-color="#000103"/>
<stop offset="1"/>
</radialGradient>
<radialGradient id="paint1_radial_20_11449" cx="0" cy="0" r="1" gradientUnits="userSpaceOnUse" gradientTransform="translate(695.409 633.989) rotate(-62.06) scale(778.918)">
<stop stop-color="#0060FF"/>
<stop offset="0.02" stop-color="#005BF4"/>
<stop offset="0.14" stop-color="#0046BB"/>
<stop offset="0.25" stop-color="#003389"/>
<stop offset="0.37" stop-color="#00235F"/>
<stop offset="0.49" stop-color="#00163C"/>
<stop offset="0.61" stop-color="#000C22"/>
<stop offset="0.74" stop-color="#00050F"/>
<stop offset="0.87" stop-color="#000103"/>
<stop offset="1"/>
</radialGradient>
<radialGradient id="paint2_radial_20_11449" cx="0" cy="0" r="1" gradientUnits="userSpaceOnUse" gradientTransform="translate(695.281 634.009) rotate(-62.06) scale(760.431)">
<stop stop-color="#0060FF"/>
<stop offset="0.02" stop-color="#005BF4"/>
<stop offset="0.14" stop-color="#0046BB"/>
<stop offset="0.25" stop-color="#003389"/>
<stop offset="0.37" stop-color="#00235F"/>
<stop offset="0.49" stop-color="#00163C"/>
<stop offset="0.61" stop-color="#000C22"/>
<stop offset="0.74" stop-color="#00050F"/>
<stop offset="0.87" stop-color="#000103"/>
<stop offset="1"/>
</radialGradient>
<radialGradient id="paint3_radial_20_11449" cx="0" cy="0" r="1" gradientUnits="userSpaceOnUse" gradientTransform="translate(695.153 634.029) rotate(-62.06) scale(743.538)">
<stop stop-color="#0060FF"/>
<stop offset="0.02" stop-color="#005BF4"/>
<stop offset="0.14" stop-color="#0046BB"/>
<stop offset="0.25" stop-color="#003389"/>
<stop offset="0.37" stop-color="#00235F"/>
<stop offset="0.49" stop-color="#00163C"/>
<stop offset="0.61" stop-color="#000C22"/>
<stop offset="0.74" stop-color="#00050F"/>
<stop offset="0.87" stop-color="#000103"/>
<stop offset="1"/>
</radialGradient>
<radialGradient id="paint4_radial_20_11449" cx="0" cy="0" r="1" gradientUnits="userSpaceOnUse" gradientTransform="translate(695.133 634.122) rotate(-62.06) scale(755.081)">
<stop stop-color="#0060FF"/>
<stop offset="0.02" stop-color="#005BF4"/>
<stop offset="0.14" stop-color="#0046BB"/>
<stop offset="0.25" stop-color="#003389"/>
<stop offset="0.37" stop-color="#00235F"/>
<stop offset="0.49" stop-color="#00163C"/>
<stop offset="0.61" stop-color="#000C22"/>
<stop offset="0.74" stop-color="#00050F"/>
<stop offset="0.87" stop-color="#000103"/>
<stop offset="1"/>
</radialGradient>
<radialGradient id="paint5_radial_20_11449" cx="0" cy="0" r="1" gradientUnits="userSpaceOnUse" gradientTransform="translate(695.114 634.214) rotate(-62.06) scale(766.728)">
<stop stop-color="#0060FF"/>
<stop offset="0.02" stop-color="#005BF4"/>
<stop offset="0.14" stop-color="#0046BB"/>
<stop offset="0.25" stop-color="#003389"/>
<stop offset="0.37" stop-color="#00235F"/>
<stop offset="0.49" stop-color="#00163C"/>
<stop offset="0.61" stop-color="#000C22"/>
<stop offset="0.74" stop-color="#00050F"/>
<stop offset="0.87" stop-color="#000103"/>
<stop offset="1"/>
</radialGradient>
<radialGradient id="paint6_radial_20_11449" cx="0" cy="0" r="1" gradientUnits="userSpaceOnUse" gradientTransform="translate(695.094 634.306) rotate(-62.06) scale(778.646)">
<stop stop-color="#0060FF"/>
<stop offset="0.02" stop-color="#005BF4"/>
<stop offset="0.14" stop-color="#0046BB"/>
<stop offset="0.25" stop-color="#003389"/>
<stop offset="0.37" stop-color="#00235F"/>
<stop offset="0.49" stop-color="#00163C"/>
<stop offset="0.61" stop-color="#000C22"/>
<stop offset="0.74" stop-color="#00050F"/>
<stop offset="0.87" stop-color="#000103"/>
<stop offset="1"/>
</radialGradient>
<radialGradient id="paint7_radial_20_11449" cx="0" cy="0" r="1" gradientUnits="userSpaceOnUse" gradientTransform="translate(695.129 634.295) rotate(-62.06) scale(781.47)">
<stop stop-color="#0060FF"/>
<stop offset="0.02" stop-color="#005BF4"/>
<stop offset="0.14" stop-color="#0046BB"/>
<stop offset="0.25" stop-color="#003389"/>
<stop offset="0.37" stop-color="#00235F"/>
<stop offset="0.49" stop-color="#00163C"/>
<stop offset="0.61" stop-color="#000C22"/>
<stop offset="0.74" stop-color="#00050F"/>
<stop offset="0.87" stop-color="#000103"/>
<stop offset="1"/>
</radialGradient>
<radialGradient id="paint8_radial_20_11449" cx="0" cy="0" r="1" gradientUnits="userSpaceOnUse" gradientTransform="translate(695.329 633.947) rotate(-62.06) scale(759.356)">
<stop stop-color="#0060FF"/>
<stop offset="0.02" stop-color="#005BF4"/>
<stop offset="0.14" stop-color="#0046BB"/>
<stop offset="0.25" stop-color="#003389"/>
<stop offset="0.37" stop-color="#00235F"/>
<stop offset="0.49" stop-color="#00163C"/>
<stop offset="0.61" stop-color="#000C22"/>
<stop offset="0.74" stop-color="#00050F"/>
<stop offset="0.87" stop-color="#000103"/>
<stop offset="1"/>
</radialGradient>
<radialGradient id="paint9_radial_20_11449" cx="0" cy="0" r="1" gradientUnits="userSpaceOnUse" gradientTransform="translate(695.51 633.661) rotate(-62.06) scale(740.196)">
<stop stop-color="#0060FF"/>
<stop offset="0.02" stop-color="#005BF4"/>
<stop offset="0.14" stop-color="#0046BB"/>
<stop offset="0.25" stop-color="#003389"/>
<stop offset="0.37" stop-color="#00235F"/>
<stop offset="0.49" stop-color="#00163C"/>
<stop offset="0.61" stop-color="#000C22"/>
<stop offset="0.74" stop-color="#00050F"/>
<stop offset="0.87" stop-color="#000103"/>
<stop offset="1"/>
</radialGradient>
<radialGradient id="paint10_radial_20_11449" cx="0" cy="0" r="1" gradientUnits="userSpaceOnUse" gradientTransform="translate(695.49 633.754) rotate(-62.06) scale(751.972)">
<stop stop-color="#0060FF"/>
<stop offset="0.02" stop-color="#005BF4"/>
<stop offset="0.14" stop-color="#0046BB"/>
<stop offset="0.25" stop-color="#003389"/>
<stop offset="0.37" stop-color="#00235F"/>
<stop offset="0.49" stop-color="#00163C"/>
<stop offset="0.61" stop-color="#000C22"/>
<stop offset="0.74" stop-color="#00050F"/>
<stop offset="0.87" stop-color="#000103"/>
<stop offset="1"/>
</radialGradient>
<radialGradient id="paint11_radial_20_11449" cx="0" cy="0" r="1" gradientUnits="userSpaceOnUse" gradientTransform="translate(695.477 633.834) rotate(-62.06) scale(763.787)">
<stop stop-color="#0060FF"/>
<stop offset="0.02" stop-color="#005BF4"/>
<stop offset="0.14" stop-color="#0046BB"/>
<stop offset="0.25" stop-color="#003389"/>
<stop offset="0.37" stop-color="#00235F"/>
<stop offset="0.49" stop-color="#00163C"/>
<stop offset="0.61" stop-color="#000C22"/>
<stop offset="0.74" stop-color="#00050F"/>
<stop offset="0.87" stop-color="#000103"/>
<stop offset="1"/>
</radialGradient>
<radialGradient id="paint12_radial_20_11449" cx="0" cy="0" r="1" gradientUnits="userSpaceOnUse" gradientTransform="translate(695.457 633.927) rotate(-62.06) scale(775.783)">
<stop stop-color="#0060FF"/>
<stop offset="0.02" stop-color="#005BF4"/>
<stop offset="0.14" stop-color="#0046BB"/>
<stop offset="0.25" stop-color="#003389"/>
<stop offset="0.37" stop-color="#00235F"/>
<stop offset="0.49" stop-color="#00163C"/>
<stop offset="0.61" stop-color="#000C22"/>
<stop offset="0.74" stop-color="#00050F"/>
<stop offset="0.87" stop-color="#000103"/>
<stop offset="1"/>
</radialGradient>
<radialGradient id="paint13_radial_20_11449" cx="0" cy="0" r="1" gradientUnits="userSpaceOnUse" gradientTransform="translate(695.409 633.989) rotate(-62.06) scale(779.682)">
<stop stop-color="#0060FF"/>
<stop offset="0.02" stop-color="#005BF4"/>
<stop offset="0.14" stop-color="#0046BB"/>
<stop offset="0.25" stop-color="#003389"/>
<stop offset="0.37" stop-color="#00235F"/>
<stop offset="0.49" stop-color="#00163C"/>
<stop offset="0.61" stop-color="#000C22"/>
<stop offset="0.74" stop-color="#00050F"/>
<stop offset="0.87" stop-color="#000103"/>
<stop offset="1"/>
</radialGradient>
<radialGradient id="paint14_radial_20_11449" cx="0" cy="0" r="1" gradientUnits="userSpaceOnUse" gradientTransform="translate(695.281 634.009) rotate(-62.06) scale(760.004)">
<stop stop-color="#0060FF"/>
<stop offset="0.02" stop-color="#005BF4"/>
<stop offset="0.14" stop-color="#0046BB"/>
<stop offset="0.25" stop-color="#003389"/>
<stop offset="0.37" stop-color="#00235F"/>
<stop offset="0.49" stop-color="#00163C"/>
<stop offset="0.61" stop-color="#000C22"/>
<stop offset="0.74" stop-color="#00050F"/>
<stop offset="0.87" stop-color="#000103"/>
<stop offset="1"/>
</radialGradient>
<radialGradient id="paint15_radial_20_11449" cx="0" cy="0" r="1" gradientUnits="userSpaceOnUse" gradientTransform="translate(695.153 634.029) rotate(-62.06) scale(742.424)">
<stop stop-color="#0060FF"/>
<stop offset="0.02" stop-color="#005BF4"/>
<stop offset="0.14" stop-color="#0046BB"/>
<stop offset="0.25" stop-color="#003389"/>
<stop offset="0.37" stop-color="#00235F"/>
<stop offset="0.49" stop-color="#00163C"/>
<stop offset="0.61" stop-color="#000C22"/>
<stop offset="0.74" stop-color="#00050F"/>
<stop offset="0.87" stop-color="#000103"/>
<stop offset="1"/>
</radialGradient>
<radialGradient id="paint16_radial_20_11449" cx="0" cy="0" r="1" gradientUnits="userSpaceOnUse" gradientTransform="translate(695.133 634.122) rotate(-62.06) scale(754.084)">
<stop stop-color="#0060FF"/>
<stop offset="0.02" stop-color="#005BF4"/>
<stop offset="0.14" stop-color="#0046BB"/>
<stop offset="0.25" stop-color="#003389"/>
<stop offset="0.37" stop-color="#00235F"/>
<stop offset="0.49" stop-color="#00163C"/>
<stop offset="0.61" stop-color="#000C22"/>
<stop offset="0.74" stop-color="#00050F"/>
<stop offset="0.87" stop-color="#000103"/>
<stop offset="1"/>
</radialGradient>
<radialGradient id="paint17_radial_20_11449" cx="0" cy="0" r="1" gradientUnits="userSpaceOnUse" gradientTransform="translate(695.114 634.214) rotate(-62.06) scale(765.847)">
<stop stop-color="#0060FF"/>
<stop offset="0.02" stop-color="#005BF4"/>
<stop offset="0.14" stop-color="#0046BB"/>
<stop offset="0.25" stop-color="#003389"/>
<stop offset="0.37" stop-color="#00235F"/>
<stop offset="0.49" stop-color="#00163C"/>
<stop offset="0.61" stop-color="#000C22"/>
<stop offset="0.74" stop-color="#00050F"/>
<stop offset="0.87" stop-color="#000103"/>
<stop offset="1"/>
</radialGradient>
<radialGradient id="paint18_radial_20_11449" cx="0" cy="0" r="1" gradientUnits="userSpaceOnUse" gradientTransform="translate(695.088 634.318) rotate(-62.06) scale(777.83)">
<stop stop-color="#0060FF"/>
<stop offset="0.02" stop-color="#005BF4"/>
<stop offset="0.14" stop-color="#0046BB"/>
<stop offset="0.25" stop-color="#003389"/>
<stop offset="0.37" stop-color="#00235F"/>
<stop offset="0.49" stop-color="#00163C"/>
<stop offset="0.61" stop-color="#000C22"/>
<stop offset="0.74" stop-color="#00050F"/>
<stop offset="0.87" stop-color="#000103"/>
<stop offset="1"/>
</radialGradient>
<radialGradient id="paint19_radial_20_11449" cx="0" cy="0" r="1" gradientUnits="userSpaceOnUse" gradientTransform="translate(695.123 634.307) rotate(-62.06) scale(781.509)">
<stop stop-color="#0060FF"/>
<stop offset="0.02" stop-color="#005BF4"/>
<stop offset="0.14" stop-color="#0046BB"/>
<stop offset="0.25" stop-color="#003389"/>
<stop offset="0.37" stop-color="#00235F"/>
<stop offset="0.49" stop-color="#00163C"/>
<stop offset="0.61" stop-color="#000C22"/>
<stop offset="0.74" stop-color="#00050F"/>
<stop offset="0.87" stop-color="#000103"/>
<stop offset="1"/>
</radialGradient>
<radialGradient id="paint20_radial_20_11449" cx="0" cy="0" r="1" gradientUnits="userSpaceOnUse" gradientTransform="translate(695.323 633.958) rotate(-62.06) scale(760.03)">
<stop stop-color="#0060FF"/>
<stop offset="0.02" stop-color="#005BF4"/>
<stop offset="0.14" stop-color="#0046BB"/>
<stop offset="0.25" stop-color="#003389"/>
<stop offset="0.37" stop-color="#00235F"/>
<stop offset="0.49" stop-color="#00163C"/>
<stop offset="0.61" stop-color="#000C22"/>
<stop offset="0.74" stop-color="#00050F"/>
<stop offset="0.87" stop-color="#000103"/>
<stop offset="1"/>
</radialGradient>
<radialGradient id="paint21_radial_20_11449" cx="0" cy="0" r="1" gradientUnits="userSpaceOnUse" gradientTransform="translate(695.51 633.661) rotate(-62.06) scale(740.779)">
<stop stop-color="#0060FF"/>
<stop offset="0.02" stop-color="#005BF4"/>
<stop offset="0.14" stop-color="#0046BB"/>
<stop offset="0.25" stop-color="#003389"/>
<stop offset="0.37" stop-color="#00235F"/>
<stop offset="0.49" stop-color="#00163C"/>
<stop offset="0.61" stop-color="#000C22"/>
<stop offset="0.74" stop-color="#00050F"/>
<stop offset="0.87" stop-color="#000103"/>
<stop offset="1"/>
</radialGradient>
<radialGradient id="paint22_radial_20_11449" cx="0" cy="0" r="1" gradientUnits="userSpaceOnUse" gradientTransform="translate(695.49 633.754) rotate(-62.06) scale(752.568)">
<stop stop-color="#0060FF"/>
<stop offset="0.02" stop-color="#005BF4"/>
<stop offset="0.14" stop-color="#0046BB"/>
<stop offset="0.25" stop-color="#003389"/>
<stop offset="0.37" stop-color="#00235F"/>
<stop offset="0.49" stop-color="#00163C"/>
<stop offset="0.61" stop-color="#000C22"/>
<stop offset="0.74" stop-color="#00050F"/>
<stop offset="0.87" stop-color="#000103"/>
<stop offset="1"/>
</radialGradient>
<radialGradient id="paint23_radial_20_11449" cx="0" cy="0" r="1" gradientUnits="userSpaceOnUse" gradientTransform="translate(695.476 633.834) rotate(-62.06) scale(764.409)">
<stop stop-color="#0060FF"/>
<stop offset="0.02" stop-color="#005BF4"/>
<stop offset="0.14" stop-color="#0046BB"/>
<stop offset="0.25" stop-color="#003389"/>
<stop offset="0.37" stop-color="#00235F"/>
<stop offset="0.49" stop-color="#00163C"/>
<stop offset="0.61" stop-color="#000C22"/>
<stop offset="0.74" stop-color="#00050F"/>
<stop offset="0.87" stop-color="#000103"/>
<stop offset="1"/>
</radialGradient>
<radialGradient id="paint24_radial_20_11449" cx="0" cy="0" r="1" gradientUnits="userSpaceOnUse" gradientTransform="translate(695.457 633.927) rotate(-62.06) scale(776.457)">
<stop stop-color="#0060FF"/>
<stop offset="0.02" stop-color="#005BF4"/>
<stop offset="0.14" stop-color="#0046BB"/>
<stop offset="0.25" stop-color="#003389"/>
<stop offset="0.37" stop-color="#00235F"/>
<stop offset="0.49" stop-color="#00163C"/>
<stop offset="0.61" stop-color="#000C22"/>
<stop offset="0.74" stop-color="#00050F"/>
<stop offset="0.87" stop-color="#000103"/>
<stop offset="1"/>
</radialGradient>
<radialGradient id="paint25_radial_20_11449" cx="0" cy="0" r="1" gradientUnits="userSpaceOnUse" gradientTransform="translate(695.409 633.989) rotate(-62.06) scale(779.929)">
<stop stop-color="#0060FF"/>
<stop offset="0.02" stop-color="#005BF4"/>
<stop offset="0.14" stop-color="#0046BB"/>
<stop offset="0.25" stop-color="#003389"/>
<stop offset="0.37" stop-color="#00235F"/>
<stop offset="0.49" stop-color="#00163C"/>
<stop offset="0.61" stop-color="#000C22"/>
<stop offset="0.74" stop-color="#00050F"/>
<stop offset="0.87" stop-color="#000103"/>
<stop offset="1"/>
</radialGradient>
<radialGradient id="paint26_radial_20_11449" cx="0" cy="0" r="1" gradientUnits="userSpaceOnUse" gradientTransform="translate(695.281 634.009) rotate(-62.06) scale(759.641)">
<stop stop-color="#0060FF"/>
<stop offset="0.02" stop-color="#005BF4"/>
<stop offset="0.14" stop-color="#0046BB"/>
<stop offset="0.25" stop-color="#003389"/>
<stop offset="0.37" stop-color="#00235F"/>
<stop offset="0.49" stop-color="#00163C"/>
<stop offset="0.61" stop-color="#000C22"/>
<stop offset="0.74" stop-color="#00050F"/>
<stop offset="0.87" stop-color="#000103"/>
<stop offset="1"/>
</radialGradient>
<radialGradient id="paint27_radial_20_11449" cx="0" cy="0" r="1" gradientUnits="userSpaceOnUse" gradientTransform="translate(695.147 634.041) rotate(-62.06) scale(741.867)">
<stop stop-color="#0060FF"/>
<stop offset="0.02" stop-color="#005BF4"/>
<stop offset="0.14" stop-color="#0046BB"/>
<stop offset="0.25" stop-color="#003389"/>
<stop offset="0.37" stop-color="#00235F"/>
<stop offset="0.49" stop-color="#00163C"/>
<stop offset="0.61" stop-color="#000C22"/>
<stop offset="0.74" stop-color="#00050F"/>
<stop offset="0.87" stop-color="#000103"/>
<stop offset="1"/>
</radialGradient>
<radialGradient id="paint28_radial_20_11449" cx="0" cy="0" r="1" gradientUnits="userSpaceOnUse" gradientTransform="translate(695.133 634.122) rotate(-62.06) scale(753.591)">
<stop stop-color="#0060FF"/>
<stop offset="0.02" stop-color="#005BF4"/>
<stop offset="0.14" stop-color="#0046BB"/>
<stop offset="0.25" stop-color="#003389"/>
<stop offset="0.37" stop-color="#00235F"/>
<stop offset="0.49" stop-color="#00163C"/>
<stop offset="0.61" stop-color="#000C22"/>
<stop offset="0.74" stop-color="#00050F"/>
<stop offset="0.87" stop-color="#000103"/>
<stop offset="1"/>
</radialGradient>
<radialGradient id="paint29_radial_20_11449" cx="0" cy="0" r="1" gradientUnits="userSpaceOnUse" gradientTransform="translate(695.114 634.214) rotate(-62.06) scale(765.406)">
<stop stop-color="#0060FF"/>
<stop offset="0.02" stop-color="#005BF4"/>
<stop offset="0.14" stop-color="#0046BB"/>
<stop offset="0.25" stop-color="#003389"/>
<stop offset="0.37" stop-color="#00235F"/>
<stop offset="0.49" stop-color="#00163C"/>
<stop offset="0.61" stop-color="#000C22"/>
<stop offset="0.74" stop-color="#00050F"/>
<stop offset="0.87" stop-color="#000103"/>
<stop offset="1"/>
</radialGradient>
<radialGradient id="paint30_radial_20_11449" cx="0" cy="0" r="1" gradientUnits="userSpaceOnUse" gradientTransform="translate(695.088 634.318) rotate(-62.06) scale(777.428)">
<stop stop-color="#0060FF"/>
<stop offset="0.02" stop-color="#005BF4"/>
<stop offset="0.14" stop-color="#0046BB"/>
<stop offset="0.25" stop-color="#003389"/>
<stop offset="0.37" stop-color="#00235F"/>
<stop offset="0.49" stop-color="#00163C"/>
<stop offset="0.61" stop-color="#000C22"/>
<stop offset="0.74" stop-color="#00050F"/>
<stop offset="0.87" stop-color="#000103"/>
<stop offset="1"/>
</radialGradient>
<radialGradient id="paint31_radial_20_11449" cx="0" cy="0" r="1" gradientUnits="userSpaceOnUse" gradientTransform="translate(693.927 633.658) rotate(-62.06) scale(781.716)">
<stop stop-color="#0060FF"/>
<stop offset="0.02" stop-color="#005BF4"/>
<stop offset="0.14" stop-color="#0046BB"/>
<stop offset="0.25" stop-color="#003389"/>
<stop offset="0.37" stop-color="#00235F"/>
<stop offset="0.49" stop-color="#00163C"/>
<stop offset="0.61" stop-color="#000C22"/>
<stop offset="0.74" stop-color="#00050F"/>
<stop offset="0.87" stop-color="#000103"/>
<stop offset="1"/>
</radialGradient>
<radialGradient id="paint32_radial_20_11449" cx="0" cy="0" r="1" gradientUnits="userSpaceOnUse" gradientTransform="translate(694.116 633.303) rotate(-62.06) scale(760.535)">
<stop stop-color="#0060FF"/>
<stop offset="0.02" stop-color="#005BF4"/>
<stop offset="0.14" stop-color="#0046BB"/>
<stop offset="0.25" stop-color="#003389"/>
<stop offset="0.37" stop-color="#00235F"/>
<stop offset="0.49" stop-color="#00163C"/>
<stop offset="0.61" stop-color="#000C22"/>
<stop offset="0.74" stop-color="#00050F"/>
<stop offset="0.87" stop-color="#000103"/>
<stop offset="1"/>
</radialGradient>
</defs>
</svg>
