<svg width="776" height="371" viewBox="0 0 1166 371" fill="none" xmlns="http://www.w3.org/2000/svg">
<g style="mix-blend-mode:screen" opacity="0.75">
<path style="mix-blend-mode:screen" opacity="0.75" d="M428.119 601.733L443.056 433.241C443.108 432.696 443.432 432.23 443.937 431.997L597.441 360.926C597.933 360.693 598.503 360.744 598.956 361.068L737.523 458.49C737.963 458.801 738.209 459.332 738.158 459.863L723.221 628.355C723.169 628.9 722.845 629.366 722.353 629.599L568.849 700.67C568.357 700.903 567.787 700.851 567.333 700.528L428.767 603.106C428.391 602.847 428.171 602.433 428.132 601.992C428.132 601.901 428.132 601.811 428.132 601.733H428.119ZM720.254 627.215L735.036 460.472L597.907 364.061L445.997 434.393L431.215 601.137L568.344 697.548L720.254 627.215Z" fill="url(#paint0_radial_20_11517)"/>
<path style="mix-blend-mode:screen" opacity="0.75" d="M425.528 620.349L425.735 440.392C425.735 439.848 426.02 439.342 426.5 439.07L582.581 349.513C583.048 349.241 583.631 349.241 584.097 349.513L739.971 439.912C740.438 440.184 740.723 440.69 740.723 441.221L740.515 621.178C740.515 621.723 740.231 622.228 739.751 622.5L583.669 712.058C583.203 712.33 582.62 712.33 582.154 712.058L426.279 621.658C425.852 621.412 425.567 620.958 425.528 620.479C425.528 620.44 425.528 620.388 425.528 620.349ZM737.497 620.31L737.704 442.115L583.346 352.596L428.78 441.273L428.572 619.469L582.931 708.987L737.497 620.31Z" fill="url(#paint1_radial_20_11517)"/>
<path style="mix-blend-mode:screen" opacity="0.75" d="M408.687 448.204L565.805 338.825C566.245 338.514 566.828 338.462 567.32 338.695L740.891 420.039C741.384 420.273 741.708 420.739 741.759 421.283L758.225 612.019C758.277 612.563 758.031 613.082 757.577 613.392L600.459 722.771C600.019 723.082 599.436 723.134 598.944 722.901L425.36 641.557C424.868 641.323 424.544 640.857 424.492 640.313L408.026 449.577C407.974 449.033 408.22 448.514 408.674 448.204H408.687ZM599.449 719.779L755.129 611.397L738.819 422.41L566.828 341.804L411.148 450.186L427.459 639.173L599.449 719.779Z" fill="url(#paint2_radial_20_11517)"/>
<path style="mix-blend-mode:screen" opacity="0.75" d="M390.666 459.513L547.033 329.031C547.448 328.681 548.017 328.577 548.523 328.772L740.023 398.897C740.529 399.078 740.904 399.532 740.995 400.063L776.129 600.671C776.207 601.189 776.025 601.746 775.611 602.096L619.244 732.578C618.829 732.928 618.259 733.032 617.754 732.837L426.254 662.712C425.749 662.531 425.373 662.077 425.282 661.546L390.148 460.938C390.148 460.938 390.135 460.848 390.135 460.809C390.096 460.316 390.291 459.837 390.679 459.513H390.666ZM617.962 729.676L772.981 600.308L738.158 401.436L548.303 331.92L393.283 461.275L428.106 660.147L617.962 729.663V729.676Z" fill="url(#paint3_radial_20_11517)"/>
<path style="mix-blend-mode:screen" opacity="0.75" d="M372.62 473.168L526.24 320.377C526.629 319.988 527.186 319.846 527.704 319.988L737.147 376.55C737.665 376.692 738.08 377.094 738.222 377.625L794.058 586.964C794.201 587.495 794.058 588.052 793.657 588.428L640.037 741.219C639.648 741.608 639.091 741.75 638.573 741.608L429.13 685.046C428.611 684.904 428.197 684.502 428.054 683.971L372.218 474.632C372.192 474.541 372.179 474.45 372.179 474.373C372.141 473.932 372.296 473.492 372.62 473.168ZM638.521 738.447L790.897 586.9L735.515 379.257L527.756 323.162L375.379 474.709L430.762 682.352L638.521 738.447Z" fill="url(#paint4_radial_20_11517)"/>
<path style="mix-blend-mode:screen" opacity="0.75" d="M354.768 489.31L503.4 313.148C503.75 312.733 504.294 312.539 504.825 312.63L732.043 353.153C732.574 353.243 733.015 353.619 733.209 354.124L811.794 570.809C811.975 571.315 811.884 571.898 811.522 572.312L662.889 748.474C662.539 748.889 661.995 749.083 661.464 748.992L434.247 708.469C433.716 708.378 433.275 708.003 433.081 707.497L354.496 490.812C354.444 490.683 354.418 490.553 354.405 490.424C354.366 490.022 354.496 489.633 354.755 489.31H354.768ZM661.127 745.831L808.633 571.017L730.657 355.99L505.175 315.778L357.67 490.592L435.646 705.619L661.127 745.831Z" fill="url(#paint5_radial_20_11517)"/>
<path style="mix-blend-mode:screen" opacity="0.75" d="M337.344 508.056L478.527 307.577C478.838 307.137 479.369 306.891 479.9 306.943L724.452 328.81C724.996 328.862 725.462 329.186 725.695 329.678L829.063 552.025C829.296 552.517 829.244 553.1 828.933 553.541L687.75 754.019C687.439 754.459 686.908 754.705 686.377 754.654L441.826 732.786C441.282 732.734 440.815 732.41 440.582 731.918L337.214 509.571C337.136 509.403 337.098 509.234 337.072 509.066C337.046 508.716 337.137 508.354 337.344 508.056ZM685.768 751.557L825.941 552.517L723.311 331.764L480.509 310.052L340.336 509.092L442.966 729.845L685.768 751.557Z" fill="url(#paint6_radial_20_11517)"/>
<path style="mix-blend-mode:screen" opacity="0.75" d="M320.619 529.535L451.659 303.989C451.931 303.522 452.436 303.237 452.98 303.237L714.178 303.743C714.722 303.743 715.227 304.028 715.487 304.507L845.645 530.558C845.917 531.025 845.917 531.608 845.645 532.074L714.606 757.62C714.334 758.087 713.828 758.372 713.284 758.372L452.086 757.866C451.542 757.866 451.037 757.581 450.777 757.102L320.619 531.051C320.502 530.856 320.437 530.636 320.424 530.429C320.399 530.118 320.463 529.807 320.619 529.535ZM712.416 755.34L842.575 531.31L713.284 306.774L453.835 306.269L323.676 530.299L452.967 754.835L712.416 755.34Z" fill="url(#paint7_radial_20_11517)"/>
<path style="mix-blend-mode:screen" opacity="0.75" d="M304.904 553.839L422.859 302.654C423.092 302.162 423.559 301.838 424.103 301.786L700.964 278.105C701.508 278.053 702.026 278.299 702.337 278.752L861.243 506.255C861.554 506.695 861.606 507.278 861.372 507.771L743.417 758.955C743.184 759.447 742.718 759.771 742.174 759.823L465.313 783.504C464.769 783.556 464.25 783.31 463.939 782.857L305.034 555.354C304.878 555.134 304.788 554.875 304.762 554.616C304.736 554.357 304.788 554.085 304.904 553.839ZM741.034 756.869L858.25 507.278L700.355 281.214L425.243 304.74L308.026 554.331L465.922 780.395L741.034 756.869Z" fill="url(#paint8_radial_20_11517)"/>
<path style="mix-blend-mode:screen" opacity="0.75" d="M290.499 581.044L392.221 303.911C392.402 303.406 392.856 303.03 393.387 302.939L684.602 252.169C685.133 252.078 685.677 252.272 686.027 252.687L875.52 479.049C875.869 479.464 875.973 480.034 875.779 480.552L774.056 757.685C773.875 758.19 773.421 758.566 772.89 758.657L481.675 809.427C481.144 809.518 480.6 809.324 480.25 808.909L290.758 582.547C290.55 582.301 290.434 582.003 290.408 581.705C290.395 581.484 290.408 581.264 290.499 581.057V581.044ZM771.517 755.82L872.631 480.332L684.265 255.304L394.773 305.776L293.66 581.264L482.025 806.292L771.517 755.82Z" fill="url(#paint9_radial_20_11517)"/>
<path style="mix-blend-mode:screen" opacity="0.75" d="M277.75 611.203L359.859 308.07C360.002 307.551 360.416 307.137 360.934 306.994L664.858 226.194C665.376 226.052 665.946 226.194 666.322 226.583L888.137 448.916C888.526 449.305 888.668 449.862 888.526 450.38L806.417 753.514C806.275 754.032 805.86 754.446 805.342 754.589L501.418 835.389C500.9 835.531 500.33 835.389 499.954 835L278.139 612.667C277.88 612.408 277.737 612.071 277.699 611.721C277.686 611.553 277.699 611.372 277.75 611.19V611.203ZM803.71 751.881L885.352 450.445L664.78 229.355L362.554 309.715L280.911 611.151L501.483 832.241L803.71 751.881Z" fill="url(#paint10_radial_20_11517)"/>
<path style="mix-blend-mode:screen" opacity="0.75" d="M267.05 644.342L325.956 315.467C326.047 314.936 326.423 314.495 326.941 314.301L641.54 200.491C642.045 200.31 642.615 200.414 643.029 200.75L898.722 415.803C899.136 416.153 899.331 416.697 899.24 417.228L840.334 746.103C840.243 746.634 839.867 747.075 839.349 747.269L524.75 861.079C524.245 861.26 523.675 861.156 523.261 860.82L267.568 645.767C267.257 645.508 267.063 645.132 267.037 644.731C267.037 644.601 267.037 644.471 267.05 644.329V644.342ZM837.484 744.717L896.079 417.578L641.734 203.652L328.78 316.866L270.185 644.005L524.53 857.931L837.484 744.717Z" fill="url(#paint11_radial_20_11517)"/>
<path style="mix-blend-mode:screen" opacity="0.75" d="M258.772 680.448L290.706 326.453C290.758 325.909 291.081 325.442 291.574 325.209L614.425 175.424C614.917 175.19 615.487 175.242 615.94 175.553L906.858 379.762C907.298 380.073 907.544 380.605 907.492 381.149L875.558 735.143C875.506 735.688 875.183 736.154 874.69 736.387L551.839 886.173C551.347 886.406 550.777 886.354 550.323 886.043L259.407 681.834C259.031 681.575 258.798 681.16 258.772 680.72C258.772 680.629 258.772 680.538 258.772 680.448ZM872.617 733.99L904.396 381.745L614.917 178.546L293.659 327.593L261.881 679.839L551.36 883.038L872.617 733.99Z" fill="url(#paint12_radial_20_11517)"/>
<path style="mix-blend-mode:screen" opacity="0.75" d="M253.356 719.468L254.38 341.351C254.38 340.807 254.678 340.302 255.144 340.042L583.41 151.366C583.877 151.094 584.46 151.094 584.926 151.366L912.169 340.807C912.635 341.079 912.92 341.584 912.92 342.128L911.897 720.245C911.897 720.789 911.599 721.295 911.133 721.554L582.866 910.23C582.4 910.502 581.817 910.502 581.351 910.23L254.108 720.789C253.68 720.543 253.395 720.103 253.356 719.61C253.356 719.572 253.356 719.52 253.356 719.481V719.468ZM908.852 719.351L909.876 342.996L584.162 154.436L257.424 342.232L256.401 718.587L582.115 907.147L908.852 719.351Z" fill="url(#paint13_radial_20_11517)"/>
<path style="mix-blend-mode:screen" opacity="0.75" d="M251.232 761.326L217.264 360.511C217.212 359.967 217.458 359.449 217.912 359.138L548.303 128.747C548.743 128.436 549.326 128.384 549.818 128.617L914.177 299.04C914.669 299.273 915.006 299.74 915.045 300.284L949.013 701.098C949.052 701.642 948.819 702.16 948.365 702.471L617.974 932.862C617.534 933.173 616.951 933.225 616.459 932.992L252.1 762.569C251.608 762.336 251.271 761.87 251.232 761.326ZM945.917 700.489L912.091 301.424L549.313 131.739L220.36 361.133L254.186 760.198L616.964 929.883L945.917 700.489Z" fill="url(#paint14_radial_20_11517)"/>
<path style="mix-blend-mode:screen" opacity="0.75" d="M180.212 382.807L508.997 108.006C509.411 107.656 509.981 107.552 510.487 107.747L912.441 254.578C912.946 254.76 913.322 255.213 913.412 255.744L986.582 677.364C986.673 677.908 986.479 678.439 986.064 678.789L657.279 953.59C656.865 953.94 656.295 954.044 655.79 953.849L253.835 807.018C253.33 806.836 252.954 806.383 252.864 805.852L179.694 384.232C179.694 384.232 179.694 384.141 179.681 384.102C179.642 383.61 179.837 383.131 180.225 382.807H180.212ZM655.997 950.701L983.434 677.027L910.562 257.131L510.266 110.908L182.829 384.582L255.701 804.478L655.997 950.701Z" fill="url(#paint15_radial_20_11517)"/>
<path style="mix-blend-mode:screen" opacity="0.75" d="M142.475 411.386L465.43 89.6744C465.818 89.2858 466.375 89.1434 466.894 89.2859L906.482 207.617C907 207.759 907.415 208.174 907.557 208.692L1024.19 648.734C1024.33 649.252 1024.19 649.822 1023.79 650.198L700.835 971.909C700.446 972.297 699.889 972.44 699.371 972.297L259.782 853.954C259.251 853.811 258.849 853.396 258.707 852.878L142.073 412.837C142.047 412.746 142.034 412.668 142.034 412.577C141.996 412.137 142.151 411.696 142.475 411.373V411.386ZM699.319 969.149L1021.03 648.682L904.85 210.337L466.958 92.4598L145.247 412.927L261.427 851.272L699.319 969.149Z" fill="url(#paint16_radial_20_11517)"/>
<path style="mix-blend-mode:screen" opacity="0.75" d="M105.139 445.172L417.574 74.2839C417.924 73.8693 418.468 73.6749 418.999 73.7656L895.846 158.414C896.377 158.504 896.817 158.88 897.012 159.398L1061.42 614.934C1061.6 615.439 1061.5 616.009 1061.15 616.424L748.716 987.312C748.366 987.727 747.822 987.921 747.291 987.83L270.444 903.182C269.913 903.092 269.46 902.716 269.278 902.198L104.867 446.662C104.828 446.532 104.789 446.403 104.776 446.273C104.737 445.872 104.867 445.483 105.126 445.159L105.139 445.172ZM746.954 984.695L1058.26 615.154L894.447 161.264L419.336 76.9137L108.028 446.455L271.843 900.345L746.954 984.695Z" fill="url(#paint17_radial_20_11517)"/>
<path style="mix-blend-mode:screen" opacity="0.75" d="M68.6963 484.426L365.417 62.4043C365.728 61.9639 366.259 61.7177 366.79 61.7696L879.989 107.267C880.533 107.319 880.999 107.643 881.233 108.148L1097.71 575.681C1097.94 576.173 1097.89 576.743 1097.58 577.196L800.86 999.218C800.549 999.658 800.018 999.904 799.487 999.853L286.288 954.355C285.744 954.303 285.278 953.979 285.044 953.474L68.5796 485.941C68.5019 485.773 68.4631 485.605 68.4501 485.436C68.4242 485.086 68.5149 484.724 68.7222 484.439L68.6963 484.426ZM798.865 996.743L1094.59 576.147L878.849 110.208L367.399 64.8657L71.6759 485.462L287.415 951.401L798.865 996.743Z" fill="url(#paint18_radial_20_11517)"/>
<path style="mix-blend-mode:screen" opacity="0.75" d="M33.7308 529.405L309.063 54.6313C309.335 54.1649 309.84 53.8668 310.384 53.8798L858.484 54.5146C859.028 54.5146 859.533 54.8126 859.805 55.279L1132.57 530.688C1132.84 531.154 1132.84 531.737 1132.57 532.203L857.24 1006.98C856.968 1007.44 856.463 1007.74 855.919 1007.73L307.819 1007.09C307.275 1007.09 306.77 1006.8 306.498 1006.33L33.7308 530.921C33.6142 530.727 33.5494 530.506 33.5364 530.299C33.5105 529.988 33.5753 529.677 33.7308 529.405ZM855.025 1004.7L1129.48 531.439L857.59 57.5591L311.252 56.9242L36.8011 530.17L308.687 1004.06L855.025 1004.7Z" fill="url(#paint19_radial_20_11517)"/>
<path style="mix-blend-mode:screen" opacity="0.75" d="M0.837991 580.293L248.615 51.6128C248.848 51.1205 249.315 50.7838 249.859 50.7449L830.786 0.596053C831.33 0.544233 831.848 0.790378 832.159 1.2438L1165.31 479.788C1165.62 480.228 1165.67 480.811 1165.44 481.304L917.662 1009.98C917.429 1010.48 916.962 1010.8 916.418 1010.85L335.491 1061C334.947 1061.05 334.429 1060.81 334.118 1060.35L0.967588 581.821C0.812128 581.601 0.721415 581.342 0.695505 581.083C0.669595 580.824 0.721396 580.552 0.837991 580.305V580.293ZM915.278 1007.9L1162.32 480.811L830.177 3.71825L250.999 53.7115L3.97307 580.798L336.113 1057.9L915.291 1007.91L915.278 1007.9Z" fill="url(#paint20_radial_20_11517)"/>
</g>
<defs>
<radialGradient id="paint0_radial_20_11517" cx="0" cy="0" r="1" gradientUnits="userSpaceOnUse" gradientTransform="translate(586.013 532.996) rotate(-159.6) scale(599.582)">
<stop stop-color="#0060FF"/>
<stop offset="0.02" stop-color="#005BF4"/>
<stop offset="0.14" stop-color="#0046BB"/>
<stop offset="0.25" stop-color="#003389"/>
<stop offset="0.37" stop-color="#00235F"/>
<stop offset="0.49" stop-color="#00163C"/>
<stop offset="0.61" stop-color="#000C22"/>
<stop offset="0.74" stop-color="#00050F"/>
<stop offset="0.87" stop-color="#000103"/>
<stop offset="1"/>
</radialGradient>
<radialGradient id="paint1_radial_20_11517" cx="0" cy="0" r="1" gradientUnits="userSpaceOnUse" gradientTransform="translate(586.078 533.007) rotate(-159.6) scale(602.601)">
<stop stop-color="#0060FF"/>
<stop offset="0.02" stop-color="#005BF4"/>
<stop offset="0.14" stop-color="#0046BB"/>
<stop offset="0.25" stop-color="#003389"/>
<stop offset="0.37" stop-color="#00235F"/>
<stop offset="0.49" stop-color="#00163C"/>
<stop offset="0.61" stop-color="#000C22"/>
<stop offset="0.74" stop-color="#00050F"/>
<stop offset="0.87" stop-color="#000103"/>
<stop offset="1"/>
</radialGradient>
<radialGradient id="paint2_radial_20_11517" cx="0" cy="0" r="1" gradientUnits="userSpaceOnUse" gradientTransform="translate(586.166 532.956) rotate(-159.6) scale(587.392)">
<stop stop-color="#0060FF"/>
<stop offset="0.02" stop-color="#005BF4"/>
<stop offset="0.14" stop-color="#0046BB"/>
<stop offset="0.25" stop-color="#003389"/>
<stop offset="0.37" stop-color="#00235F"/>
<stop offset="0.49" stop-color="#00163C"/>
<stop offset="0.61" stop-color="#000C22"/>
<stop offset="0.74" stop-color="#00050F"/>
<stop offset="0.87" stop-color="#000103"/>
<stop offset="1"/>
</radialGradient>
<radialGradient id="paint3_radial_20_11517" cx="0" cy="0" r="1" gradientUnits="userSpaceOnUse" gradientTransform="translate(586.254 532.906) rotate(-159.6) scale(573.789)">
<stop stop-color="#0060FF"/>
<stop offset="0.02" stop-color="#005BF4"/>
<stop offset="0.14" stop-color="#0046BB"/>
<stop offset="0.25" stop-color="#003389"/>
<stop offset="0.37" stop-color="#00235F"/>
<stop offset="0.49" stop-color="#00163C"/>
<stop offset="0.61" stop-color="#000C22"/>
<stop offset="0.74" stop-color="#00050F"/>
<stop offset="0.87" stop-color="#000103"/>
<stop offset="1"/>
</radialGradient>
<radialGradient id="paint4_radial_20_11517" cx="0" cy="0" r="1" gradientUnits="userSpaceOnUse" gradientTransform="translate(586.306 532.953) rotate(-159.6) scale(582.806)">
<stop stop-color="#0060FF"/>
<stop offset="0.02" stop-color="#005BF4"/>
<stop offset="0.14" stop-color="#0046BB"/>
<stop offset="0.25" stop-color="#003389"/>
<stop offset="0.37" stop-color="#00235F"/>
<stop offset="0.49" stop-color="#00163C"/>
<stop offset="0.61" stop-color="#000C22"/>
<stop offset="0.74" stop-color="#00050F"/>
<stop offset="0.87" stop-color="#000103"/>
<stop offset="1"/>
</radialGradient>
<radialGradient id="paint5_radial_20_11517" cx="0" cy="0" r="1" gradientUnits="userSpaceOnUse" gradientTransform="translate(586.362 532.988) rotate(-159.6) scale(591.9)">
<stop stop-color="#0060FF"/>
<stop offset="0.02" stop-color="#005BF4"/>
<stop offset="0.14" stop-color="#0046BB"/>
<stop offset="0.25" stop-color="#003389"/>
<stop offset="0.37" stop-color="#00235F"/>
<stop offset="0.49" stop-color="#00163C"/>
<stop offset="0.61" stop-color="#000C22"/>
<stop offset="0.74" stop-color="#00050F"/>
<stop offset="0.87" stop-color="#000103"/>
<stop offset="1"/>
</radialGradient>
<radialGradient id="paint6_radial_20_11517" cx="0" cy="0" r="1" gradientUnits="userSpaceOnUse" gradientTransform="translate(586.43 533.027) rotate(-159.6) scale(601.163)">
<stop stop-color="#0060FF"/>
<stop offset="0.02" stop-color="#005BF4"/>
<stop offset="0.14" stop-color="#0046BB"/>
<stop offset="0.25" stop-color="#003389"/>
<stop offset="0.37" stop-color="#00235F"/>
<stop offset="0.49" stop-color="#00163C"/>
<stop offset="0.61" stop-color="#000C22"/>
<stop offset="0.74" stop-color="#00050F"/>
<stop offset="0.87" stop-color="#000103"/>
<stop offset="1"/>
</radialGradient>
<radialGradient id="paint7_radial_20_11517" cx="0" cy="0" r="1" gradientUnits="userSpaceOnUse" gradientTransform="translate(586.397 533.042) rotate(-159.6) scale(604.013)">
<stop stop-color="#0060FF"/>
<stop offset="0.02" stop-color="#005BF4"/>
<stop offset="0.14" stop-color="#0046BB"/>
<stop offset="0.25" stop-color="#003389"/>
<stop offset="0.37" stop-color="#00235F"/>
<stop offset="0.49" stop-color="#00163C"/>
<stop offset="0.61" stop-color="#000C22"/>
<stop offset="0.74" stop-color="#00050F"/>
<stop offset="0.87" stop-color="#000103"/>
<stop offset="1"/>
</radialGradient>
<radialGradient id="paint8_radial_20_11517" cx="0" cy="0" r="1" gradientUnits="userSpaceOnUse" gradientTransform="translate(586.113 532.951) rotate(-159.6) scale(587.405)">
<stop stop-color="#0060FF"/>
<stop offset="0.02" stop-color="#005BF4"/>
<stop offset="0.14" stop-color="#0046BB"/>
<stop offset="0.25" stop-color="#003389"/>
<stop offset="0.37" stop-color="#00235F"/>
<stop offset="0.49" stop-color="#00163C"/>
<stop offset="0.61" stop-color="#000C22"/>
<stop offset="0.74" stop-color="#00050F"/>
<stop offset="0.87" stop-color="#000103"/>
<stop offset="1"/>
</radialGradient>
<radialGradient id="paint9_radial_20_11517" cx="0" cy="0" r="1" gradientUnits="userSpaceOnUse" gradientTransform="translate(585.854 532.868) rotate(-159.6) scale(572.52)">
<stop stop-color="#0060FF"/>
<stop offset="0.02" stop-color="#005BF4"/>
<stop offset="0.14" stop-color="#0046BB"/>
<stop offset="0.25" stop-color="#003389"/>
<stop offset="0.37" stop-color="#00235F"/>
<stop offset="0.49" stop-color="#00163C"/>
<stop offset="0.61" stop-color="#000C22"/>
<stop offset="0.74" stop-color="#00050F"/>
<stop offset="0.87" stop-color="#000103"/>
<stop offset="1"/>
</radialGradient>
<radialGradient id="paint10_radial_20_11517" cx="0" cy="0" r="1" gradientUnits="userSpaceOnUse" gradientTransform="translate(585.905 532.915) rotate(-159.6) scale(581.627)">
<stop stop-color="#0060FF"/>
<stop offset="0.02" stop-color="#005BF4"/>
<stop offset="0.14" stop-color="#0046BB"/>
<stop offset="0.25" stop-color="#003389"/>
<stop offset="0.37" stop-color="#00235F"/>
<stop offset="0.49" stop-color="#00163C"/>
<stop offset="0.61" stop-color="#000C22"/>
<stop offset="0.74" stop-color="#00050F"/>
<stop offset="0.87" stop-color="#000103"/>
<stop offset="1"/>
</radialGradient>
<radialGradient id="paint11_radial_20_11517" cx="0" cy="0" r="1" gradientUnits="userSpaceOnUse" gradientTransform="translate(585.962 532.949) rotate(-159.6) scale(590.786)">
<stop stop-color="#0060FF"/>
<stop offset="0.02" stop-color="#005BF4"/>
<stop offset="0.14" stop-color="#0046BB"/>
<stop offset="0.25" stop-color="#003389"/>
<stop offset="0.37" stop-color="#00235F"/>
<stop offset="0.49" stop-color="#00163C"/>
<stop offset="0.61" stop-color="#000C22"/>
<stop offset="0.74" stop-color="#00050F"/>
<stop offset="0.87" stop-color="#000103"/>
<stop offset="1"/>
</radialGradient>
<radialGradient id="paint12_radial_20_11517" cx="0" cy="0" r="1" gradientUnits="userSpaceOnUse" gradientTransform="translate(586.013 532.996) rotate(-159.6) scale(600.101)">
<stop stop-color="#0060FF"/>
<stop offset="0.02" stop-color="#005BF4"/>
<stop offset="0.14" stop-color="#0046BB"/>
<stop offset="0.25" stop-color="#003389"/>
<stop offset="0.37" stop-color="#00235F"/>
<stop offset="0.49" stop-color="#00163C"/>
<stop offset="0.61" stop-color="#000C22"/>
<stop offset="0.74" stop-color="#00050F"/>
<stop offset="0.87" stop-color="#000103"/>
<stop offset="1"/>
</radialGradient>
<radialGradient id="paint13_radial_20_11517" cx="0" cy="0" r="1" gradientUnits="userSpaceOnUse" gradientTransform="translate(586.078 533.007) rotate(-159.6) scale(602.782)">
<stop stop-color="#0060FF"/>
<stop offset="0.02" stop-color="#005BF4"/>
<stop offset="0.14" stop-color="#0046BB"/>
<stop offset="0.25" stop-color="#003389"/>
<stop offset="0.37" stop-color="#00235F"/>
<stop offset="0.49" stop-color="#00163C"/>
<stop offset="0.61" stop-color="#000C22"/>
<stop offset="0.74" stop-color="#00050F"/>
<stop offset="0.87" stop-color="#000103"/>
<stop offset="1"/>
</radialGradient>
<radialGradient id="paint14_radial_20_11517" cx="0" cy="0" r="1" gradientUnits="userSpaceOnUse" gradientTransform="translate(586.166 532.957) rotate(-159.6) scale(587.107)">
<stop stop-color="#0060FF"/>
<stop offset="0.02" stop-color="#005BF4"/>
<stop offset="0.14" stop-color="#0046BB"/>
<stop offset="0.25" stop-color="#003389"/>
<stop offset="0.37" stop-color="#00235F"/>
<stop offset="0.49" stop-color="#00163C"/>
<stop offset="0.61" stop-color="#000C22"/>
<stop offset="0.74" stop-color="#00050F"/>
<stop offset="0.87" stop-color="#000103"/>
<stop offset="1"/>
</radialGradient>
<radialGradient id="paint15_radial_20_11517" cx="0" cy="0" r="1" gradientUnits="userSpaceOnUse" gradientTransform="translate(586.254 532.906) rotate(-159.6) scale(573.361)">
<stop stop-color="#0060FF"/>
<stop offset="0.02" stop-color="#005BF4"/>
<stop offset="0.14" stop-color="#0046BB"/>
<stop offset="0.25" stop-color="#003389"/>
<stop offset="0.37" stop-color="#00235F"/>
<stop offset="0.49" stop-color="#00163C"/>
<stop offset="0.61" stop-color="#000C22"/>
<stop offset="0.74" stop-color="#00050F"/>
<stop offset="0.87" stop-color="#000103"/>
<stop offset="1"/>
</radialGradient>
<radialGradient id="paint16_radial_20_11517" cx="0" cy="0" r="1" gradientUnits="userSpaceOnUse" gradientTransform="translate(586.306 532.953) rotate(-159.6) scale(582.43)">
<stop stop-color="#0060FF"/>
<stop offset="0.02" stop-color="#005BF4"/>
<stop offset="0.14" stop-color="#0046BB"/>
<stop offset="0.25" stop-color="#003389"/>
<stop offset="0.37" stop-color="#00235F"/>
<stop offset="0.49" stop-color="#00163C"/>
<stop offset="0.61" stop-color="#000C22"/>
<stop offset="0.74" stop-color="#00050F"/>
<stop offset="0.87" stop-color="#000103"/>
<stop offset="1"/>
</radialGradient>
<radialGradient id="paint17_radial_20_11517" cx="0" cy="0" r="1" gradientUnits="userSpaceOnUse" gradientTransform="translate(586.362 532.988) rotate(-159.6) scale(591.563)">
<stop stop-color="#0060FF"/>
<stop offset="0.02" stop-color="#005BF4"/>
<stop offset="0.14" stop-color="#0046BB"/>
<stop offset="0.25" stop-color="#003389"/>
<stop offset="0.37" stop-color="#00235F"/>
<stop offset="0.49" stop-color="#00163C"/>
<stop offset="0.61" stop-color="#000C22"/>
<stop offset="0.74" stop-color="#00050F"/>
<stop offset="0.87" stop-color="#000103"/>
<stop offset="1"/>
</radialGradient>
<radialGradient id="paint18_radial_20_11517" cx="0" cy="0" r="1" gradientUnits="userSpaceOnUse" gradientTransform="translate(586.43 533.027) rotate(-159.6) scale(600.852)">
<stop stop-color="#0060FF"/>
<stop offset="0.02" stop-color="#005BF4"/>
<stop offset="0.14" stop-color="#0046BB"/>
<stop offset="0.25" stop-color="#003389"/>
<stop offset="0.37" stop-color="#00235F"/>
<stop offset="0.49" stop-color="#00163C"/>
<stop offset="0.61" stop-color="#000C22"/>
<stop offset="0.74" stop-color="#00050F"/>
<stop offset="0.87" stop-color="#000103"/>
<stop offset="1"/>
</radialGradient>
<radialGradient id="paint19_radial_20_11517" cx="0" cy="0" r="1" gradientUnits="userSpaceOnUse" gradientTransform="translate(586.763 532.059) rotate(-159.6) scale(604.168)">
<stop stop-color="#0060FF"/>
<stop offset="0.02" stop-color="#005BF4"/>
<stop offset="0.14" stop-color="#0046BB"/>
<stop offset="0.25" stop-color="#003389"/>
<stop offset="0.37" stop-color="#00235F"/>
<stop offset="0.49" stop-color="#00163C"/>
<stop offset="0.61" stop-color="#000C22"/>
<stop offset="0.74" stop-color="#00050F"/>
<stop offset="0.87" stop-color="#000103"/>
<stop offset="1"/>
</radialGradient>
<radialGradient id="paint20_radial_20_11517" cx="0" cy="0" r="1" gradientUnits="userSpaceOnUse" gradientTransform="translate(586.471 531.95) rotate(-159.6) scale(587.806)">
<stop stop-color="#0060FF"/>
<stop offset="0.02" stop-color="#005BF4"/>
<stop offset="0.14" stop-color="#0046BB"/>
<stop offset="0.25" stop-color="#003389"/>
<stop offset="0.37" stop-color="#00235F"/>
<stop offset="0.49" stop-color="#00163C"/>
<stop offset="0.61" stop-color="#000C22"/>
<stop offset="0.74" stop-color="#00050F"/>
<stop offset="0.87" stop-color="#000103"/>
<stop offset="1"/>
</radialGradient>
</defs>
</svg>
