<svg width="25" height="24" viewBox="0 0 25 24" fill="none" xmlns="http://www.w3.org/2000/svg">
<path d="M11.0077 10.3901C10.4494 10.3901 10.0085 10.8901 10.0085 11.5001C10.0085 12.1101 10.4592 12.6101 11.0077 12.6101C11.5661 12.6101 12.0069 12.1101 12.0069 11.5001C12.0167 10.8901 11.5661 10.3901 11.0077 10.3901ZM14.5832 10.3901C14.0249 10.3901 13.5841 10.8901 13.5841 11.5001C13.5841 12.1101 14.0347 12.6101 14.5832 12.6101C15.1416 12.6101 15.5824 12.1101 15.5824 11.5001C15.5824 10.8901 15.1416 10.3901 14.5832 10.3901Z" fill="white" fill-opacity="0.2"/>
<path d="M19.3439 2H6.21739C5.11045 2 4.20923 2.92 4.20923 4.06V17.58C4.20923 18.72 5.11045 19.64 6.21739 19.64H17.326L16.8068 17.79L18.0607 18.98L19.246 20.1L21.3521 22V4.06C21.3521 2.92 20.4509 2 19.3439 2ZM15.5627 15.06C15.5627 15.06 15.21 14.63 14.9162 14.25C16.1994 13.88 16.6892 13.06 16.6892 13.06C16.2876 13.33 15.9056 13.52 15.5627 13.65C15.0729 13.86 14.6027 14 14.1423 14.08C13.2019 14.26 12.3398 14.21 11.6051 14.07C11.0468 13.96 10.5668 13.8 10.1651 13.64C9.93984 13.55 9.69494 13.44 9.45004 13.3C9.42066 13.28 9.39127 13.27 9.36188 13.25C9.34229 13.24 9.33249 13.23 9.3227 13.22C9.14637 13.12 9.04841 13.05 9.04841 13.05C9.04841 13.05 9.51862 13.85 10.7627 14.23C10.4688 14.61 10.1064 15.06 10.1064 15.06C7.94147 14.99 7.11862 13.54 7.11862 13.54C7.11862 10.32 8.52923 7.71 8.52923 7.71C9.93984 6.63 11.2819 6.66 11.2819 6.66L11.3798 6.78C9.61658 7.3 8.80351 8.09 8.80351 8.09C8.80351 8.09 9.01902 7.97 9.38147 7.8C10.4296 7.33 11.2623 7.2 11.6051 7.17C11.6639 7.16 11.7129 7.15 11.7717 7.15C12.3692 7.07 13.0451 7.05 13.7505 7.13C14.6811 7.24 15.6802 7.52 16.699 8.09C16.699 8.09 15.9251 7.34 14.2598 6.82L14.397 6.66C14.397 6.66 15.739 6.63 17.1496 7.71C17.1496 7.71 18.5602 10.32 18.5602 13.54C18.5602 13.54 17.7276 14.99 15.5627 15.06Z" fill="white" fill-opacity="0.2"/>
</svg>
