<svg width="25" height="14" viewBox="0 0 25 14" fill="none" xmlns="http://www.w3.org/2000/svg">
<g clip-path="url(#clip0_141_168)">
<path d="M14.3638 7.07373C14.3638 10.8321 11.3528 13.8791 7.63846 13.8791C3.9241 13.8791 0.91333 10.8331 0.91333 7.07373C0.91333 3.31436 3.92433 0.268555 7.63846 0.268555C11.3526 0.268555 14.3638 3.31528 14.3638 7.07373Z" fill="white" fill-opacity="0.2"/>
<path d="M21.7415 7.07349C21.7415 10.6116 20.2359 13.4796 18.3788 13.4796C16.5218 13.4796 15.0161 10.6107 15.0161 7.07349C15.0161 3.53633 16.5218 0.66748 18.3788 0.66748C20.2359 0.66748 21.7415 3.53633 21.7415 7.07349Z" fill="white" fill-opacity="0.2"/>
<path d="M24.759 7.07306C24.759 10.243 24.2294 12.8126 23.5763 12.8126C22.9232 12.8126 22.3936 10.2421 22.3936 7.07306C22.3936 3.90399 22.9232 1.3335 23.5765 1.3335C24.2299 1.3335 24.759 3.9033 24.759 7.07306Z" fill="white" fill-opacity="0.2"/>
</g>
<defs>
<clipPath id="clip0_141_168">
<rect width="24" height="14" fill="white" transform="translate(0.780762)"/>
</clipPath>
</defs>
</svg>
