<svg width="25" height="24" viewBox="0 0 25 24" fill="none" xmlns="http://www.w3.org/2000/svg">
<path fill-rule="evenodd" clip-rule="evenodd" d="M24.7776 12.0028C24.7776 18.627 19.4077 23.9969 12.7836 23.9969C6.15946 23.9969 0.789551 18.627 0.789551 12.0028C0.789551 5.3787 6.15946 0.00878906 12.7836 0.00878906C19.4077 0.00878906 24.7776 5.3787 24.7776 12.0028ZM18.9669 10.3153C19.9359 10.2825 20.7468 11.0368 20.7826 12.0027C20.7945 12.6765 20.4159 13.2966 19.8137 13.5978C19.8256 13.7737 19.8256 13.9496 19.8137 14.1255C19.8137 16.8146 16.6832 18.997 12.8224 18.997C8.96148 18.997 5.83105 16.8117 5.83105 14.1255C5.81912 13.9496 5.81912 13.7737 5.83105 13.5978C5.65515 13.5202 5.49714 13.4099 5.35999 13.2817C4.65341 12.6199 4.62062 11.5108 5.28248 10.8072C5.94434 10.1006 7.05341 10.0678 7.75701 10.7297C9.14037 9.79355 10.7652 9.28075 12.4348 9.25392L13.3202 5.09194V5.08598C13.365 4.88325 13.5647 4.75803 13.7645 4.80275L16.7041 5.39008C16.8919 5.06213 17.2318 4.84151 17.6104 4.80275C18.2693 4.7312 18.8596 5.20822 18.9312 5.8671C19.0027 6.52598 18.5257 7.11629 17.8668 7.18784C17.2079 7.25939 16.6176 6.78237 16.5461 6.12349L13.9791 5.58387L13.201 9.32547C14.8497 9.36125 16.4537 9.87106 17.8191 10.8012C18.1292 10.5061 18.5376 10.3302 18.9669 10.3153ZM9.99006 12.0027C9.32819 12.0027 8.78857 12.5424 8.78857 13.2042C8.78857 13.8661 9.32521 14.3997 9.99006 14.4057C10.6519 14.4057 11.1915 13.8661 11.1915 13.2042C11.1915 12.5424 10.6519 12.0027 9.99006 12.0027ZM12.7925 17.4258C13.8599 17.4705 14.9033 17.1426 15.756 16.5016V16.5493C15.8872 16.4211 15.8902 16.2065 15.762 16.0753C15.6338 15.9441 15.4191 15.9411 15.2879 16.0693C14.5575 16.591 13.675 16.8474 12.7806 16.7997C11.8862 16.8415 11.0067 16.5732 10.2852 16.0455C10.163 15.9471 9.99304 15.9471 9.87378 16.0455C9.73664 16.1588 9.71577 16.3645 9.82906 16.5016C10.6817 17.1426 11.7252 17.4705 12.7925 17.4258ZM14.3399 13.246C14.3399 13.9078 14.8795 14.4474 15.5414 14.4474L15.5324 14.4922H15.592C16.2539 14.4653 16.7697 13.9078 16.7429 13.246C16.7429 12.5841 16.2032 12.0445 15.5414 12.0445C14.8795 12.0445 14.3399 12.5841 14.3399 13.246Z" fill="white" fill-opacity="0.2"/>
</svg>
