<svg width="25" height="24" viewBox="0 0 25 24" fill="none" xmlns="http://www.w3.org/2000/svg">
<path d="M23.2408 6C22.4708 6.35 21.6408 6.58 20.7808 6.69C21.6608 6.16 22.3408 5.32 22.6608 4.31C21.8308 4.81 20.9108 5.16 19.9408 5.36C19.1508 4.5 18.0408 4 16.7808 4C14.4308 4 12.5108 5.92 12.5108 8.29C12.5108 8.63 12.5508 8.96 12.6208 9.27C9.0608 9.09 5.8908 7.38 3.7808 4.79C3.4108 5.42 3.2008 6.16 3.2008 6.94C3.2008 8.43 3.9508 9.75 5.1108 10.5C4.4008 10.5 3.7408 10.3 3.1608 10C3.1608 10 3.1608 10 3.1608 10.03C3.1608 12.11 4.6408 13.85 6.6008 14.24C6.2408 14.34 5.8608 14.39 5.4708 14.39C5.2008 14.39 4.9308 14.36 4.6708 14.31C5.2108 16 6.7808 17.26 8.6708 17.29C7.2108 18.45 5.3608 19.13 3.3408 19.13C3.0008 19.13 2.6608 19.11 2.3208 19.07C4.2208 20.29 6.4808 21 8.9008 21C16.7808 21 21.1108 14.46 21.1108 8.79C21.1108 8.6 21.1108 8.42 21.1008 8.23C21.9408 7.63 22.6608 6.87 23.2408 6Z" fill="white" fill-opacity="0.2"/>
</svg>
