<svg width="125" height="48" viewBox="0 0 125 48" fill="none" xmlns="http://www.w3.org/2000/svg">
<g clip-path="url(#clip0_351_327)">
<path fill-rule="evenodd" clip-rule="evenodd" d="M24.016 48C37.1413 48 47.7814 37.2549 47.7814 24C47.7814 10.7451 37.1413 0 24.016 0C10.8907 0 0.25061 10.7451 0.25061 24C0.25061 37.2549 10.8907 48 24.016 48ZM24.113 45.7469C36.0061 45.7469 45.6473 36.0105 45.6473 24C45.6473 11.9895 36.0061 2.25306 24.113 2.25306C12.2199 2.25306 2.57865 11.9895 2.57865 24C2.57865 36.0105 12.2199 45.7469 24.113 45.7469ZM24.016 44.0816C34.9983 44.0816 43.9013 35.0907 43.9013 24C43.9013 12.9093 34.9983 3.91837 24.016 3.91837C13.0337 3.91837 4.13067 12.9093 4.13067 24C4.13067 35.0907 13.0337 44.0816 24.016 44.0816ZM24.0645 41.6327C33.7343 41.6327 41.5733 33.7163 41.5733 23.951C41.5733 14.1858 33.7343 6.26939 24.0645 6.26939C14.3947 6.26939 6.55571 14.1858 6.55571 23.951C6.55571 33.7163 14.3947 41.6327 24.0645 41.6327ZM23.0763 9.66504L35.752 31.872L37.1112 29.4906L25.7948 9.66504H23.0763ZM10.9208 29.4505L21.7696 10.4439L21.792 10.4831L21.8134 10.4457L34.67 32.9696H31.9515L28.7035 27.2794C27.2276 26.8082 25.6563 26.5541 24.0261 26.5541C23.1858 26.5541 22.3657 26.6134 21.5684 26.7316L23.1341 23.993C23.4296 23.9784 23.727 23.9711 24.0261 23.9711C25.022 23.9711 25.999 24.0525 26.9511 24.2091L21.7911 15.1691L12.2801 31.8318L10.9208 29.4505ZM18.2963 29.1617L23.1712 20.621L21.812 18.2397L13.4043 32.9695H16.1228L16.1486 32.9243C18.4802 31.5066 21.1557 30.79 24.0772 30.79C25.9427 30.79 27.7312 31.1228 29.3877 31.7329L27.5665 28.5473C26.417 28.3205 25.2484 28.2066 24.0772 28.2072C22.0555 28.2072 20.1113 28.5427 18.2963 29.1617Z" fill="url(#paint0_linear_351_327)"/>
<path fill-rule="evenodd" clip-rule="evenodd" d="M59.1552 26.3985H63.6053L61.3691 19.876L59.1552 26.3985ZM65.4167 31.7555L64.4105 28.8192H58.3279L57.3215 31.7555H53.9896L59.5131 16.0656H63.2477L68.7486 31.7555H65.4167ZM73.1873 30.1861C72.0542 29.0206 71.4878 27.4739 71.4878 25.5464C71.4878 23.6188 72.0542 22.0721 73.1873 20.9067C74.3202 19.7411 75.7886 19.1585 77.5927 19.1585C79.0983 19.1585 80.358 19.5246 81.3719 20.2566C82.3856 20.989 83.0637 22.0275 83.4069 23.3722H80.0077C79.6052 22.3412 78.8002 21.8256 77.5927 21.8256C76.6831 21.8256 75.9715 22.1584 75.4571 22.8231C74.9428 23.4882 74.6856 24.3959 74.6856 25.5464C74.6856 26.6971 74.9428 27.605 75.4571 28.2696C75.9715 28.9348 76.6831 29.2671 77.5927 29.2671C78.7853 29.2671 79.5902 28.7442 80.0077 27.6981H83.4069C83.0492 28.9982 82.3593 30.0292 81.3385 30.7913C80.3171 31.5532 79.0686 31.9343 77.5927 31.9343C75.7886 31.9343 74.3202 31.3517 73.1873 30.1861ZM96.6059 25.5467C96.6059 26.6824 96.278 27.5751 95.6221 28.2251C94.9659 28.8751 94.2021 29.2001 93.3299 29.2001C92.4579 29.2001 91.6938 28.8716 91.0378 28.2139C90.3817 27.5565 90.0538 26.66 90.0538 25.5242C90.0538 24.3888 90.3781 23.4996 91.0268 22.8569C91.6752 22.2146 92.4389 21.8931 93.3188 21.8931C94.1981 21.8931 94.9659 22.2181 95.6221 22.8681C96.278 23.5182 96.6059 24.4112 96.6059 25.5467ZM86.8558 25.5241C86.8558 27.3921 87.411 28.9275 88.5218 30.1301C89.6323 31.3331 91.0225 31.9345 92.6923 31.9345C94.3619 31.9345 95.6666 31.1801 96.6057 29.6707V31.7552H99.7366V19.3377H96.6057V21.2655C95.7112 19.861 94.4144 19.1585 92.7149 19.1585C91.0152 19.1585 89.6138 19.7524 88.5106 20.9404C87.4072 22.1283 86.8558 23.6564 86.8558 25.5241ZM104.424 31.9246H107.576V16.2582H104.424V31.9246ZM120.962 25.4975C120.962 26.6333 120.635 27.526 119.979 28.1759C119.323 28.8261 118.559 29.1509 117.687 29.1509C116.815 29.1509 116.05 28.8224 115.395 28.1648C114.739 27.5074 114.411 26.6108 114.411 25.4751C114.411 24.3396 114.735 23.4506 115.384 22.8078C116.032 22.1655 116.796 21.844 117.676 21.844C118.555 21.844 119.323 22.1691 119.979 22.819C120.635 23.4691 120.962 24.3621 120.962 25.4975ZM111.213 25.4751C111.213 27.3431 111.769 28.8784 112.879 30.081C113.989 31.2841 115.38 31.8854 117.049 31.8854C118.719 31.8854 120.023 31.1311 120.962 29.6217V31.7061H124.094V19.2887H120.962V21.2164C120.068 19.812 118.771 19.1094 117.072 19.1094C115.372 19.1094 113.971 19.7033 112.868 20.8914C111.764 22.0792 111.213 23.6074 111.213 25.4751Z" fill="url(#paint1_linear_351_327)"/>
</g>
<defs>
<linearGradient id="paint0_linear_351_327" x1="45.1138" y1="48" x2="9.63075" y2="4.60218" gradientUnits="userSpaceOnUse">
<stop stop-color="#5A81FF"/>
<stop offset="0.524" stop-color="#E40C5B"/>
<stop offset="1" stop-color="#FF4C3B"/>
</linearGradient>
<linearGradient id="paint1_linear_351_327" x1="124.938" y1="34.4998" x2="119.298" y2="5.98222" gradientUnits="userSpaceOnUse">
<stop offset="0.024" stop-color="#645AFF"/>
<stop offset="0.484" stop-color="#E40C5B"/>
<stop offset="1" stop-color="#FF4C3B"/>
</linearGradient>
<clipPath id="clip0_351_327">
<rect width="123.871" height="48" fill="white" transform="translate(0.25061)"/>
</clipPath>
</defs>
</svg>
