<svg width="128" height="32" viewBox="0 0 159 32" fill="none" xmlns="http://www.w3.org/2000/svg">
<g clip-path="url(#clip0_23_6125)">
<path fill-rule="evenodd" clip-rule="evenodd" d="M128.237 12.1541C128.625 12.301 129.025 12.5953 129.434 13.0365L130.978 11.9019C130.421 11.2609 129.817 10.8094 129.166 10.5467C128.525 10.2737 127.827 10.1372 127.071 10.1372C126.209 10.1372 125.416 10.2792 124.692 10.5626C123.977 10.8356 123.358 11.2293 122.833 11.7441C122.318 12.259 121.913 12.8837 121.62 13.6191C121.325 14.3442 121.178 15.1529 121.178 16.0456C121.178 16.9171 121.325 17.7104 121.62 18.4246C121.913 19.1388 122.318 19.753 122.833 20.2679C123.358 20.7719 123.977 21.1661 124.692 21.4495C125.416 21.7225 126.209 21.859 127.071 21.859C127.89 21.859 128.662 21.7012 129.387 21.3862C130.112 21.0711 130.726 20.5671 131.23 19.8737L129.592 18.708C129.224 19.1808 128.825 19.5275 128.394 19.7481C127.974 19.9583 127.538 20.0631 127.087 20.0631C126.509 20.0631 125.984 19.9583 125.511 19.7481C125.049 19.5379 124.65 19.2491 124.314 18.8816C123.977 18.5141 123.715 18.0779 123.526 17.5739C123.347 17.0694 123.258 16.5179 123.258 15.9195C123.258 15.3626 123.347 14.8427 123.526 14.3595C123.715 13.8763 123.977 13.4564 124.314 13.0993C124.65 12.7318 125.049 12.4484 125.511 12.2486C125.984 12.0384 126.509 11.9336 127.087 11.9336C127.475 11.9336 127.858 12.0073 128.237 12.1541ZM42.9806 10.4211H44.6979L49.5033 21.576H47.2346L46.195 19.0235H41.3584L40.3499 21.576H38.1282L42.9806 10.4211ZM45.5016 17.3221L43.7843 12.7847L42.0355 17.3221H45.5016ZM51.6326 10.4211H53.9171L56.9579 18.8499L60.0931 10.4211H62.2361L57.7299 21.576H56.0127L51.6326 10.4211ZM71.0481 10.4211H69.3304L64.478 21.576H66.6992L67.7077 19.0235H72.5448L73.5844 21.576H75.8531L71.0481 10.4211ZM70.1341 12.7847L71.8513 17.3221H68.3853L70.1341 12.7847ZM80.2441 10.4211H82.2294V19.7797H86.9715V21.576H80.2441V10.4211ZM96.8905 10.4211H95.1727L90.3203 21.576H92.5415L93.55 19.0235H98.3871L99.4267 21.576H101.695L96.8905 10.4211ZM95.9764 12.7847L97.6937 17.3221H94.2276L95.9764 12.7847ZM106.087 10.4211H108.718L114.122 18.7084H114.153V10.4211H116.138V21.576H113.618L108.103 13.0211H108.072V21.576H106.087V10.4211ZM135.714 10.4211H137.699V14.864H142.914V10.4211H144.899V21.576H142.914V16.6603H137.699V21.576H135.714V10.4211ZM157.932 10.4211H150.543V21.576H158.216V19.7797H152.528V16.7548H157.648V14.9589H152.528V12.2174H157.932V10.4211Z" fill="#E84142"/>
<path fill-rule="evenodd" clip-rule="evenodd" d="M16.2516 32C25.0879 32 32.2516 24.8364 32.2516 16C32.2516 7.16365 25.0879 0 16.2516 0C7.41524 0 0.251587 7.16365 0.251587 16C0.251587 24.8364 7.41524 32 16.2516 32ZM11.7177 22.3669H8.61268C7.96032 22.3669 7.63784 22.3669 7.44149 22.2412C7.22931 22.1037 7.09973 21.8757 7.0839 21.624C7.07203 21.392 7.23327 21.1091 7.55574 20.5433L15.2229 7.02913C15.5493 6.4554 15.714 6.16854 15.9227 6.06221C16.1468 5.94845 16.4139 5.94845 16.6379 6.06221C16.8461 6.16854 17.0113 6.4554 17.3377 7.02913L18.914 9.78053L18.9219 9.79438L18.9273 9.80378C19.2759 10.4133 19.4535 10.7239 19.5308 11.0497C19.6173 11.4072 19.6173 11.7846 19.5308 12.1422C19.4521 12.4726 19.2751 12.7867 18.9175 13.4118L14.89 20.5309L14.8796 20.5492C14.525 21.17 14.345 21.4845 14.0962 21.7219C13.8252 21.9811 13.4987 22.17 13.1411 22.2764C12.8142 22.3669 12.4487 22.3669 11.7177 22.3669ZM19.5594 22.3675H24.0087C24.665 22.3675 24.9954 22.3675 25.1918 22.2379C25.404 22.1004 25.5375 21.8685 25.5494 21.6167C25.5607 21.3927 25.403 21.1201 25.0944 20.5875C25.0878 20.5759 25.081 20.5644 25.0742 20.5527C25.0702 20.5459 25.0662 20.539 25.0622 20.5321L22.8336 16.7193L22.8084 16.6762C22.4953 16.1465 22.337 15.879 22.1342 15.7756C21.9102 15.6618 21.6471 15.6618 21.423 15.7756C21.2187 15.8819 21.0535 16.1609 20.7271 16.7227L18.5064 20.5355L18.499 20.5489L18.4964 20.5534L18.4964 20.5534C18.1732 21.1118 18.0114 21.3913 18.0232 21.6207C18.039 21.8724 18.1686 22.1039 18.3808 22.2419C18.5727 22.3675 18.9026 22.3675 19.5594 22.3675Z" fill="#E84142"/>
<path fill-rule="evenodd" clip-rule="evenodd" d="M8.61268 22.3669H11.7177C12.4487 22.3669 12.8142 22.3669 13.1411 22.2764C13.4987 22.17 13.8252 21.9811 14.0962 21.7219C14.345 21.4845 14.525 21.17 14.8796 20.5493L14.89 20.531L18.9175 13.4118C19.2751 12.7867 19.4521 12.4726 19.5308 12.1422C19.6173 11.7846 19.6173 11.4073 19.5308 11.0497C19.4535 10.7239 19.2759 10.4133 18.9273 9.80379L18.9219 9.79439L18.914 9.78054L17.3377 7.02914C17.0113 6.45541 16.8461 6.16855 16.6379 6.06222C16.4139 5.94846 16.1468 5.94846 15.9227 6.06222C15.714 6.16855 15.5493 6.45541 15.2229 7.02914L7.55574 20.5433C7.23327 21.1091 7.07203 21.392 7.0839 21.624C7.09973 21.8757 7.22931 22.1038 7.44149 22.2413C7.63785 22.3669 7.96032 22.3669 8.61268 22.3669ZM24.0087 22.3675H19.5594H19.5594C18.9026 22.3675 18.5727 22.3675 18.3808 22.2419C18.1686 22.1039 18.039 21.8724 18.0232 21.6207C18.0114 21.3913 18.1732 21.1118 18.4964 20.5534L18.499 20.5489L18.5064 20.5355L20.7271 16.7227C21.0535 16.1609 21.2187 15.8819 21.423 15.7756C21.6471 15.6618 21.9102 15.6618 22.1342 15.7756C22.337 15.879 22.4953 16.1465 22.8084 16.6762L22.8336 16.7193L25.0622 20.5321C25.0731 20.5509 25.084 20.5692 25.0944 20.5875C25.403 21.1202 25.5608 21.3927 25.5494 21.6167C25.5375 21.8685 25.404 22.1004 25.1918 22.2379C24.9954 22.3675 24.665 22.3675 24.0087 22.3675Z" fill="white"/>
</g>
<defs>
<clipPath id="clip0_23_6125">
<rect width="157.964" height="32" fill="white" transform="translate(0.251587)"/>
</clipPath>
</defs>
</svg>
