<svg width="123" height="32" viewBox="0 0 123 32" fill="none" xmlns="http://www.w3.org/2000/svg">
<path fill-rule="evenodd" clip-rule="evenodd" d="M24.3134 15.925C28.7384 15.925 32.3134 12.35 32.3134 7.925C32.3134 3.6 28.7384 0 24.3134 0C19.8884 0 16.3884 3.575 16.3134 7.925C16.3134 3.6 12.7384 0 8.31343 0C3.98843 0 0.388428 3.575 0.388428 8C0.388428 12.425 3.96343 15.925 8.31343 16C3.88843 16 0.388428 19.575 0.388428 24C0.388428 28.425 3.96343 32 8.38843 32C12.8134 32 16.3884 28.425 16.3884 24C16.3884 19.575 12.8134 16.075 8.46343 16C12.7884 16 16.3884 12.425 16.3884 8.075C16.3884 12.425 19.8884 15.925 24.3134 15.925Z" fill="#5FB885"/>
<path d="M24.3135 31.95C28.7385 31.95 32.3135 28.375 32.3135 23.95C32.3135 19.525 28.7385 15.95 24.3135 15.95C19.8885 15.95 16.3135 19.525 16.3135 23.95C16.3135 28.375 19.8885 31.95 24.3135 31.95Z" fill="#5FB885"/>
<path d="M63.7635 3.60001H60.4385V24.125H63.7635V3.60001Z" fill="#5FB885"/>
<path fill-rule="evenodd" clip-rule="evenodd" d="M48.4134 14.1C49.1634 13.35 50.0884 12.925 51.0884 12.925C52.0884 12.925 52.7634 13.175 53.3384 13.675C53.9134 14.175 54.2634 14.75 54.4134 15.5L57.3384 14.425C57.0134 13.175 56.3384 12.1 55.1634 11.25C54.0884 10.325 52.6634 9.92499 50.9884 9.92499C48.9884 9.92499 47.3134 10.6 45.8884 12C44.5634 13.425 43.8884 15.175 43.8884 17.25C43.8884 19.325 44.5634 21.075 45.8884 22.5C47.3134 23.925 48.9634 24.575 50.9884 24.575C52.6634 24.575 54.0634 24.15 55.1634 23.25C56.2384 22.325 56.9884 21.325 57.4134 20.075L54.5884 19C54.4134 19.675 54.0134 20.25 53.4134 20.75C52.8384 21.25 52.0884 21.5 51.0884 21.5C50.0134 21.5 49.0884 21.075 48.3384 20.325C47.5884 19.575 47.2634 18.5 47.2634 17.15C47.3384 15.925 47.6634 14.85 48.4134 14.1Z" fill="#5FB885"/>
<path fill-rule="evenodd" clip-rule="evenodd" d="M71.3634 20.45C72.1134 21.2 73.0384 21.625 74.1134 21.625C75.1884 21.625 76.1134 21.2 76.8634 20.45C77.6134 19.7 78.0384 18.625 78.0384 17.2C78.0384 15.875 77.6134 14.775 76.8634 14.025C76.1134 13.275 75.1884 12.85 74.1134 12.85C73.0384 12.85 72.1134 13.275 71.3634 14.025C70.6134 14.775 70.2884 15.85 70.2884 17.2C70.1884 18.6 70.6134 19.7 71.3634 20.45ZM74.1134 9.92499C76.1884 9.92499 77.9384 10.6 79.2884 12C80.6384 13.4 81.3634 15.175 81.3634 17.25C81.3634 19.425 80.6884 21.175 79.3634 22.5C78.0384 23.925 76.2884 24.575 74.1884 24.575C72.0884 24.575 70.4384 23.9 69.0134 22.5C67.6884 21.075 67.0134 19.325 67.0134 17.25C67.0134 15.175 67.6884 13.425 69.0134 12C70.2634 10.6 72.0134 9.92499 74.1134 9.92499Z" fill="#5FB885"/>
<path fill-rule="evenodd" clip-rule="evenodd" d="M91.1134 24.1L96.5384 10.25H93.0384L89.4634 20.1L85.7884 10.25H82.2134L87.8134 24.1C87.7884 24.1 91.1134 24.1 91.1134 24.1Z" fill="#5FB885"/>
<path fill-rule="evenodd" clip-rule="evenodd" d="M100.788 15.675H107.538C107.538 14.85 107.213 14.1 106.613 13.5C106.013 12.9 105.188 12.575 104.113 12.575C103.113 12.575 102.363 12.9 101.688 13.5C101.213 14.175 100.888 14.925 100.788 15.675ZM107.963 19.35L110.713 20.275C110.288 21.525 109.538 22.6 108.463 23.45C107.388 24.275 106.038 24.7 104.463 24.7C102.463 24.7 100.788 24.025 99.4634 22.7C98.1384 21.375 97.4634 19.525 97.4634 17.275C97.4634 15.2 98.1384 13.45 99.4634 12.025C100.788 10.7 102.388 10.025 104.213 10.025C106.288 10.025 107.963 10.7 109.138 11.95C110.313 13.2 110.963 14.95 110.963 17.2C110.963 17.775 110.963 18.125 110.888 18.275H100.788C100.788 19.275 101.213 20.2 101.963 20.85C102.713 21.525 103.538 21.85 104.638 21.85C106.313 21.7 107.463 20.95 107.963 19.35Z" fill="#5FB885"/>
<path fill-rule="evenodd" clip-rule="evenodd" d="M122.138 13.6V10.275C121.888 10.2 121.563 10.2 121.213 10.2C120.288 10.2 119.463 10.45 118.788 10.875C118.038 11.3 117.538 11.875 117.213 12.625V10.375H114.038V24.225H117.288V17.625C117.288 14.95 118.538 13.55 120.963 13.55C121.388 13.525 121.813 13.525 122.138 13.6Z" fill="#5FB885"/>
</svg>
