<svg width="168" height="48" viewBox="0 0 168 48" fill="none" xmlns="http://www.w3.org/2000/svg">
<path d="M1.8747 25.1886C2.27341 23.2947 4.11746 21.4507 5.9615 21.8494C5.91166 22.3976 5.7123 22.7963 5.61262 22.9957C5.26375 23.6436 5.7123 23.8429 6.21069 23.6436C6.65924 23.4941 7.70586 23.1452 7.70586 22.2979C7.65602 21.7995 7.20747 21.2015 6.55956 20.8526C5.91166 20.5037 5.26375 20.4041 4.71552 20.4041C3.61907 20.4041 2.72197 20.8526 2.02422 21.4008C0.877925 22.3478 0.279858 23.6934 0.230019 25.0889C0.080502 28.3284 2.92132 30.2722 5.81198 30.2722C11.8923 29.9233 15.1817 25.986 15.9791 24.4908C16.328 23.8429 15.9791 22.9957 15.6801 23.195C12.6897 25.8365 9.10135 28.478 4.96472 28.777C2.72197 28.777 1.42615 27.3317 1.8747 25.1886Z" fill="#FAFBFC"/>
<path d="M29.4897 23.6934C30.6859 23.2947 31.0348 22.6468 29.5894 22.6966C29.1409 22.6966 27.1972 22.896 24.8547 22.896C23.7084 22.896 22.4126 22.8462 21.1666 22.6966C20.4191 21.7995 19.3226 21.1516 17.977 20.9523C16.9802 20.9024 16.6313 21.4507 16.432 22.1484C16.3323 22.1484 16.2824 22.1983 16.1828 22.1983C15.0365 22.597 13.7406 24.9892 14.0895 27.0825C14.3387 28.478 15.5847 30.023 17.4287 30.1226C19.7213 30.2722 21.7647 29.0262 22.2133 26.5342C22.3628 25.7867 22.3129 25.0391 22.1136 24.3912C25.1538 24.5407 28.3933 24.0921 29.4897 23.6934ZM17.1795 23.2947L17.2792 23.195C17.977 23.6436 18.9239 23.9426 20.0702 24.142C20.8676 25.9362 19.7712 28.777 17.5782 28.8767C16.6313 28.9265 16.0831 28.3783 15.8339 26.933C15.5847 25.5375 16.5316 23.7931 17.1795 23.2947Z" fill="#FAFBFC"/>
<path d="M30.2868 27.7304C30.4363 28.3284 31.7321 29.3252 32.1308 28.9764C34.0745 27.2818 35.47 24.6404 38.0118 22.9957C38.4604 24.9394 38.7594 26.0857 39.2578 27.1821C39.5568 27.7304 40.5038 28.2288 40.9025 28.0294C42.2481 27.1323 43.4941 26.1355 45.7369 24.2915C45.8864 24.74 46.1356 25.2883 46.4844 25.7867C46.933 26.3847 47.4314 26.9828 48.179 27.4812C49.2754 28.1789 50.4716 28.478 51.5182 28.478C54.359 28.478 57.5985 26.0359 58.3461 24.6902C58.9442 23.5937 58.2963 23.195 58.1467 23.4442C57.449 24.6404 52.0166 27.0825 50.4217 27.0825C49.724 27.0825 49.1259 26.8333 48.5777 26.4844C47.5809 25.6371 47.3317 23.8429 46.8333 22.8462C46.4844 22.2979 45.5375 21.7995 45.1886 22.0487L40.3542 25.986C39.9057 24.2417 39.8559 23.195 39.3076 21.8992C38.9089 21.351 38.0617 20.8526 37.6629 21.052C35.5199 22.0986 33.8253 24.0921 32.081 25.986C32.0311 24.3413 32.2305 23.4442 32.1807 22.1484C32.3302 21.5005 30.6855 20.4041 30.536 21.2513C30.3366 22.4973 30.1871 23.9426 30.1871 25.5375C30.1871 26.2352 30.2369 26.9828 30.2868 27.7304Z" fill="#FAFBFC"/>
<path d="M56.5667 46.9682C56.6664 47.9151 58.3111 48.4135 58.3609 47.5663C58.012 45.0743 58.012 42.2335 57.9123 39.2432C58.0619 34.0599 58.1615 30.7207 58.7098 28.4281L59.1085 28.6773C60.0056 29.2255 62.049 29.7239 63.6937 29.2754H63.9429C67.7306 29.4249 71.5682 27.4313 74.11 24.8397C74.6084 24.2915 75.2065 22.5471 74.6084 22.9957C72.864 24.5407 68.7274 26.9828 65.5875 27.6307C66.2853 26.7834 66.983 25.5873 67.0827 24.441C67.4316 21.65 64.2917 20.6034 62.2982 21.1516C60.8528 21.5504 59.3078 22.597 58.012 24.5905C58.1615 21.2015 58.2612 18.859 58.3609 17.6131C58.4107 17.2642 58.0619 16.8157 57.5635 16.5665C57.1149 16.3173 56.6664 16.3173 56.6165 16.6661C56.2178 19.4571 56.1181 27.9796 56.1181 39.293C56.2677 41.9843 56.3673 44.875 56.5667 46.9682ZM62.5474 27.7802C61.7499 27.6805 59.3577 27.5809 58.8094 27.2818V27.1323C59.1085 25.7368 62.647 21.3012 64.8898 22.597C66.4846 23.5439 64.2917 27.2818 62.5474 27.7802Z" fill="#FAFBFC"/>
<path d="M87.6514 23.6934C88.8475 23.2947 89.1964 22.6468 87.7511 22.6966C87.3025 22.6966 85.3588 22.896 83.0164 22.896C81.8701 22.896 80.5743 22.8462 79.3283 22.6966C78.5807 21.7995 77.4842 21.1516 76.1386 20.9523C75.1418 20.9024 74.7929 21.4507 74.5936 22.1484C74.4939 22.1484 74.4441 22.1983 74.3444 22.1983C73.1981 22.597 71.9023 24.9892 72.2512 27.0825C72.5004 28.478 73.7463 30.023 75.5904 30.1226C77.883 30.2722 79.9264 29.0262 80.3749 26.5342C80.5244 25.7867 80.4746 25.0391 80.2752 24.3912C83.3154 24.5407 86.5549 24.0921 87.6514 23.6934ZM75.3412 23.2947L75.4408 23.195C76.1386 23.6436 77.0855 23.9426 78.2318 24.142C79.0293 25.9362 77.9328 28.777 75.7399 28.8767C74.7929 28.9265 74.2447 28.3783 73.9955 26.933C73.7463 25.5375 74.6933 23.7931 75.3412 23.2947Z" fill="#FAFBFC"/>
<path d="M87.7495 29.8236C88.4971 30.1226 89.6932 30.2722 90.9392 30.2722C92.235 30.2722 93.5308 30.1226 94.4279 29.8735C95.7237 29.5246 96.6707 28.1291 95.5742 27.1821C94.5774 26.3847 93.0823 25.6371 91.1884 24.5905C90.1916 23.9925 89.0453 23.4941 89.3444 22.7963C89.8926 21.5005 94.4279 20.6532 96.272 20.0053C96.6707 19.507 95.6739 18.56 94.8765 18.6597C92.3347 19.0086 86.9022 20.6034 87.301 23.2449C87.5003 24.74 88.8958 25.2384 90.1916 25.986C91.1884 26.5342 93.0823 27.4812 94.3282 28.1291C93.0324 28.4281 91.0389 28.6773 89.444 28.6773C88.7961 28.6773 88.2479 28.6275 87.7993 28.5278C86.7029 28.2786 87.1514 29.5246 87.7495 29.8236Z" fill="#FAFBFC"/>
<path d="M100.891 28.8268C101.439 29.1757 102.037 29.3252 102.685 29.3252C105.326 29.3252 108.616 26.7834 110.011 25.5375C110.659 27.3317 111.905 28.2786 113.55 28.6773C115.643 29.1757 119.082 27.5809 120.328 26.3349C123.069 23.5937 122.321 22.3478 121.474 23.195C119.68 25.1886 115.394 27.7304 112.852 27.232C111.955 26.9828 111.706 25.986 111.756 25.1388C111.855 24.1918 112.304 23.2947 112.553 22.5471C112.902 21.9491 111.207 20.8526 110.908 21.4008L110.061 22.5471H110.011C108.765 21.9989 107.37 21.6999 105.974 21.6999C104.23 21.6999 102.535 22.1484 101.19 23.0455C99.9437 23.8928 99.3955 24.9892 99.3955 26.0857C99.3955 27.1323 99.8939 28.0793 100.891 28.8268ZM101.788 27.7304C101.04 27.6805 100.741 27.1323 100.891 26.5342C101.439 24.2417 104.728 23.2947 107.22 23.2947C107.968 23.2947 108.665 23.3944 109.164 23.5439C107.42 25.3879 104.18 27.4313 101.788 27.7304Z" fill="#FAFBFC"/>
<path d="M122.391 31.0696C122.889 31.3188 123.138 31.1693 123.188 31.1693C123.288 31.1194 123.338 31.0197 123.387 31.0197C123.437 30.8702 123.537 30.621 123.487 30.2722L123.786 28.8767L123.936 28.3783L124.035 28.4281C125.132 29.1757 128.022 29.3252 128.82 29.1757L129.019 29.1259H129.418C133.804 29.076 137.342 27.1821 139.186 24.6902C139.635 24.0423 139.934 22.4973 139.436 22.9957C137.691 24.5407 133.704 26.7834 131.262 27.1821L131.611 26.3847C131.81 25.7867 131.96 25.0889 131.96 24.3413C131.96 23.195 131.611 21.9989 130.564 21.052L130.315 20.8526C129.916 20.4539 129.318 20.2047 128.87 20.1549C126.677 19.7561 123.487 23.8928 122.64 25.9362C122.391 23.3944 122.341 20.2047 122.341 16.9652C122.341 10.4363 122.54 3.85753 123.138 2.11317C123.288 1.81414 122.989 1.31575 122.59 1.01671C122.092 0.717679 121.593 0.717679 121.444 0.966874C120.796 2.76108 120.547 8.64207 120.547 14.5729V16.1677C120.547 19.4073 120.646 22.597 120.746 25.1388L121.145 28.3284C121.294 29.1259 121.394 29.7738 121.593 30.1226C121.593 30.1725 121.593 30.2722 121.743 30.4217C121.743 30.4715 122.042 30.8204 122.391 31.0696ZM124.334 27.3815L124.235 27.3317C126.428 24.142 127.723 22.1484 129.418 21.6002H129.518L129.667 21.7995C129.966 22.0986 130.116 22.597 130.116 23.2947C130.116 25.6371 128.122 27.6805 125.83 27.6805C125.331 27.6805 124.833 27.5809 124.334 27.3815Z" fill="#FAFBFC"/>
<path d="M143.93 32.8139C147.07 32.8139 151.057 27.4313 151.954 24.9394C152.154 24.3413 152.054 23.0954 151.556 23.7931C150.808 24.74 144.778 32.8638 142.186 31.2689C141.09 30.5214 140.691 26.9828 140.691 22.5471C140.691 13.925 142.136 1.96365 142.435 1.01671C142.435 0.767518 142.037 0.368808 141.538 0.119614C141.04 -0.0797422 140.741 -0.0299036 140.691 0.269129C140.043 2.36236 138.648 13.0777 138.648 21.351C138.648 25.4876 138.996 29.0262 139.943 30.5214C140.94 31.9168 142.336 32.8139 143.93 32.8139Z" fill="#FAFBFC"/>
<path d="M159.014 30.322C162.453 30.1226 165.643 27.6805 167.038 24.7899C167.736 23.3944 167.935 22.2481 166.789 23.4442C164.696 25.6371 161.207 29.1259 156.522 29.1259C154.778 29.1259 153.033 27.531 152.884 26.5841C154.628 26.5841 156.771 25.3879 157.419 23.7931C157.967 22.3478 156.522 20.8526 154.977 20.8526C152.535 20.9523 151.04 23.195 151.04 25.3879C151.04 25.8863 151.14 26.3847 151.289 26.8333C152.286 29.9233 156.074 30.4715 159.014 30.322ZM155.775 22.5471C156.323 23.0954 154.927 24.441 152.834 25.3879C152.784 24.142 154.728 21.5005 155.775 22.5471Z" fill="#FAFBFC"/>
</svg>
