<svg width="128" height="32" viewBox="0 0 128 32" fill="none" xmlns="http://www.w3.org/2000/svg">
<g clip-path="url(#clip0_20_14399)">
<path d="M9.83459 23.9886V32.0001L19.6704 18.1852L9.83459 23.9886Z" fill="#646891"/>
<path d="M9.83459 11.8502V22.1348L19.6692 16.3175L9.83459 11.8502Z" fill="#464A79"/>
<path d="M9.83459 0V11.8502L19.6692 16.3174L9.83459 0Z" fill="#646891"/>
<path d="M9.83458 23.9886V32.0001L0 18.1852L9.83458 23.9886Z" fill="#8890B4"/>
<path d="M9.83458 11.8502V22.1348L0 16.3175L9.83458 11.8502Z" fill="#646891"/>
<path d="M9.83458 0V11.8502L0 16.3174L9.83458 0Z" fill="#8890B4"/>
<path fill-rule="evenodd" clip-rule="evenodd" d="M55.3345 13.6121C53.876 13.4106 52.494 13.8964 51.5429 15.4683V6.19978C51.5429 6.00472 51.3836 5.84409 51.1872 5.84409H51.1796C50.9756 5.84409 50.8086 6.0111 50.8086 6.21508V22.7799C50.8086 22.9813 50.9731 23.147 51.1758 23.147C51.3772 23.147 51.5429 22.9826 51.5429 22.7799V17.1805C51.5429 15.6124 53.5305 13.9231 55.3319 14.3273C56.4947 14.5874 57.6535 15.7386 57.6497 17.5821V22.7799C57.6497 22.9813 57.8142 23.147 58.0169 23.147C58.2183 23.147 58.3841 22.9826 58.3841 22.7799V17.5987C58.4886 16.0191 57.3986 13.8964 55.3345 13.6121ZM43.506 22.7798V14.4279H45.6708C45.8671 14.4279 46.0265 14.2673 46.0265 14.0722C46.0265 13.8759 45.8658 13.7165 45.6708 13.7165H43.506V10.6083C43.506 10.412 43.3454 10.2526 43.1503 10.2526H43.1426C42.9387 10.2526 42.7717 10.4196 42.7717 10.6236V13.7165H40.6732C40.4768 13.7165 40.3175 13.8772 40.3175 14.0722C40.3175 14.2685 40.4781 14.4279 40.6732 14.4279H42.7717V22.7798C42.7717 22.9825 42.9374 23.147 43.1388 23.147C43.3415 23.147 43.506 22.9812 43.506 22.7798ZM31.6404 22.4904C29.3342 22.4866 27.9713 20.4098 27.8693 18.7448H35.7444C35.8514 18.7448 35.9534 18.7014 36.0287 18.6236C36.1026 18.5459 36.1434 18.4413 36.1396 18.3342C36.0988 17.1295 35.8196 15.9884 34.7869 14.8818C33.9863 14.0238 32.9702 13.4985 31.5793 13.4985C30.1883 13.4985 29.1812 14.122 28.3397 14.9813C27.4996 15.8405 27.0789 16.9663 27.0789 18.3572C27.0789 19.7723 27.571 20.9452 28.2122 21.6401C29.0027 22.4955 30.0914 23.277 31.5793 23.277C33.6038 23.3727 34.9067 22.2087 35.5187 21.2958C35.5799 21.2053 35.6003 21.0944 35.5761 20.9886C35.5518 20.8828 35.4855 20.7923 35.3912 20.7374L35.3899 20.7362C35.214 20.6329 34.9552 20.6609 34.8366 20.8267C34.1673 21.7625 33.2149 22.493 31.6404 22.4904ZM29.1251 15.3038C29.7842 14.7237 30.5517 14.2699 31.5805 14.2622C32.9153 14.252 33.5235 14.7773 34.1087 15.402C34.7028 16.0369 35.1872 16.9841 35.2484 18.0002H27.905C28.0146 16.9828 28.4659 15.8852 29.1251 15.3038ZM67.9904 22.4904C65.6841 22.4866 64.3212 20.4098 64.2192 18.7448H72.0943C72.2014 18.7448 72.3034 18.7014 72.3786 18.6236C72.4525 18.5459 72.4933 18.4413 72.4895 18.3342C72.4487 17.1295 72.1695 15.9884 71.1368 14.8818C70.3362 14.0238 69.3201 13.4985 67.9292 13.4985C66.5383 13.4985 65.5311 14.122 64.6897 14.9813C63.8495 15.8405 63.4288 16.9663 63.4288 18.3572C63.4288 19.7723 63.9209 20.9452 64.5622 21.6401C65.3526 22.4955 66.4414 23.277 67.9292 23.277C69.9537 23.3727 71.2567 22.2087 71.8686 21.2958C71.9298 21.2053 71.9502 21.0944 71.926 20.9886C71.9018 20.8828 71.8355 20.7923 71.7411 20.7374L71.7399 20.7362C71.5639 20.6329 71.3051 20.6609 71.1866 20.8267C70.5172 21.7625 69.5649 22.493 67.9904 22.4904ZM65.475 15.3038C66.1341 14.7237 66.9016 14.2699 67.9305 14.2622C69.2666 14.252 69.8747 14.7773 70.4586 15.402C71.0527 16.0369 71.5372 16.9841 71.5984 18.0002H64.2549C64.3646 16.9828 64.8159 15.8852 65.475 15.3038ZM86.7161 18.7448C86.8181 20.4098 88.181 22.4866 90.4873 22.4904C92.0618 22.493 93.0141 21.7625 93.6835 20.8267C93.802 20.6609 94.0608 20.6329 94.2368 20.7362L94.2381 20.7374C94.3324 20.7923 94.3987 20.8828 94.4229 20.9886C94.4471 21.0944 94.4267 21.2053 94.3655 21.2958C93.7536 22.2087 92.4506 23.3727 90.4261 23.277C88.9383 23.277 87.8495 22.4955 87.0591 21.6401C86.4178 20.9452 85.9257 19.7723 85.9257 18.3572C85.9257 16.9663 86.3464 15.8405 87.1866 14.9813C88.028 14.122 89.0352 13.4985 90.4261 13.4985C91.817 13.4985 92.8331 14.0238 93.6325 14.8818C94.6651 15.9884 94.9443 17.1295 94.9851 18.3342C94.989 18.4413 94.9482 18.5459 94.8742 18.6236C94.799 18.7014 94.697 18.7448 94.5886 18.7448H86.7161ZM90.4274 14.2622C89.3985 14.2699 88.631 14.7237 87.9719 15.3038C87.3128 15.8852 86.8615 16.9828 86.7518 18.0002H94.0953C94.0341 16.9841 93.5496 16.0369 92.9555 15.402C92.3703 14.7773 91.7622 14.252 90.4274 14.2622ZM106.848 21.4502C105.897 23.0222 104.515 23.5079 103.057 23.3065C100.992 23.0222 100.007 21.259 100.007 19.3199V14.1387C100.007 13.936 100.173 13.7715 100.374 13.7715C100.577 13.7715 100.741 13.9372 100.741 14.1387V19.3364C100.738 21.1812 101.938 22.3261 103.104 22.5734C105.042 22.9852 106.893 21.0856 106.893 18.7117L106.848 14.1387C106.848 13.936 107.014 13.7715 107.215 13.7715C107.418 13.7715 107.582 13.9372 107.582 14.1387V22.7672C107.582 22.9712 107.415 23.1382 107.211 23.1382H107.204C107.009 23.1382 106.848 22.9775 106.848 22.7825V21.4502ZM124.321 13.612C122.889 13.4144 121.085 14.034 120.33 16.0572C119.892 14.8882 118.901 13.8096 117.471 13.612C116.012 13.4105 114.617 13.8555 113.666 15.4274V14.0952C113.666 13.9001 113.506 13.7395 113.311 13.7395H113.303C113.099 13.7395 112.932 13.9065 112.932 14.1105V22.7403C112.932 22.9417 113.096 23.1074 113.299 23.1074C113.501 23.1074 113.666 22.943 113.666 22.7403L113.622 18.1672C113.622 15.7933 115.486 13.9345 117.425 14.3463C118.545 14.5847 119.699 15.6531 119.782 17.3755V22.739C119.782 22.7466 119.783 22.7543 119.785 22.7619C119.786 22.767 119.787 22.7721 119.787 22.7772V22.7798C119.787 22.9812 120.01 23.147 120.212 23.147H120.213C120.414 23.147 120.58 22.9825 120.58 22.7798V21.5278L120.581 21.2012V21.1983C120.584 20.4313 120.586 19.5144 120.586 18.7881C120.586 16.2243 121.742 13.9537 124.275 14.3451C125.451 14.5274 126.641 15.7372 126.637 17.582V22.7798C126.637 22.9812 126.802 23.147 127.004 23.147C127.206 23.147 127.371 22.9825 127.371 22.7798V17.5986C127.476 16.019 126.386 13.8963 124.321 13.612ZM81.9748 13.8416C82.0615 13.9118 82.1112 14.0163 82.1112 14.1272V14.1323C82.1112 14.3006 81.9952 14.4689 81.8282 14.4765C79.9822 14.5645 78.3847 16.3213 78.3847 18.393L78.3618 22.7124C78.3618 22.9151 78.196 23.0796 77.9946 23.0796H77.9933C77.7906 23.0796 77.6261 22.9138 77.6261 22.7124V14.0826C77.6261 13.8786 77.7931 13.7116 77.9971 13.7116H78.0048C78.1998 13.7116 78.3605 13.8722 78.3605 14.0673V15.9809C78.7289 15.0388 80.1555 13.8059 81.6676 13.7677C81.7785 13.7639 81.8881 13.7715 81.9748 13.8416Z" fill="#8890B4"/>
</g>
<defs>
<clipPath id="clip0_20_14399">
<rect width="127.378" height="32" fill="white"/>
</clipPath>
</defs>
</svg>
