<svg width="128" height="32" viewBox="0 0 123 32" fill="none" xmlns="http://www.w3.org/2000/svg">
<g clip-path="url(#clip0_20_14401)">
<path d="M37.5692 25.9055V14.2191H40.8114V12.0762H37.5692V10.5388C37.5692 8.80214 38.33 7.93383 39.8475 7.93383C40.3215 7.93782 40.7955 8.01349 41.2496 8.1529V5.87458C40.6003 5.6834 39.9232 5.59179 39.2461 5.59975C37.8361 5.59975 36.7407 6.00204 35.964 6.80662C35.1873 7.6112 34.797 8.78223 34.797 10.3197V12.0762H32.1323V14.2191H34.797V25.9094L37.5692 25.9055ZM48.8294 26.1006C49.8012 26.1245 50.7612 25.8975 51.6175 25.4434C52.4022 25.0172 53.0315 24.356 53.4179 23.5515V25.9094H56.1622V12.0762H53.4139V14.3267C53.0116 13.5261 52.3823 12.8609 51.6016 12.4188C50.7532 11.9567 49.7933 11.7257 48.8294 11.7496C47.7022 11.7337 46.5949 12.0483 45.6429 12.6538C44.687 13.2831 43.9302 14.1673 43.4602 15.2069C42.9185 16.3939 42.6516 17.6884 42.6795 18.9948C42.6516 20.2853 42.9145 21.5639 43.4482 22.7389C44.3922 24.846 46.5192 26.1723 48.8294 26.1006ZM49.4866 23.902C48.3554 23.9617 47.26 23.4837 46.5351 22.6115C45.8301 21.7511 45.4796 20.5442 45.4796 18.9908C45.4796 17.4175 45.8301 16.1868 46.5351 15.2985C47.2401 14.4103 48.3275 13.9164 49.4587 13.9682C50.5819 13.9045 51.6693 14.3864 52.3823 15.2587C53.0674 16.119 53.4139 17.3458 53.4139 18.9351C53.4139 20.5084 53.0713 21.7312 52.3823 22.5995C51.6852 23.4758 50.6058 23.9617 49.4866 23.902ZM62.9733 25.9055V18.0309C62.9215 16.9515 63.2999 15.892 64.0288 15.0954C64.7696 14.3506 65.7933 13.9483 66.8448 13.9961C67.8685 13.9961 68.6173 14.2709 69.0833 14.8206C69.5493 15.3702 69.7843 16.2465 69.7843 17.4534V25.9055H72.5565V17.2901C72.5565 13.5978 70.8996 11.7496 67.5857 11.7496C66.5939 11.7337 65.614 11.9727 64.7417 12.4506C63.9133 12.9127 63.2481 13.6177 62.8338 14.4661L62.5869 12.0802H60.0059C60.1612 13.3747 60.2329 14.6732 60.2249 15.9757V25.9094L62.9733 25.9055ZM81.8411 26.0966C82.5381 26.1086 83.2351 26.005 83.9003 25.7939V23.5435C83.4263 23.6869 82.9364 23.7586 82.4465 23.7626C81.8172 23.7984 81.2038 23.5873 80.7298 23.1731C80.3195 22.7787 80.1124 22.1056 80.1124 21.1576V14.2191H83.9282V12.0762H80.1124V7.659L77.3402 8.61892V12.0762H74.6476V14.2191H77.3402V21.3807C77.3402 22.9181 77.7345 24.0892 78.5192 24.8938C79.3039 25.6983 80.4111 26.1006 81.8411 26.0966ZM92.44 26.0966C93.6788 26.1205 94.9016 25.8178 95.981 25.2204C97.0006 24.6388 97.8291 23.7705 98.3549 22.723C98.9364 21.548 99.2232 20.2455 99.1913 18.9351C99.2192 17.6207 98.9324 16.3142 98.3549 15.1352C97.8291 14.0837 97.0006 13.2074 95.981 12.6259C93.7544 11.4549 91.0938 11.4549 88.8672 12.6259C87.8436 13.2074 87.0191 14.0837 86.4933 15.1352C85.9158 16.3182 85.629 17.6207 85.6569 18.9351C85.625 20.2455 85.9118 21.544 86.4933 22.723C87.023 23.7705 87.8475 24.6388 88.8672 25.2204C89.9626 25.8258 91.1933 26.1245 92.44 26.0966ZM92.4121 23.902C91.2929 23.9657 90.2095 23.4957 89.4886 22.6393C88.8035 21.7989 88.457 20.5642 88.457 18.9351C88.457 17.3418 88.8035 16.119 89.5005 15.2587C90.2215 14.3864 91.3088 13.9084 92.44 13.9682C93.5553 13.9084 94.6347 14.3904 95.3357 15.2587C96.0208 16.119 96.3673 17.3458 96.3673 18.9351C96.3673 20.5642 96.0288 21.7989 95.3517 22.6393C94.6267 23.5037 93.5354 23.9737 92.4121 23.902ZM105.182 25.9055V18.0867C105.122 17.0113 105.453 15.9478 106.114 15.0954C106.743 14.3625 107.675 13.9562 108.639 13.9961C109.555 13.9961 110.216 14.2709 110.631 14.8206C111.045 15.3702 111.248 16.2385 111.248 17.4255V25.9055H114.02V18.0867C113.961 17.0113 114.287 15.9518 114.94 15.0954C115.562 14.3585 116.49 13.9523 117.454 13.9961C118.37 13.9961 119.031 14.2709 119.445 14.8206C119.86 15.3702 120.063 16.2385 120.063 17.4255V25.9055H122.835V17.2901C122.835 13.5978 121.297 11.7496 118.218 11.7496C117.251 11.7337 116.299 11.9806 115.458 12.4626C114.662 12.9167 114.02 13.5938 113.606 14.4103C112.949 12.6339 111.547 11.7496 109.404 11.7496C108.48 11.7297 107.564 11.9647 106.767 12.4347C106.01 12.9007 105.409 13.5778 105.038 14.3824L104.792 12.0762H102.211C102.366 13.3707 102.438 14.6692 102.43 15.9717V25.9055H105.182Z" fill="#1969FF"/>
<path d="M11.3658 0.306075C12.2341 -0.104182 13.2379 -0.104182 14.1022 0.306075L22.0365 4.47635C22.4427 4.65957 22.7335 5.03 22.8092 5.46814H22.8171V26.431C22.7773 26.913 22.4786 27.3312 22.0365 27.5224L14.1062 31.6927C13.2379 32.1029 12.2341 32.1029 11.3698 31.6927L3.43551 27.5224C2.99737 27.3272 2.70661 26.909 2.67475 26.431C2.67475 26.3952 2.67475 26.3633 2.67475 26.3394V5.46814C2.74246 5.03 3.02924 4.65161 3.43551 4.47635L11.3658 0.306075ZM21.5665 17.1624L14.1022 21.0858C13.2339 21.496 12.2301 21.496 11.3658 21.0858L3.91746 17.1704V26.3872L11.3658 30.2827C11.7362 30.5057 12.1385 30.6611 12.5647 30.7447L12.736 30.7567C13.202 30.7089 13.6481 30.5615 14.0504 30.3185L21.5665 26.3554V17.1624ZM1.38025 25.973C1.3444 26.5545 1.43999 27.1361 1.65906 27.6777C1.85025 28.0243 2.12906 28.3111 2.46763 28.5062L2.49152 28.5222C2.58313 28.5859 2.68669 28.6496 2.81017 28.7253L2.95754 28.8129L3.40763 29.0838L2.76636 30.1512L2.26051 29.8485L2.17686 29.7967C2.02949 29.7091 1.91 29.6295 1.79847 29.5538C0.591598 28.7452 0.141511 27.865 0.133545 26.0288V25.973H1.38025ZM12.1106 11.5463C12.0549 11.5662 12.0031 11.5861 11.9513 11.614L4.01704 15.7843L3.99314 15.7962L3.98518 15.8002L3.99712 15.8082L4.01704 15.8201L11.9513 19.9904C12.0031 20.0183 12.0549 20.0382 12.1106 20.0581V11.5463ZM13.3613 11.5463V20.0581C13.4171 20.0382 13.4689 20.0183 13.5207 19.9904L21.4549 15.8201L21.4788 15.8082L21.4868 15.8042L21.4748 15.7962L21.4589 15.7843L13.5207 11.614C13.4689 11.5861 13.4171 11.5622 13.3613 11.5463ZM21.5665 6.95382L14.4527 10.6939L21.5704 14.434L21.5665 6.95382ZM3.92145 6.96577V14.43L11.0193 10.6979L3.92145 6.96577ZM13.5207 1.4054C13.0188 1.19032 12.4492 1.19032 11.9513 1.4054L4.01704 5.57568L3.99314 5.58763L3.98518 5.59161L3.99712 5.59958L4.01704 5.60754L11.9513 9.77782C12.4532 9.99291 13.0228 9.99291 13.5207 9.77782L21.4549 5.60754L21.4788 5.59559L21.4868 5.59161L21.4748 5.58365L21.4549 5.57568L13.5207 1.4054ZM22.7415 1.86346L23.2473 2.16617L23.331 2.21795C23.4783 2.30558 23.5978 2.38524 23.7093 2.46092C24.9162 3.26948 25.3623 4.14974 25.3743 5.98594V6.0417H24.1276C24.1634 5.46017 24.0678 4.87864 23.8488 4.33694C23.6616 3.99042 23.3788 3.70364 23.0402 3.50448L23.0163 3.48855C22.9247 3.42482 22.8211 3.36109 22.6977 3.28541L22.5503 3.1938L22.1002 2.92295L22.7415 1.86346Z" fill="#1969FF"/>
</g>
<defs>
<clipPath id="clip0_20_14401">
<rect width="122.71" height="32" fill="white" transform="translate(0.133545)"/>
</clipPath>
</defs>
</svg>
