<svg width="191" height="32" viewBox="0 0 191 32" fill="none" xmlns="http://www.w3.org/2000/svg">
<path d="M109.046 4.2155C109.09 5.18555 108.781 6.15561 108.605 7.08157C107.811 10.7413 107.591 14.5334 106.621 18.149C108.076 16.8703 109.707 15.5475 111.735 15.3711C114.249 15.0184 116.85 16.6499 117.688 18.9868C118.217 20.9269 117.997 22.9552 117.6 24.8953C118.614 24.9835 119.584 24.9394 120.598 24.8071C120.334 22.4702 120.951 20.0451 122.494 18.2372C124.434 15.8562 127.829 14.8861 130.784 15.5916C133.341 16.3412 134.796 19.6923 133.209 21.897C131.489 24.3662 128.579 25.6008 125.889 26.7473C126.595 27.5409 127.609 28.1142 128.711 28.026C131.798 27.8496 134.532 26.174 137.001 24.4985C136.869 21.6324 137.618 18.4136 140.087 16.6499C142.601 14.842 146.172 15.1948 148.642 16.8703C149.964 15.9003 152.125 15.9885 152.83 17.664C153.007 20.5742 152.213 23.5284 153.051 26.3945C153.271 27.1441 154.065 28.026 154.903 27.5409C156.799 26.5268 157.989 24.719 159.18 22.9993C159.885 21.1474 159.665 19.075 160.238 17.179C160.635 16.2971 161.826 15.8562 162.663 16.4735C163.589 16.9144 163.677 17.9727 163.854 18.8545C165.088 17.2231 166.676 15.4593 168.925 15.5034C170.865 15.2389 172.673 16.3853 173.422 18.1049C174.613 16.4735 176.509 15.2389 178.625 15.5475C181.006 15.4593 183.079 17.4876 183.079 19.7805C183.299 22.3379 180.962 24.1898 180.874 26.6591C180.83 27.8937 182.329 28.026 183.211 27.7173C185.724 26.8354 187.003 24.4103 188.678 22.5584C189.604 23.0875 190.751 24.1457 190.089 25.2922C188.678 27.3205 187.003 29.3488 184.842 30.6716C183.211 31.6857 181.006 31.9944 179.198 31.2007C177.435 30.4952 176.509 28.511 176.597 26.7032C176.729 24.6749 178.052 23.0434 178.581 21.1033C178.846 20.3978 178.493 19.4277 177.699 19.2955C176.332 19.1632 175.054 20.0451 174.26 21.1033C173.069 22.7348 172.496 24.6749 171.923 26.5709C171.526 27.9819 171.658 29.5692 171.041 30.9361C170.159 32.5235 167.514 31.2448 167.514 29.7015C167.337 27.8937 167.866 26.2181 168.528 24.5867L168.969 23.4402C169.321 22.5584 169.63 21.6324 169.851 20.7065C169.983 19.9569 169.277 19.2514 168.528 19.2955C166.808 19.4277 165.529 20.7946 164.78 22.2497C163.589 24.5867 162.84 27.1441 162.619 29.7456C162.531 30.7157 161.87 31.9944 160.635 31.6416C159.092 31.3771 158.474 29.7456 158.739 28.3787C158.607 28.511 158.474 28.5992 158.342 28.7315L157.945 29.0842C156.578 30.3629 155.123 31.6857 153.139 31.6416C150.626 31.333 149.259 28.7756 148.95 26.5709C147.804 28.6433 146.481 30.9802 143.968 31.5534C141.278 31.9944 138.676 30.2306 137.486 27.9378C134.752 30.0984 131.357 31.7298 127.785 31.6416C125.272 31.5534 123.2 29.8779 121.789 28.026C119.893 28.5992 117.82 28.8637 116.012 27.8496C114.293 31.4212 109.575 32.9644 105.959 31.3771C104.372 30.7157 103.402 29.2606 102.696 27.7614C100.492 29.7015 97.8459 31.2448 94.8917 31.6857C93.2602 31.9503 91.8492 30.5834 91.5406 29.0842C90.791 26.2181 92.4665 23.4843 92.7752 20.7065C92.9515 19.9128 92.1579 19.1632 91.3642 19.3836C89.4241 19.5159 88.1454 21.2356 87.3076 22.7788C86.3375 24.719 85.5438 26.7914 85.1911 28.9078C85.0147 29.7897 84.9265 30.7598 84.2651 31.4653C82.9864 32.2589 81.2668 31.1566 81.1345 29.7897C81.0463 28.3787 81.355 26.9677 81.6195 25.5567C80.3408 27.1441 78.092 27.4528 76.3724 26.3504C75.226 30.0102 71.1253 32.2589 67.3332 31.5534C64.7758 31.0684 62.483 29.0401 61.9979 26.4827C61.4247 23.7048 61.8216 20.6183 63.4971 18.2372C66.275 14.5775 72.6685 14.7097 75.4905 18.2813C76.5929 19.6923 76.7251 21.5001 76.637 23.2198C77.4306 23.5725 78.3566 23.793 79.0621 23.1757C81.0022 21.7206 82.4132 19.56 83.0746 17.2672C83.4274 16.3412 84.7061 15.9444 85.4997 16.5617C86.3375 17.0467 86.5139 18.0168 86.5139 18.8545C88.2776 16.6939 91.1437 15.2389 94.0098 15.5916C95.5531 15.768 96.6113 17.1349 96.7877 18.59C97.1404 20.6183 96.5672 22.5143 95.9499 24.4103L95.7294 25.1599C95.509 25.7772 95.3326 26.4386 95.2003 27.0559C95.068 28.0701 96.3467 27.8055 96.8759 27.4528C98.7719 26.5709 100.492 25.3363 102.035 23.8812C102.432 17.3113 103.666 10.8295 104.504 4.30368C104.989 2.01082 108.737 2.09901 109.046 4.2155ZM15.788 0.776205C17.9486 6.77292 19.1391 13.0783 20.1091 19.3396C20.7264 18.6341 20.8587 17.664 21.2115 16.7821C22.6225 12.9901 23.9453 9.15396 25.5326 5.40602C26.1499 3.95093 26.7672 2.45176 27.7373 1.12895C28.09 0.555739 28.7955 0.291176 29.457 0.423456C30.5152 1.08486 30.7357 2.40766 30.8679 3.51C31.4853 10.2563 31.838 17.0467 32.4112 23.793C32.5435 25.8213 33.4254 27.8055 33.3372 29.8338C32.9844 31.7739 29.4129 31.9944 29.1924 29.8338C28.4869 23.1757 27.9578 16.4294 27.6932 9.72718C25.7531 14.6216 24.4303 19.7805 22.4461 24.6749C21.6965 25.9977 20.7264 27.9378 18.9186 27.7173C17.8163 27.6732 17.7722 26.4386 17.5958 25.6449C16.4935 20.8828 15.4793 16.1207 14.5975 11.3145C13.1865 16.5617 11.6432 21.8088 8.99758 26.615C7.85115 28.5551 6.48425 30.6716 4.10321 31.2889C2.95678 31.6857 1.06076 31.7739 0.708008 30.3188C0.708008 28.8197 2.51584 28.511 3.35362 27.5409C4.89689 25.7331 5.86695 23.5284 6.79291 21.3679C9.35033 14.8861 11.07 8.09572 12.7014 1.34942C12.8337 -0.0615694 15.1707 -0.546599 15.788 0.776205ZM68.171 19.4718C65.3931 21.0151 65.5254 25.204 67.7301 27.1882C68.9647 28.2023 70.9048 27.6291 71.8308 26.4386C73.2859 24.6308 73.0654 21.9852 71.8308 20.1332C70.993 18.9868 69.3174 18.8104 68.171 19.4718ZM109.663 19.2955C106.929 20.4419 105.562 24.1017 107.194 26.615C108.032 27.9378 109.928 27.8496 111.206 27.3205C113.984 26.0859 114.998 22.2497 113.279 19.7805C112.485 18.59 110.809 18.7663 109.663 19.2955ZM143.35 19.3836C140.264 20.5301 140.043 24.9394 142.204 27.0559C142.865 27.6732 144.056 27.8937 144.761 27.1882C146.437 25.6449 147.407 23.4402 147.804 21.2356C147.275 19.56 144.938 18.8986 143.35 19.3836ZM126.551 19.1191C125.228 20.486 125.096 22.4702 124.787 24.2339C126.463 23.2198 128.006 21.9852 129.461 20.7065C129.99 20.2655 130.431 19.5159 130.078 18.8104C129.152 17.7522 127.433 18.2813 126.551 19.1191ZM53.0029 15.7239C55.913 16.9585 57.8531 20.001 57.6327 23.0875C52.4296 23.0875 47.2266 23.1316 42.0236 23.0434C42.0236 20.971 42.7291 18.8545 44.2283 17.3994C46.4329 15.1507 50.0927 14.4452 53.0029 15.7239Z" fill="#5FC0C1"/>
</svg>
