<svg width="128" height="32" viewBox="0 0 136 32" fill="none" xmlns="http://www.w3.org/2000/svg">
<g clip-path="url(#clip0_257_270)">
<path d="M31.8877 13.4937C30.6342 13.4783 29.3952 13.7633 28.2744 14.325C27.1536 14.8866 26.1837 15.7085 25.4458 16.722C23.7264 18.8423 22.8094 21.5009 22.8559 24.2303C22.7694 25.9858 23.3499 27.7091 24.4809 29.0545C25.0162 29.6628 25.6814 30.1429 26.4273 30.4593C27.1732 30.7758 27.9807 30.9204 28.7901 30.8827C29.9858 30.8817 31.1654 30.6065 32.2381 30.0783C33.3109 29.5501 34.2482 28.7829 34.9781 27.8358C36.8128 25.6347 37.803 22.8518 37.7711 19.9865C37.8444 18.3067 37.3626 16.6496 36.4 15.2711C35.4352 14.1031 33.9117 13.4937 31.8877 13.4937ZM31.9893 26.3776C31.585 26.7905 31.1034 27.1196 30.5719 27.3461C30.0404 27.5727 29.4694 27.6922 28.8916 27.698C28.5046 27.7192 28.1182 27.6472 27.7647 27.4882C27.4113 27.3291 27.1012 27.0876 26.8604 26.7839C26.3286 26.0514 26.0718 25.155 26.1349 24.2521C26.0638 22.3212 26.6157 20.4187 27.7091 18.8258C28.1364 18.1507 28.7294 17.5963 29.4317 17.2153C30.1339 16.8343 30.922 16.6395 31.7209 16.6494C33.5393 16.6494 34.451 17.7642 34.4558 19.9937C34.4868 22.36 33.6032 24.6469 31.9893 26.3776ZM130.186 21.5099C129.815 21.3817 129.409 21.3996 129.05 21.5599C128.692 21.7203 128.408 22.011 128.256 22.3732C126.841 25.9279 125.115 27.698 122.982 27.698C121.865 27.698 121.306 26.7331 121.306 24.9122C121.445 22.8461 121.746 20.794 122.206 18.775L122.663 16.6422H127.015C127.378 16.6455 127.73 16.5195 128.008 16.2868C128.285 16.0541 128.471 15.73 128.532 15.3726C128.578 15.1466 128.573 14.9133 128.518 14.6893C128.464 14.4652 128.36 14.256 128.216 14.0765C128.071 13.8971 127.888 13.7518 127.681 13.651C127.473 13.5503 127.246 13.4966 127.015 13.4937H123.388L124.114 9.94629C124.164 9.7098 124.161 9.46511 124.106 9.22974C124.051 8.99438 123.944 8.77417 123.794 8.5849C123.643 8.39562 123.453 8.24196 123.236 8.13494C123.019 8.02791 122.781 7.97016 122.539 7.96583C122.17 7.96027 121.81 8.08419 121.523 8.31608C121.235 8.54797 121.038 8.87321 120.965 9.23536L120.029 13.4429H109.873C108.613 13.4316 107.368 13.7235 106.245 14.2942C105.121 14.8649 104.151 15.6976 103.417 16.722C101.697 18.8423 100.78 21.5009 100.827 24.2303C100.827 24.9632 100.912 25.6935 101.081 26.4067C100.753 26.7903 100.349 27.1013 99.8943 27.3199C99.4397 27.5385 98.9444 27.6599 98.4401 27.6762C98.1845 27.7008 97.9268 27.6628 97.6892 27.5655C97.4516 27.4682 97.2412 27.3144 97.0763 27.1176C96.7634 26.5643 96.622 25.9305 96.6701 25.2967C96.7379 23.4665 96.9808 21.647 97.3955 19.8631L100.029 7.58859C100.076 7.38234 100.083 7.16873 100.048 6.95994C100.013 6.75116 99.9375 6.5513 99.8253 6.37178C99.7132 6.19225 99.5668 6.03658 99.3944 5.91364C99.2221 5.7907 99.0273 5.70291 98.821 5.65528C98.6147 5.60765 98.4011 5.6011 98.1924 5.63603C97.9836 5.67095 97.7837 5.74665 97.6042 5.85881C97.4247 5.97097 97.269 6.11739 97.146 6.28972C97.0231 6.46204 96.9353 6.65689 96.8877 6.86315L95.3643 14.357C94.2906 13.7147 93.0606 13.3809 91.8096 13.3922C90.5524 13.3737 89.3071 13.6379 88.1657 14.1653C87.0243 14.6926 86.016 15.4697 85.2153 16.439C83.4344 18.6068 82.4989 21.3463 82.5819 24.1505C82.5642 25.0414 82.6841 25.9296 82.9374 26.7839C82.3158 27.3231 81.5256 27.6284 80.703 27.6472C80.4345 27.6712 80.1642 27.6333 79.9126 27.5365C79.6611 27.4396 79.4351 27.2864 79.2521 27.0886C78.8953 26.5521 78.7339 25.9091 78.7951 25.2677C78.8493 24.0453 79.0193 22.8308 79.3029 21.6405C79.3475 21.4141 79.3446 21.181 79.2945 20.9558C79.2444 20.7305 79.1481 20.5182 79.0118 20.3321C78.8754 20.1459 78.7019 19.9901 78.5023 19.8745C78.3027 19.7588 78.0813 19.6858 77.852 19.66C77.4586 19.6096 77.0605 19.7061 76.7339 19.931C76.4073 20.1558 76.1751 20.4933 76.0819 20.8788C75.6572 22.6166 74.8983 24.2551 73.8475 25.703C73.4801 26.2692 72.9861 26.7423 72.4044 27.0847C71.8227 27.4272 71.1694 27.6297 70.496 27.6762C70.1462 27.6693 69.8041 27.5722 69.5029 27.3942C69.2017 27.2163 68.9515 26.9636 68.7766 26.6606C68.3076 25.8459 68.0764 24.9159 68.1092 23.9764C68.0155 22.0755 68.5677 20.1988 69.6762 18.6516C70.1405 17.9802 70.7636 17.4341 71.4902 17.0619C72.2168 16.6898 73.0241 16.5032 73.8403 16.5188C74.6784 16.5251 75.5069 16.6978 76.2778 17.0266C76.5071 17.1389 76.7621 17.1886 77.0169 17.1708C77.2716 17.153 77.5172 17.0682 77.7287 16.9251C77.9781 16.7762 78.1812 16.5609 78.3153 16.3032C78.4495 16.0456 78.5094 15.7557 78.4883 15.466C78.4672 15.1762 78.366 14.8981 78.196 14.6625C78.026 14.427 77.7939 14.2434 77.5255 14.1321C77.1191 13.9557 76.6963 13.8196 76.2633 13.7259C75.4856 13.5085 74.6838 13.3891 73.8765 13.3704C72.6309 13.3653 71.3995 13.6358 70.2708 14.1625C69.142 14.6893 68.1437 15.4593 67.3475 16.4173C66.3855 17.4987 65.6745 18.7794 65.2655 20.1678C63.6913 25.1662 61.6673 27.6036 59.2298 27.6036C58.8815 27.6313 58.5318 27.5714 58.2126 27.4295C57.8933 27.2876 57.6145 27.0682 57.4017 26.7912C56.9989 26.2149 56.8021 25.5198 56.8431 24.8179C56.8304 24.5966 56.8475 24.3746 56.8938 24.1578C58.3628 23.5853 59.6455 22.6189 60.6009 21.3648C61.5289 20.1767 62.0389 18.7155 62.0518 17.208C62.0518 14.6689 60.6879 13.3994 57.895 13.3994C56.9345 13.3948 55.9828 13.581 55.0949 13.9471C54.2069 14.3132 53.4006 14.852 52.7225 15.5322L54.4491 7.55232C54.4977 7.3187 54.4935 7.07717 54.4369 6.84536C54.3802 6.61356 54.2726 6.39732 54.1217 6.21242C53.9709 6.02751 53.7807 5.87862 53.565 5.77658C53.3493 5.67455 53.1135 5.62195 52.8749 5.62263C52.5055 5.61708 52.1459 5.741 51.8583 5.97289C51.5708 6.20478 51.3735 6.53001 51.3007 6.89216L46.5853 28.9095C46.5354 29.1426 46.5384 29.384 46.5941 29.6159C46.6498 29.8477 46.7567 30.0641 46.907 30.2492C47.0573 30.4343 47.2472 30.5834 47.4627 30.6855C47.6782 30.7876 47.9138 30.8401 48.1522 30.8391C48.5165 30.8277 48.8657 30.6907 49.1406 30.4515C49.4156 30.2122 49.5995 29.8853 49.6611 29.5261L51.112 22.7794C51.3617 21.8839 51.702 21.0161 52.1277 20.1896C52.6617 19.2399 53.3881 18.4122 54.2605 17.7593C55.1448 16.991 56.2811 16.5752 57.4524 16.5914C57.6181 16.567 57.7873 16.5816 57.9463 16.6342C58.1053 16.6869 58.2498 16.7759 58.3682 16.8944C58.4866 17.0128 58.5757 17.1573 58.6283 17.3163C58.6809 17.4753 58.6956 17.6444 58.6712 17.8101C58.6303 18.342 58.4725 18.8584 58.2092 19.3223C57.9459 19.7863 57.5834 20.1864 57.1478 20.4943C56.2249 21.3259 55.081 21.8727 53.8542 22.0685C53.7527 23.0333 53.7019 23.7443 53.7019 24.1505C53.6238 25.896 54.1208 27.6188 55.1165 29.0545C55.5977 29.6593 56.2193 30.1373 56.9273 30.447C57.6353 30.7568 58.4083 30.8889 59.179 30.8319C60.2477 30.8221 61.3003 30.5703 62.2578 30.0954C63.2152 29.6205 64.0525 28.9347 64.7069 28.0897L65.3163 27.3643C65.5459 27.9555 65.8719 28.5046 66.2811 28.9893C66.7686 29.5881 67.3888 30.0651 68.0928 30.3824C68.7967 30.6997 69.5649 30.8487 70.3364 30.8174C72.5127 30.8174 74.3481 29.8018 75.8715 27.6689C76.5244 29.8018 78.0479 30.8174 80.5869 30.8174C82.013 30.7995 83.3892 30.2895 84.4826 29.3737C85.4627 30.2926 86.7669 30.7856 88.1098 30.7448C90.2861 30.7448 92.1143 29.7292 93.6377 27.5964C94.2978 29.7292 95.814 30.7448 98.3531 30.7448C99.9645 30.761 101.521 30.1617 102.706 29.0691C103.234 29.6218 103.872 30.0568 104.58 30.3456C105.287 30.6343 106.048 30.7704 106.812 30.7448C108.008 30.7449 109.188 30.4703 110.261 29.942C111.334 29.4137 112.271 28.6459 113 27.698C114.826 25.5064 115.816 22.7378 115.793 19.8849C115.815 18.7241 115.608 17.5704 115.183 16.4898H119.398L118.992 18.3179C118.474 20.433 118.134 22.5879 117.976 24.7599C117.976 28.7136 119.601 30.7448 122.793 30.7448C126.421 30.7448 129.134 28.3073 131.063 23.4904C131.148 23.3041 131.192 23.102 131.193 22.8974C131.194 22.6929 131.151 22.4904 131.068 22.3034C130.986 22.1164 130.864 21.949 130.712 21.8122C130.56 21.6755 130.38 21.5725 130.186 21.5099ZM94.218 19.5802C93.6595 22.3732 92.7672 24.4044 91.7298 25.7247C90.6924 27.0451 89.5026 27.698 88.2839 27.698C87.9332 27.6909 87.5902 27.5938 87.2878 27.4159C86.9855 27.2381 86.7339 26.9854 86.5573 26.6823C86.1 25.8817 85.8716 24.9707 85.8972 24.049C85.8026 22.1468 86.3578 20.2691 87.4714 18.7242C87.8429 18.1534 88.334 17.6702 88.9106 17.3079C89.4873 16.9456 90.1358 16.713 90.8112 16.626C91.4867 16.5391 92.173 16.6 92.8226 16.8044C93.4722 17.0089 94.0696 17.352 94.5735 17.8101L94.218 19.5802ZM111.875 23.3888C111.384 24.4369 110.771 25.4231 110.047 26.3269C109.649 26.7508 109.169 27.0906 108.637 27.3261C108.105 27.5616 107.531 27.6881 106.95 27.698C106.564 27.7192 106.178 27.6472 105.826 27.4881C105.474 27.329 105.165 27.0875 104.926 26.7839C104.394 26.0514 104.137 25.155 104.2 24.2521C104.13 22.3224 104.679 20.4209 105.767 18.8258C106.199 18.155 106.793 17.6039 107.494 17.2235C108.195 16.8431 108.981 16.6456 109.779 16.6494C111.607 16.6494 112.521 17.7642 112.521 19.9937C112.486 21.1557 112.255 22.3034 111.839 23.3888H111.875ZM45.6349 5.62989C45.2656 5.62433 44.9059 5.74825 44.6184 5.98014C44.3308 6.21204 44.1335 6.53727 44.0607 6.89942L39.3453 28.9167C39.2954 29.1499 39.2985 29.3913 39.3541 29.6231C39.4098 29.855 39.5168 30.0714 39.6671 30.2565C39.8174 30.4416 40.0072 30.5907 40.2227 30.6927C40.4382 30.7948 40.6738 30.8473 40.9123 30.8464C41.2816 30.8519 41.6413 30.728 41.9288 30.4961C42.2164 30.2642 42.4137 29.939 42.4865 29.5769L47.2091 7.55958C47.2537 7.32641 47.2466 7.08632 47.1884 6.85618C47.1301 6.62605 47.0222 6.41147 46.8721 6.22753C46.7221 6.0436 46.5336 5.89477 46.3198 5.79151C46.1061 5.68826 45.8723 5.63309 45.6349 5.62989ZM11.8944 0.762146C8.83109 0.773612 5.8965 1.9956 3.73038 4.16172C1.56426 6.32783 0.342277 9.26242 0.330811 12.3258C0.330663 13.603 0.536428 14.8719 0.940185 16.0836C1.08515 16.4801 1.3763 16.8062 1.75396 16.9951C2.13162 17.1839 2.5672 17.2212 2.97143 17.0992C3.36377 16.9501 3.68436 16.6568 3.86773 16.2793C4.0511 15.9018 4.08341 15.4685 3.95804 15.0679C3.61458 14.1256 3.46169 13.1245 3.50826 12.1226C3.55625 10.5053 4.07349 8.93689 4.99699 7.60832C5.9205 6.27976 7.21042 5.24841 8.70963 4.63989C10.2089 4.03137 11.8527 3.87194 13.4409 4.18103C15.0291 4.49011 16.4932 5.25436 17.6548 6.3807C18.8164 7.50704 19.6254 8.94686 19.9832 10.5248C20.3411 12.1027 20.2324 13.7507 19.6704 15.2679C19.1083 16.7852 18.1172 18.1063 16.8177 19.0703C15.5183 20.0343 13.9665 20.5996 12.3515 20.6974C12.3515 20.6974 10.7337 20.799 9.92121 20.9005C9.62327 20.9426 9.32783 21.0007 9.03616 21.0746C9.01521 21.0904 8.98929 21.098 8.96316 21.0961C8.93703 21.0943 8.91245 21.083 8.89393 21.0645C8.87541 21.046 8.86419 21.0214 8.86233 20.9953C8.86047 20.9692 8.8681 20.9432 8.88382 20.9223L9.13773 19.5512L10.6612 12.6522C10.7487 12.2414 10.6695 11.8127 10.4409 11.4603C10.2124 11.108 9.85319 10.8608 9.44241 10.7733C9.03164 10.6858 8.60291 10.765 8.25055 10.9935C7.89819 11.2221 7.65105 11.5813 7.56351 11.9921C7.56351 11.9921 3.93628 28.8369 3.93628 28.9893C3.88633 29.1925 3.87839 29.4038 3.91294 29.6102C3.9475 29.8166 4.02382 30.0138 4.13723 30.1897C4.25065 30.3656 4.39877 30.5165 4.57253 30.6332C4.74629 30.7498 4.94203 30.8298 5.14777 30.8682C5.35148 30.917 5.56297 30.9238 5.76942 30.8884C5.97586 30.8529 6.17294 30.7758 6.34867 30.6618C6.52441 30.5479 6.67513 30.3993 6.79168 30.2253C6.90824 30.0512 6.98819 29.8553 7.02668 29.6494C7.07746 29.4463 7.53449 27.2119 7.53449 27.2119C7.70284 26.3895 8.11924 25.6384 8.72758 25.0599C9.33592 24.4814 10.107 24.1032 10.9368 23.9764C11.285 23.9256 12.7577 23.8241 12.7577 23.8241C15.7006 23.5521 18.4275 22.1629 20.3776 19.9421C22.3278 17.7214 23.353 14.8379 23.2424 11.8845C23.1319 8.93108 21.894 6.13228 19.7832 4.06354C17.6725 1.99481 14.8494 0.813367 11.8944 0.762146V0.762146Z" fill="white"/>
<path d="M133.551 27.3932C133.301 27.3425 133.044 27.3417 132.793 27.3909C132.543 27.4401 132.305 27.5383 132.092 27.6799C131.88 27.8214 131.698 28.0036 131.556 28.2158C131.414 28.4281 131.316 28.6662 131.266 28.9166C131.213 29.167 131.21 29.4255 131.257 29.6771C131.305 29.9286 131.403 30.168 131.545 30.381C131.687 30.5941 131.871 30.7765 132.084 30.9174C132.298 31.0584 132.538 31.1551 132.79 31.2018C133.04 31.2586 133.299 31.2639 133.551 31.2173C133.803 31.1706 134.043 31.073 134.257 30.9304C134.47 30.7878 134.652 30.6032 134.791 30.388C134.931 30.1727 135.025 29.9312 135.068 29.6783C135.153 29.176 135.044 28.66 134.762 28.2354C134.48 27.8108 134.048 27.5096 133.551 27.3932Z" fill="#E6007A"/>
</g>
<defs>
<clipPath id="clip0_257_270">
<rect width="134.759" height="32" fill="white" transform="translate(0.330811)"/>
</clipPath>
</defs>
</svg>
