<svg width="128" height="32" viewBox="0 0 147 32" fill="none" xmlns="http://www.w3.org/2000/svg">
<g clip-path="url(#clip0_20_14400)">
<path fill-rule="evenodd" clip-rule="evenodd" d="M83.0192 22.2901V0.0327148H79.0244V22.2901H83.0192ZM57.8802 10.1816C58.7752 10.7231 59.5334 11.4671 60.0151 12.4818C60.5667 13.4966 60.8418 14.7137 60.8418 16.0676C60.8418 17.4201 60.5667 18.5703 59.9467 19.585C59.3952 20.5998 58.57 21.3437 57.5367 21.8169C56.5035 22.3585 55.2635 22.6292 53.9552 22.6292C53.197 22.6292 52.5086 22.4938 51.8202 22.2231C51.1319 22.0207 50.5119 21.6145 50.0288 21.1413V28.1775H46.0339V9.63998H49.4772L49.8221 11.1279C51.3371 9.91077 52.9903 9.30078 54.712 9.30078C55.8835 9.30221 56.9852 9.57299 57.8802 10.1816ZM55.6768 18.5703C56.3652 17.9617 56.7101 17.1494 56.7101 16.1346C56.7101 15.1199 56.3652 14.3075 55.7452 13.632C55.1253 12.955 54.2987 12.6842 53.4036 12.6842C52.6454 12.6842 51.9571 12.8196 51.4069 13.1574C50.8554 13.4282 50.4421 13.9013 50.0986 14.5099V17.5541C50.3053 18.1627 50.7186 18.6358 51.2003 18.975C51.7518 19.3128 52.3704 19.5166 53.1286 19.5166C54.1618 19.518 54.9885 19.1788 55.6768 18.5703ZM63.1834 12.5475C63.8034 11.5997 64.63 10.7888 65.7317 10.2472C66.8334 9.70561 68.0733 9.36784 69.4515 9.36784C70.8296 9.36784 72.0681 9.63863 73.1712 10.2472C74.2045 10.7888 75.0311 11.5997 75.6511 12.6144C76.271 13.6292 76.5461 14.7123 76.5461 15.9964C76.5461 17.2805 76.271 18.3637 75.6511 19.3784C75.0311 20.3932 74.2743 21.2055 73.1712 21.7457C72.1379 22.2873 70.8296 22.625 69.4515 22.625C68.0733 22.625 66.8348 22.3542 65.7317 21.8127C64.63 21.2711 63.8034 20.5271 63.1834 19.5124C62.6319 18.4977 62.2884 17.3475 62.2884 15.995C62.2884 14.7123 62.6319 13.5622 63.1834 12.5475ZM67.2467 18.4335C67.7982 19.1105 68.555 19.3813 69.45 19.3813C70.3451 19.3813 71.1033 19.0435 71.6534 18.4335C72.2049 17.825 72.48 16.9456 72.48 15.9979C72.48 14.9831 72.2049 14.1708 71.6534 13.5622C71.0334 12.8852 70.3451 12.5475 69.3802 12.5475C68.4852 12.5475 67.7968 12.8852 67.1768 13.4952C66.6253 14.1722 66.3502 14.9831 66.3502 15.9979C66.3516 16.9456 66.6267 17.7566 67.2467 18.4335ZM99.4105 9.9777L91.284 28.2431H87.4274L90.4574 21.6814L84.6725 9.9777H89.2175L92.5239 17.2847L95.8304 9.9777H99.4105ZM114.7 22.29V9.9777H110.98L110.567 10.9255C110.154 10.4523 109.534 10.0461 108.707 9.77532C107.881 9.50453 106.985 9.36914 105.952 9.36914C104.849 9.36914 103.817 9.63993 102.852 10.2485C101.819 10.857 101.062 11.6694 100.442 12.6842C99.8224 13.6989 99.5474 14.849 99.5474 16.0662C99.5474 17.2833 99.8908 18.3664 100.442 19.3812C101.062 20.3959 101.819 21.2068 102.784 21.7484C103.749 22.357 104.849 22.6278 105.952 22.6278C107.055 22.6278 108.019 22.4254 108.845 22.0192C109.671 21.613 110.222 21.0715 110.635 20.4629V22.2216C110.635 23.1009 110.291 23.8449 109.602 24.3181C108.914 24.7912 108.087 25.062 107.054 25.062C106.227 25.062 105.47 24.8596 104.919 24.5888C104.367 24.3195 103.749 23.9133 103.197 23.3717L100.856 26.0782C101.476 26.6198 102.027 27.0259 102.577 27.3637C103.059 27.6345 103.679 27.9053 104.437 28.1761C105.195 28.3784 106.09 28.5138 107.124 28.5138C108.502 28.5138 109.74 28.2431 110.912 27.7015C112.082 27.1613 112.978 26.4174 113.667 25.4696C114.355 24.5233 114.7 23.4401 114.7 22.29ZM110.637 14.5098V17.5541C109.947 18.7712 108.777 19.3812 107.194 19.4482C106.229 19.4482 105.402 19.1104 104.714 18.4334C104.025 17.7579 103.68 16.8785 103.68 15.9308C103.68 14.916 104.025 14.1037 104.714 13.4951C105.404 12.8851 106.23 12.5473 107.194 12.5473C108.02 12.5473 108.709 12.7511 109.329 13.0889C109.948 13.4267 110.362 13.9013 110.637 14.5098ZM118.007 12.5489C118.626 11.5341 119.453 10.7902 120.555 10.1816C121.656 9.64002 122.896 9.30225 124.275 9.30225C125.653 9.30225 126.891 9.57303 127.994 10.1816C129.028 10.7232 129.854 11.5341 130.474 12.5489C131.026 13.5636 131.369 14.6467 131.369 15.9308C131.369 17.215 131.094 18.2981 130.474 19.3128C129.923 20.3276 129.097 21.1399 127.994 21.6801C126.961 22.2217 125.653 22.5594 124.275 22.5594C122.898 22.5594 121.658 22.2887 120.555 21.7471C119.453 21.2055 118.626 20.4616 118.007 19.4468C117.387 18.4321 117.111 17.2819 117.111 15.861C117.111 14.7137 117.387 13.5636 118.007 12.5489ZM122.001 18.4349C122.553 19.1119 123.31 19.3827 124.205 19.3827C125.1 19.3827 125.858 19.0449 126.408 18.4349C126.96 17.8264 127.235 16.947 127.235 15.9993C127.235 14.9845 126.96 14.1722 126.408 13.5636C125.857 12.955 125.1 12.6158 124.205 12.6158C123.31 12.6158 122.621 12.9536 122.001 13.5636C121.381 14.1722 121.106 15.0515 121.106 15.9993C121.175 16.947 121.45 17.758 122.001 18.4349ZM146.726 13.0205C146.657 11.9388 146.314 11.0594 145.487 10.3825C144.729 9.70692 143.696 9.36772 142.524 9.36915C141.423 9.36915 140.458 9.57295 139.631 10.0461C138.805 10.5193 138.185 11.1278 137.703 11.9402L137.428 9.97771H133.778V22.2872H137.773V17.2134C137.773 15.9293 138.048 14.8462 138.599 13.9668C139.149 13.0875 139.908 12.6813 140.803 12.6813C141.974 12.6813 142.594 13.2913 142.663 14.5084V22.2886H146.726V13.0205Z" fill="white"/>
<path d="M28.9545 9.77542C28.2661 9.36924 27.3711 9.36924 26.6129 9.77542L21.2413 12.8881L17.5914 14.9175L12.2183 18.0287C11.53 18.4349 10.635 18.4349 9.87675 18.0287L5.60685 15.5931C4.91848 15.1869 4.43534 14.4429 4.43534 13.6306V8.82766C4.43534 8.0153 4.84864 7.27135 5.60685 6.86516L9.80834 4.49791C10.4967 4.09173 11.3917 4.09173 12.1499 4.49791L16.3514 6.86516C17.0398 7.27135 17.5229 8.0153 17.5229 8.82766V11.9403L21.1729 9.8424V6.7312C21.1729 5.91883 20.7596 5.17488 20.0028 4.7687L12.2183 0.304972C11.53 -0.10121 10.635 -0.10121 9.87675 0.304972L1.95691 4.77012C1.19871 5.17488 0.7854 5.91883 0.7854 6.7312V15.7285C0.7854 16.5408 1.19871 17.2848 1.95691 17.691L9.87675 22.1561C10.5651 22.5623 11.4601 22.5623 12.2183 22.1561L17.5899 19.1119L21.2399 17.014L26.6114 13.9698C27.2998 13.5636 28.1948 13.5636 28.953 13.9698L33.1545 16.337C33.8429 16.7432 34.3246 17.4872 34.3246 18.2995V23.1025C34.3246 23.9148 33.9113 24.6588 33.1545 25.065L28.953 27.5006C28.2647 27.9068 27.3696 27.9068 26.6114 27.5006L22.41 25.1334C21.7216 24.7272 21.2384 23.9832 21.2384 23.1709V20.0582L17.5885 22.1547V25.2673C17.5885 26.0797 18.0018 26.8237 18.7586 27.2298L26.6784 31.695C27.3668 32.1012 28.2618 32.1012 29.02 31.695L36.9399 27.2298C37.6282 26.8237 38.1114 26.0797 38.1114 25.2673V16.2701C38.1114 15.4577 37.6981 14.7137 36.9399 14.309L28.9545 9.77542Z" fill="#8247E5"/>
</g>
<defs>
<clipPath id="clip0_20_14400">
<rect width="145.94" height="32" fill="white" transform="translate(0.7854)"/>
</clipPath>
</defs>
</svg>
