<svg width="128" height="32" viewBox="0 0 232 32" fill="none" xmlns="http://www.w3.org/2000/svg">
<g clip-path="url(#clip0_256_300)">
<path d="M16.4314 9.04217C18.1174 10.4521 19.2379 12.4231 19.5868 14.593H13.243C13.094 13.7578 12.6505 13.0036 11.993 12.4674C11.2927 11.9374 10.4311 11.6651 9.55346 11.6964C8.93156 11.6529 8.31401 11.8282 7.8078 12.1921C7.60716 12.3657 7.44915 12.5831 7.34602 12.8276C7.24289 13.072 7.1974 13.3369 7.21307 13.6018C7.21628 13.9408 7.32369 14.2705 7.52071 14.5463C7.71773 14.8222 7.99484 15.0307 8.31443 15.1437C9.41926 15.6061 10.569 15.9531 11.7452 16.179C13.1567 16.4937 14.5471 16.8965 15.9083 17.385C17.0012 17.8035 17.9696 18.4933 18.7223 19.3894C19.5605 20.449 19.9799 21.7798 19.9007 23.1286C19.921 24.3324 19.5606 25.5118 18.871 26.4987C18.114 27.5272 17.0837 28.3227 15.8973 28.795C14.4343 29.3782 12.8679 29.6573 11.2936 29.6156C8.30158 29.6156 5.9153 28.9547 4.13477 27.6331C3.23019 26.9604 2.47113 26.1116 1.9033 25.1377C1.33546 24.1639 0.970602 23.0852 0.830688 21.9666H7.37276C7.39819 22.4008 7.52014 22.8238 7.72972 23.2048C7.9393 23.5859 8.23123 23.9154 8.58426 24.1693C9.3876 24.693 10.3359 24.9493 11.2936 24.9017C11.9239 24.9427 12.5466 24.7463 13.0393 24.3511C13.2354 24.175 13.3904 23.9579 13.4931 23.7152C13.5959 23.4725 13.644 23.2102 13.634 22.9468C13.6473 22.5907 13.548 22.2394 13.3503 21.9428C13.1526 21.6463 12.8665 21.4195 12.5326 21.2948C11.3839 20.8347 10.1948 20.4826 8.98075 20.243C7.60799 19.9766 6.25693 19.6084 4.93876 19.1416C3.87158 18.7446 2.92372 18.0811 2.18536 17.2143C1.38517 16.1865 0.987668 14.9019 1.06748 13.6018C1.04663 12.6823 1.24032 11.7706 1.63319 10.939C2.02605 10.1074 2.60728 9.37875 3.33077 8.81089C4.83229 7.58471 6.95975 6.96978 9.71315 6.96611C12.4666 6.96244 14.706 7.65446 16.4314 9.04217Z" fill="white"/>
<path d="M46.1902 7.2139V29.3402H39.3783V25.3313C38.7538 26.6151 37.7681 27.6887 36.5423 28.4206C35.22 29.2077 33.7028 29.6065 32.1644 29.5715C29.6276 29.5715 27.6084 28.7253 26.1069 27.0329C24.6054 25.3404 23.8583 23.0166 23.8657 20.0613V7.2139H30.606V19.2297C30.5256 20.5071 30.9463 21.7655 31.7789 22.7376C32.1848 23.158 32.6758 23.4869 33.219 23.7025C33.7621 23.9181 34.3451 24.0153 34.9288 23.9876C35.5331 24.0187 36.1369 23.9176 36.6981 23.6912C37.2593 23.4648 37.7643 23.1187 38.1778 22.677C38.9708 21.8069 39.3783 20.5624 39.3783 18.9544V7.2139H46.1902Z" fill="white"/>
<path d="M70.4312 8.30425C71.9144 9.26752 73.0974 10.6279 73.8454 12.2306C74.7175 14.1282 75.1433 16.2003 75.0899 18.2881C75.1423 20.3757 74.7166 22.4477 73.8454 24.3455C73.1025 25.9559 71.9188 27.3229 70.4312 28.2884C68.966 29.2081 67.2653 29.6825 65.5356 29.6541C64.0022 29.6971 62.4886 29.2996 61.1742 28.5087C59.976 27.7565 59.0469 26.6442 58.52 25.3313V29.3347H51.7411V0H58.52V11.2229C59.0531 9.92521 59.9819 8.82875 61.1742 8.08948C62.4881 7.29667 64.0017 6.89725 65.5356 6.93856C67.265 6.91264 68.965 7.38688 70.4312 8.30425ZM59.8471 14.3177C58.8923 15.4019 58.4018 16.818 58.4814 18.2605C58.4062 19.6975 58.8964 21.1068 59.8471 22.1869C60.3049 22.6506 60.8497 23.0196 61.4502 23.2725C62.0507 23.5255 62.6953 23.6576 63.3469 23.6611C63.9986 23.6647 64.6445 23.5397 65.2478 23.2934C65.8511 23.047 66.3999 22.6841 66.8628 22.2254C67.8029 21.1258 68.2805 19.7048 68.1954 18.2605C68.2805 16.8163 67.8029 15.3953 66.8628 14.2956C66.4146 13.8202 65.8694 13.4467 65.2641 13.2006C64.6588 12.9545 64.0077 12.8416 63.3549 12.8694C62.701 12.8487 62.0502 12.9671 61.4454 13.2167C60.8407 13.4664 60.2959 13.8417 59.8471 14.3177Z" fill="white"/>
<path d="M93.6258 9.04217C95.3117 10.4521 96.4322 12.4231 96.7812 14.593H90.4373C90.2907 13.7569 89.8467 13.002 89.1873 12.4674C88.487 11.9374 87.6254 11.6651 86.7478 11.6964C86.1259 11.6529 85.5083 11.8282 85.0021 12.1921C84.8015 12.3657 84.6435 12.5831 84.5403 12.8276C84.4372 13.072 84.3917 13.3369 84.4074 13.6018C84.4106 13.9408 84.518 14.2705 84.715 14.5463C84.9121 14.8222 85.1892 15.0307 85.5087 15.1437C86.6136 15.6061 87.7633 15.9531 88.9395 16.179C90.351 16.4937 91.7414 16.8965 93.1026 17.385C94.1955 17.8035 95.1639 18.4933 95.9166 19.3894C96.7548 20.449 97.1742 21.7798 97.095 23.1286C97.1153 24.3324 96.7549 25.5118 96.0653 26.4987C95.3083 27.5272 94.278 28.3227 93.0916 28.795C91.6314 29.3822 90.0668 29.6652 88.4934 29.6266C85.5087 29.6266 83.1225 28.9658 81.3346 27.6441C80.43 26.9714 79.671 26.1226 79.1031 25.1487C78.5353 24.1749 78.1704 23.0962 78.0305 21.9776H84.5726C84.5992 22.4115 84.7216 22.8341 84.9311 23.215C85.1406 23.5959 85.4319 23.9256 85.7841 24.1804C86.5864 24.7128 87.5369 24.977 88.4989 24.9348C89.1292 24.9758 89.7519 24.7793 90.2446 24.3841C90.4407 24.208 90.5957 23.991 90.6985 23.7483C90.8013 23.5056 90.8493 23.2432 90.8393 22.9799C90.8526 22.6237 90.7534 22.2724 90.5556 21.9759C90.3579 21.6793 90.0718 21.4526 89.738 21.3278C88.5898 20.8621 87.4007 20.5044 86.1861 20.2595C84.8133 19.9931 83.4623 19.6249 82.1441 19.1582C81.0769 18.7611 80.1291 18.0976 79.3907 17.2308C78.5761 16.2047 78.1666 14.9153 78.2398 13.6073C78.2207 12.685 78.4173 11.7711 78.8141 10.9383C79.2109 10.1055 79.7968 9.37704 80.5251 8.81089C82.0266 7.58471 84.1541 6.96978 86.9075 6.96611C89.6609 6.96244 91.9003 7.65446 93.6258 9.04217Z" fill="white"/>
<path d="M113.946 23.514V29.3402H110.895C108.307 29.3402 106.286 28.7014 104.838 27.4183C103.389 26.1353 102.706 24.0151 102.706 21.0525V12.9245H99.7383V7.21391H102.706V1.78421H109.491V7.21391H113.929V12.9245H109.491V21.1846C109.458 21.5098 109.49 21.8382 109.584 22.151C109.679 22.4638 109.834 22.7549 110.041 23.0074C110.557 23.4016 111.202 23.5865 111.848 23.525L113.946 23.514Z" fill="white"/>
<path d="M129.073 8.16659C130.383 7.37991 131.884 6.96844 133.412 6.97712V14.2351H131.474C129.673 14.2351 128.28 14.6151 127.289 15.386C126.298 16.157 125.802 17.4455 125.802 19.2683V29.3402H119.023V7.21392H125.802V11.3771C126.62 10.0609 127.742 8.96001 129.073 8.16659Z" fill="white"/>
<path d="M149.118 8.0895C150.314 8.83494 151.253 9.92827 151.811 11.2229V7.21392H158.551V29.3402H151.811V25.3313C151.252 26.6249 150.313 27.7179 149.118 28.4646C147.803 29.2555 146.29 29.653 144.756 29.6101C143.025 29.6386 141.322 29.1642 139.855 28.2444C138.369 27.2793 137.187 25.912 136.447 24.3015C135.573 22.4041 135.146 20.3321 135.197 18.244C135.145 16.1559 135.573 14.0837 136.447 12.1866C137.193 10.5843 138.374 9.22382 139.855 8.26021C141.324 7.34298 143.025 6.86879 144.756 6.89453C146.295 6.86645 147.809 7.28125 149.118 8.0895ZM143.424 14.3177C142.488 15.4193 142.012 16.8394 142.097 18.2826C142.012 19.7257 142.488 21.1459 143.424 22.2475C144.362 23.1688 145.627 23.6818 146.942 23.6746C148.257 23.6673 149.516 23.1405 150.445 22.2089C151.393 21.127 151.882 19.719 151.811 18.2826C151.896 16.8326 151.405 15.4075 150.445 14.3177C149.996 13.8417 149.451 13.4664 148.847 13.2168C148.242 12.9671 147.591 12.8487 146.937 12.8694C146.282 12.845 145.629 12.9617 145.023 13.2116C144.417 13.4615 143.871 13.8387 143.424 14.3177Z" fill="white"/>
<path d="M176.393 23.514V29.3402H173.342C170.75 29.3402 168.731 28.6996 167.285 27.4183C165.838 26.1371 165.117 24.0151 165.12 21.0525V12.9245H162.18V7.21391H165.153V1.78421H171.938V7.21391H176.376V12.9245H171.938V21.1846C171.905 21.5098 171.937 21.8382 172.031 22.151C172.126 22.4638 172.281 22.7549 172.489 23.0074C173.002 23.4007 173.645 23.5856 174.289 23.525L176.393 23.514Z" fill="white"/>
<path d="M201.41 19.5051H186.068C186.145 21.1755 186.568 22.3723 187.335 23.0955C187.728 23.463 188.189 23.7495 188.693 23.9385C189.196 24.1274 189.732 24.2153 190.27 24.1969C191.164 24.2298 192.044 23.9644 192.77 23.4424C193.419 22.9578 193.881 22.2631 194.075 21.4765H201.234C200.958 23.0078 200.305 24.4462 199.334 25.6617C198.335 26.9052 197.058 27.8973 195.606 28.5583C193.892 29.299 192.035 29.6544 190.168 29.5992C188.302 29.544 186.47 29.0796 184.802 28.2389C183.149 27.333 181.795 25.9672 180.903 24.307C179.912 22.445 179.418 20.3584 179.471 18.2495C179.418 16.1434 179.904 14.0585 180.881 12.1921C181.782 10.5252 183.153 9.15992 184.824 8.26572C186.621 7.37554 188.6 6.91241 190.606 6.91241C192.612 6.91241 194.591 7.37554 196.388 8.26572C198.01 9.12927 199.349 10.4429 200.243 12.0489C201.175 13.7699 201.646 15.7032 201.609 17.6603C201.604 18.2803 201.537 18.8982 201.41 19.5051ZM193.569 13.3815C192.75 12.6446 191.679 12.2503 190.578 12.2802C189.443 12.2346 188.335 12.6291 187.484 13.3815C186.61 14.2386 186.111 15.4067 186.096 16.6305H194.742C194.775 15.1988 194.389 14.1084 193.569 13.3815Z" fill="white"/>
<path d="M231.978 25.3808V31.989H207.44V25.3808H231.978Z" fill="#18FFB2"/>
</g>
<defs>
<clipPath id="clip0_256_300">
<rect width="231.148" height="32" fill="white" transform="translate(0.830688)"/>
</clipPath>
</defs>
</svg>
