<svg width="128" height="32" viewBox="0 0 137 32" fill="none" xmlns="http://www.w3.org/2000/svg">
<g clip-path="url(#clip0_23_6126)">
<path fill-rule="evenodd" clip-rule="evenodd" d="M30.5529 14.6824C23.494 15.8118 3.63522 10.9176 8.81169 3.76471C10.5999 1.31765 13.6117 0.0941176 17.9411 0C25.1047 0.0918407 27.9666 2.60339 29.5 3.94917C29.5381 3.98253 29.5753 4.01518 29.6117 4.04706C29.7058 4.23529 29.894 4.42353 30.0823 4.61176L30.0823 4.61181C30.647 5.27062 31.2117 5.92943 31.7764 6.68235C31.9198 6.93326 32.0768 7.18416 32.2371 7.44026C32.4977 7.85663 32.7668 8.28675 32.9999 8.75294C35.5411 13.8353 31.7764 14.4941 30.5529 14.6824ZM21.4235 32C19.8235 32.0941 16.5294 29.4588 15.5882 25.9765C13.8 19.3882 27.9176 16.0941 29.2353 16C32.9059 16.0941 33.7529 20.5176 31.1176 25.0353C27.7294 30.7765 21.5176 32 21.4235 32Z" fill="#073AAB"/>
<path fill-rule="evenodd" clip-rule="evenodd" d="M66.7882 3.8588H43.6353V9.31762H52.0117V29.0823H58.4117V9.31762H66.7882V3.8588ZM100.106 8.94117H99.0705C98.5057 8.94117 98.0352 9.03529 97.5646 9.12941C95.6822 9.50588 94.4587 10.5412 93.3293 11.6706V9.41176H87.3058V29.1765H93.3293V20.8941C93.3293 19.9529 93.4234 19.0118 93.5175 18.1647C93.6116 17.3176 93.894 16.6588 94.1763 16.0941C94.5528 15.5294 95.0234 15.0588 95.6822 14.6823C96.341 14.4 97.2822 14.2118 98.4116 14.2118C98.8822 14.2118 99.2587 14.2118 99.7293 14.3059C99.9175 14.3529 100.129 14.4 100.341 14.447L100.341 14.4471L100.341 14.4471C100.553 14.4941 100.765 14.5412 100.953 14.5882V9.12941C100.765 9.03529 100.388 8.94117 100.106 8.94117ZM79.2117 10.447C80.3411 10.9176 81.2823 11.5764 82.1294 12.5176C82.9764 13.3646 83.5411 14.494 84.1058 15.6235C84.5764 16.847 84.7647 18.2587 84.7647 19.7646V21.647H70.5529C70.8353 22.7764 71.3058 23.7176 72.1529 24.3764C73 25.0352 73.9411 25.4117 75.1647 25.4117C76.2 25.4117 77.047 25.2235 77.7058 24.7529C78.3647 24.2823 79.0235 23.7176 79.4941 23.0587L83.7294 26.1646C82.7882 27.3882 81.5647 28.3293 80.0588 28.9882C78.5529 29.647 76.9529 30.0235 75.3529 30.0235C73.847 30.0235 72.3411 29.7411 71.0235 29.2705C69.7058 28.7999 68.5764 28.1411 67.5411 27.1999C66.5058 26.3529 65.7529 25.2235 65.1882 23.9999C64.6235 22.7764 64.3411 21.3646 64.3411 19.8587C64.3411 18.3529 64.6235 16.9411 65.1882 15.7176C65.7529 14.494 66.5058 13.4587 67.5411 12.5176C68.4823 11.5764 69.7058 10.9176 71.0235 10.447C72.4353 9.88228 73.847 9.69404 75.3529 9.69404C76.7647 9.69404 78.0823 9.9764 79.2117 10.447ZM70.4588 17.694H78.5529C78.5529 16.6587 78.2705 15.8117 77.5176 15.0587C76.8588 14.3999 75.9176 14.0235 74.7882 14.0235C74.1294 14.0235 73.5647 14.1176 73 14.3058L72.9999 14.3058C72.5294 14.5882 72.0588 14.8705 71.6823 15.1529C71.3058 15.4352 71.0235 15.8117 70.8353 16.2823C70.647 16.7529 70.4588 17.2235 70.4588 17.694ZM134.835 11.953C133.424 10.5412 131.071 9.78825 127.965 9.78825C124.482 9.78825 122.318 10.4471 120.059 11.3883L121.471 15.6235C123.353 14.9647 124.953 14.5883 127.118 14.5883C130.035 14.5883 131.541 15.9059 131.541 18.1647V18.5412C130.129 18.0706 128.624 17.6941 126.553 17.6941C121.659 17.6941 118.271 19.6706 118.271 24V24.0941C118.271 27.953 121.471 30.1177 125.329 30.1177C128.153 30.1177 130.129 29.0824 131.541 27.5765V29.7412H137.188V18.2588C137 15.6235 136.341 13.4588 134.835 11.953ZM131.541 22.7765C131.541 24.753 129.753 26.2588 127.024 26.2588C125.141 26.2588 123.824 25.4118 123.824 23.9059V23.8118C123.824 22.0235 125.329 21.0824 127.871 21.0824C129 21.0824 130.035 21.2706 130.882 21.553C131.259 21.6471 131.541 22.0235 131.541 22.4941V22.7765ZM115.353 8.94117H116.388C116.671 8.94117 117.047 9.03529 117.235 9.12941V14.5882C117.047 14.5412 116.835 14.4941 116.623 14.4471C116.412 14.4 116.2 14.3529 116.012 14.3059C115.541 14.2118 115.165 14.2118 114.694 14.2118C113.565 14.2118 112.623 14.4 111.965 14.6823C111.306 15.0588 110.835 15.5294 110.459 16.0941C110.176 16.6588 109.894 17.3176 109.8 18.1647C109.706 19.0118 109.612 19.9529 109.612 20.8941V29.1765H103.588V9.41176H109.612V11.6706C110.741 10.5412 111.965 9.50588 113.847 9.12941C114.318 9.03529 114.788 8.94117 115.353 8.94117Z" fill="#073AAB"/>
<path fill-rule="evenodd" clip-rule="evenodd" d="M12.4824 3.76472C10.3177 6.77648 3.07059 8.94119 1.84706 8.65883C1.88301 8.58693 1.90523 8.52877 1.92421 8.47908C1.95491 8.3987 1.97713 8.34053 2.0353 8.28236C2.41177 7.52942 2.88236 6.8706 3.44706 6.21177C4.01177 5.55295 4.57648 4.89413 5.14118 4.32942C6.17648 3.38825 7.30589 2.54119 8.52942 1.88236C9.56471 1.31766 10.6 1.31766 10.8824 1.31766C13.8109 1.31766 12.7969 3.17738 12.5358 3.65625C12.5032 3.71602 12.4824 3.75427 12.4824 3.76472ZM11.6353 26.7294C11.8235 27.7647 11.6353 31.6235 11.4471 32C11.2588 32 10.8824 32 9.75295 31.4353C9.18825 31.153 8.62355 30.7765 8.05885 30.4L8.05883 30.4C7.30589 29.9294 6.64706 29.3647 5.98824 28.7059C5.32942 28.1412 4.76471 27.4824 4.20001 26.7294C3.6353 26.0706 3.16471 25.3177 2.69412 24.5647C2.36146 24.0325 2.12287 23.4532 1.87859 22.8601C1.77731 22.6142 1.67505 22.3659 1.56471 22.1177C1.00001 20.4235 0.623535 18.6353 0.623535 16.8471C0.623535 14.8706 1.00001 12.8941 1.75295 11.0118C2.28 11.6518 2.83717 12.2616 3.39433 12.8715L3.39436 12.8715L3.39437 12.8716C4.23013 13.7864 5.06589 14.7012 5.80001 15.7177C7.02354 17.2235 8.71765 19.7647 9.00001 20.3294C11.0145 23.4825 11.3988 25.4944 11.5941 26.517L11.5942 26.5172C11.6087 26.5934 11.6222 26.6641 11.6353 26.7294ZM25.5647 31.7176C24.0588 32.3764 22.4588 31.9058 22.8353 30.4941C23.6823 27.6705 30.8353 24.847 32.4353 24.6588H32.6235V24.847C30.9294 27.7646 28.4823 30.1176 25.5647 31.7176ZM33.9765 22.7765C34.7294 20.8941 35.2 18.7294 35.2 16.5647C35.2 11.4823 32.9412 6.87058 29.2706 3.67058C28.2353 2.82352 26.353 2.82352 25.7883 2.82352C20.8 3.01175 9.31767 6.87058 10.0706 12.4235C10.6219 16.1907 16.017 18.6124 18.0244 19.5134C18.0732 19.5353 18.12 19.5563 18.1647 19.5765C18.2589 19.6706 32 24.9412 33.9765 22.7765Z" fill="#5591FE"/>
</g>
<defs>
<clipPath id="clip0_23_6126">
<rect width="136.376" height="32" fill="white" transform="translate(0.623535)"/>
</clipPath>
</defs>
</svg>
