<svg width="34" height="27" viewBox="0 0 34 27" fill="none" xmlns="http://www.w3.org/2000/svg">
<path d="M33.9049 3.98712C32.6554 4.50912 31.324 4.85512 29.9359 5.02312C31.3639 4.21112 32.4538 2.93512 32.9662 1.39712C31.6348 2.15312 30.1648 2.68712 28.5982 2.98512C27.334 1.70312 25.5322 0.909119 23.5666 0.909119C19.753 0.909119 16.6828 3.85712 16.6828 7.47112C16.6828 7.99112 16.729 8.49112 16.8424 8.96712C11.1157 8.70112 6.04843 6.08712 2.64433 2.10512C2.05003 3.08712 1.70143 4.21112 1.70143 5.42112C1.70143 7.69312 2.92993 9.70712 4.76113 10.8731C3.65443 10.8531 2.56873 10.5471 1.64893 10.0651C1.64893 10.0851 1.64893 10.1111 1.64893 10.1371C1.64893 13.3251 4.03663 15.9731 7.16773 16.5831C6.60703 16.7291 5.99593 16.7991 5.36173 16.7991C4.92073 16.7991 4.47553 16.7751 4.05763 16.6871C4.95013 19.2851 7.48273 21.1951 10.4941 21.2571C8.15053 23.0031 5.17483 24.0551 1.95343 24.0551C1.38853 24.0551 0.846732 24.0311 0.304932 23.9651C3.35623 25.8391 6.97243 26.9091 10.8721 26.9091C23.5477 26.9091 30.4777 16.9091 30.4777 8.24112C30.4777 7.95112 30.4672 7.67112 30.4525 7.39312C31.8196 6.46912 32.9683 5.31512 33.9049 3.98712Z" fill="#FFE3FF"/>
</svg>
