<svg width="35" height="32" viewBox="0 0 35 32" fill="none" xmlns="http://www.w3.org/2000/svg">
<path fill-rule="evenodd" clip-rule="evenodd" d="M11.4961 0H24.0961C29.8942 0 34.5961 4.478 34.5961 10V22C34.5961 27.522 29.8942 32 24.0961 32H11.4961C5.69799 32 0.996094 27.522 0.996094 22V10C0.996094 4.478 5.69799 0 11.4961 0ZM24.0962 29C28.1492 29 31.4462 25.86 31.4462 22V10C31.4462 6.14 28.1492 3 24.0962 3H11.4962C7.44317 3 4.14617 6.14 4.14617 10V22C4.14617 25.86 7.44317 29 11.4962 29H24.0962Z" fill="#FFE3FF"/>
<path fill-rule="evenodd" clip-rule="evenodd" d="M9.39624 16C9.39624 11.582 13.1573 8 17.7962 8C22.4351 8 26.1962 11.582 26.1962 16C26.1962 20.418 22.4351 24 17.7962 24C13.1573 24 9.39624 20.418 9.39624 16ZM12.5463 16C12.5463 18.756 14.9025 21 17.7963 21C20.6901 21 23.0463 18.756 23.0463 16C23.0463 13.242 20.6901 11 17.7963 11C14.9025 11 12.5463 13.242 12.5463 16Z" fill="#FFE3FF"/>
<ellipse cx="26.8261" cy="7.40017" rx="1.1193" ry="1.066" fill="#FFE3FF"/>
</svg>
