<svg width="30" height="30" viewBox="0 0 30 30" fill="none" xmlns="http://www.w3.org/2000/svg">
<g clip-path="url(#clip0_38_53)">
<path d="M29.8616 29.5456V29.5443H29.8688V18.8753C29.8688 13.6559 28.7452 9.63525 22.6434 9.63525C19.7101 9.63525 17.7416 11.245 16.9379 12.771H16.8531V10.1225H11.0676V29.5443H17.0919V19.9274C17.0919 17.3953 17.5719 14.9468 20.7076 14.9468C23.7973 14.9468 23.8434 17.8365 23.8434 20.0898V29.5456H29.8616Z" fill="#FFE3FF"/>
<path d="M1.25781 10.1235H7.28933V29.5454H1.25781V10.1235Z" fill="#FFE3FF"/>
<path d="M4.27117 0.454529C2.34268 0.454529 0.777832 2.01938 0.777832 3.94786C0.777832 5.87635 2.34268 7.47392 4.27117 7.47392C6.19965 7.47392 7.7645 5.87635 7.7645 3.94786C7.76329 2.01938 6.19844 0.454529 4.27117 0.454529V0.454529Z" fill="#FFE3FF"/>
</g>
<defs>
<clipPath id="clip0_38_53">
<rect width="29.0909" height="29.0909" fill="white" transform="translate(0.777832 0.454529)"/>
</clipPath>
</defs>
</svg>
